<svg xmlns="http://www.w3.org/2000/svg" xmlns:xlink="http://www.w3.org/1999/xlink" version="1.1" id="Capa_1" x="0px" y="0px" width="100px" height="100px" viewBox="0 0 100 100" enable-background="new 0 0 100 100" xml:space="preserve">
<path d="M91.444,92c-0.004,0-0.009,0-0.012,0H9.522c-1.245,0-2.4-1.001-3.044-2.067s-0.683-2.566-0.104-3.668L47.33,8.253  c0.615-1.169,1.827-1.945,3.147-1.945s2.533,0.711,3.147,1.88l40.828,77.672C94.8,86.408,95,87.403,95,88.1  C95,90.064,93.408,92,91.444,92z M15.408,84h70.139L50.478,17.274L15.408,84z"/>
<path d="M49.504,65.139c0-1.256-0.121-2.465-0.362-3.628c-0.241-1.162-0.612-2.308-1.115-3.439c-0.251-0.607-0.68-1.518-1.287-2.732  c-2.22-4.522-3.329-8.438-3.329-11.746c0-2.994,0.638-5.381,1.915-7.161c1.277-1.78,2.994-2.669,5.151-2.669  c2.136,0,3.847,0.89,5.135,2.669c1.288,1.78,1.932,4.167,1.932,7.161c0,3.308-1.11,7.223-3.329,11.746  c-0.608,1.215-1.037,2.125-1.288,2.732c-0.502,1.131-0.874,2.277-1.115,3.439c-0.241,1.162-0.361,2.371-0.361,3.628H49.504z   M44.165,74.529c0-1.737,0.612-3.219,1.837-4.444c1.225-1.225,2.717-1.837,4.476-1.837c1.737,0,3.225,0.612,4.46,1.837  c1.235,1.224,1.853,2.706,1.853,4.444c0,1.78-0.613,3.277-1.837,4.491c-1.225,1.214-2.717,1.822-4.476,1.822  c-1.78,0-3.277-0.607-4.491-1.822C44.772,77.806,44.165,76.309,44.165,74.529z"/>
</svg>