<?xml version="1.0" encoding="UTF-8" standalone="no"?>
<!DOCTYPE svg PUBLIC "-//W3C//DTD SVG 1.1//EN"
 "http://www.w3.org/Graphics/SVG/1.1/DTD/svg11.dtd">
<!-- Generated by graphviz version 2.38.0 (20140413.2041)
 -->
<!-- Title: G Pages: 1 -->
<svg width="1128pt" height="1266pt"
 viewBox="0.00 0.00 1128.28 1266.00" xmlns="http://www.w3.org/2000/svg" xmlns:xlink="http://www.w3.org/1999/xlink">
<g id="graph0" class="graph" transform="scale(1 1) rotate(0) translate(4 1262)">
<title>G</title>
<polygon fill="white" stroke="none" points="-4,4 -4,-1262 1124.28,-1262 1124.28,4 -4,4"/>
<g id="clust1" class="cluster"><title>cluster_Global</title>
<path fill="none" stroke="gray" d="M20,-44C20,-44 1100.28,-44 1100.28,-44 1106.28,-44 1112.28,-50 1112.28,-56 1112.28,-56 1112.28,-1238 1112.28,-1238 1112.28,-1244 1106.28,-1250 1100.28,-1250 1100.28,-1250 20,-1250 20,-1250 14,-1250 8,-1244 8,-1238 8,-1238 8,-56 8,-56 8,-50 14,-44 20,-44"/>
<text text-anchor="middle" x="560.139" y="-1237.2" font-family="Times New Roman,serif" font-size="11.00" fill="gray">Global</text>
</g>
<!-- \\Ontology -->
<g id="node1" class="node"><title>\\Ontology</title>
<polygon fill="none" stroke="black" points="507,-1114 436,-1114 436,-1078 507,-1078 507,-1114"/>
<text text-anchor="middle" x="471.5" y="-1093.2" font-family="Courier,monospace" font-size="11.00">Ontology</text>
</g>
<!-- \\LDEntity -->
<g id="node62" class="node"><title>\\LDEntity</title>
<polygon fill="none" stroke="black" points="287,-412 216,-412 216,-376 287,-376 287,-412"/>
<text text-anchor="middle" x="251.5" y="-391.2" font-family="Courier,monospace" font-size="11.00">LDEntity</text>
</g>
<!-- \\Ontology&#45;&gt;\\LDEntity -->
<g id="edge1" class="edge"><title>\\Ontology&#45;&gt;\\LDEntity</title>
<path fill="none" stroke="black" d="M435.881,-1093.09C419.18,-1089.81 400.352,-1083.02 389,-1069 206.619,-843.822 490.633,-652.991 317,-421 311.772,-414.015 304.395,-408.823 296.488,-404.969"/>
<polygon fill="none" stroke="black" points="297.636,-401.656 287.06,-401.032 294.939,-408.115 297.636,-401.656"/>
</g>
<!-- \\GraphUpdateRequest -->
<g id="node2" class="node"><title>\\GraphUpdateRequest</title>
<polygon fill="none" stroke="black" points="540.5,-250 402.5,-250 402.5,-214 540.5,-214 540.5,-250"/>
<text text-anchor="middle" x="471.5" y="-229.2" font-family="Courier,monospace" font-size="11.00">GraphUpdateRequest</text>
</g>
<!-- \\EntityUpdate -->
<g id="node54" class="node"><title>\\EntityUpdate</title>
<polygon fill="none" stroke="black" points="300.5,-250 202.5,-250 202.5,-214 300.5,-214 300.5,-250"/>
<text text-anchor="middle" x="251.5" y="-229.2" font-family="Courier,monospace" font-size="11.00">EntityUpdate</text>
</g>
<!-- \\GraphUpdateRequest&#45;&gt;\\EntityUpdate -->
<g id="edge2" class="edge"><title>\\GraphUpdateRequest&#45;&gt;\\EntityUpdate</title>
<path fill="none" stroke="black" d="M402.42,-232C373.046,-232 339.034,-232 310.839,-232"/>
<polygon fill="none" stroke="black" points="310.733,-228.5 300.733,-232 310.733,-235.5 310.733,-228.5"/>
</g>
<!-- \\LDPropertyValue -->
<g id="node3" class="node"><title>\\LDPropertyValue</title>
<polygon fill="none" stroke="black" points="310.5,-1222 192.5,-1222 192.5,-1186 310.5,-1186 310.5,-1222"/>
<text text-anchor="middle" x="251.5" y="-1201.2" font-family="Courier,monospace" font-size="11.00">LDPropertyValue</text>
</g>
<!-- \\DacuraObject -->
<g id="node50" class="node"><title>\\DacuraObject</title>
<polygon fill="none" stroke="black" points="114,-736 16,-736 16,-700 114,-700 114,-736"/>
<text text-anchor="middle" x="65" y="-715.2" font-family="Courier,monospace" font-size="11.00">DacuraObject</text>
</g>
<!-- \\LDPropertyValue&#45;&gt;\\DacuraObject -->
<g id="edge3" class="edge"><title>\\LDPropertyValue&#45;&gt;\\DacuraObject</title>
<path fill="none" stroke="black" d="M196.118,-1185.97C192.386,-1183.37 188.945,-1180.39 186,-1177 73.5628,-1047.51 64.6414,-825.036 65.2291,-746.481"/>
<polygon fill="none" stroke="black" points="68.7301,-746.422 65.3654,-736.376 61.7308,-746.328 68.7301,-746.422"/>
</g>
<!-- \\Widget -->
<g id="node4" class="node"><title>\\Widget</title>
<polygon fill="none" stroke="black" points="500,-1060 443,-1060 443,-1024 500,-1024 500,-1060"/>
<text text-anchor="middle" x="471.5" y="-1039.2" font-family="Courier,monospace" font-size="11.00">Widget</text>
</g>
<!-- \\Widget&#45;&gt;\\LDEntity -->
<g id="edge4" class="edge"><title>\\Widget&#45;&gt;\\LDEntity</title>
<path fill="none" stroke="black" d="M442.818,-1040.23C424.691,-1037.52 402.026,-1030.92 389,-1015 220.596,-809.184 477.407,-633.108 317,-421 311.737,-414.041 304.345,-408.861 296.434,-405.01"/>
<polygon fill="none" stroke="black" points="297.583,-401.697 287.006,-401.073 294.885,-408.156 297.583,-401.697"/>
</g>
<!-- \\Schema -->
<g id="node5" class="node"><title>\\Schema</title>
<polygon fill="none" stroke="black" points="280,-1168 223,-1168 223,-1132 280,-1132 280,-1168"/>
<text text-anchor="middle" x="251.5" y="-1147.2" font-family="Courier,monospace" font-size="11.00">Schema</text>
</g>
<!-- \\Schema&#45;&gt;\\DacuraObject -->
<g id="edge5" class="edge"><title>\\Schema&#45;&gt;\\DacuraObject</title>
<path fill="none" stroke="black" d="M222.817,-1144.22C210.017,-1140.23 195.565,-1133.66 186,-1123 85.6224,-1011.11 69.055,-818.749 66.4383,-746.517"/>
<polygon fill="none" stroke="black" points="69.9323,-746.261 66.1362,-736.369 62.9354,-746.469 69.9323,-746.261"/>
</g>
<!-- \\RequestLog -->
<g id="node6" class="node"><title>\\RequestLog</title>
<polygon fill="none" stroke="black" points="1067.28,-1046 983.278,-1046 983.278,-1010 1067.28,-1010 1067.28,-1046"/>
<text text-anchor="middle" x="1025.28" y="-1025.2" font-family="Courier,monospace" font-size="11.00">RequestLog</text>
</g>
<!-- \\ConfigDacuraServer -->
<g id="node7" class="node"><title>\\ConfigDacuraServer</title>
<polygon fill="none" stroke="black" points="819.139,-466 681.139,-466 681.139,-430 819.139,-430 819.139,-466"/>
<text text-anchor="middle" x="750.139" y="-445.2" font-family="Courier,monospace" font-size="11.00">ConfigDacuraServer</text>
</g>
<!-- \\DacuraServer -->
<g id="node51" class="node"><title>\\DacuraServer</title>
<polygon fill="none" stroke="black" points="520.5,-412 422.5,-412 422.5,-376 520.5,-376 520.5,-412"/>
<text text-anchor="middle" x="471.5" y="-391.2" font-family="Courier,monospace" font-size="11.00">DacuraServer</text>
</g>
<!-- \\ConfigDacuraServer&#45;&gt;\\DacuraServer -->
<g id="edge6" class="edge"><title>\\ConfigDacuraServer&#45;&gt;\\DacuraServer</title>
<path fill="none" stroke="black" d="M681.111,-434.721C634.953,-425.711 574.57,-413.924 530.653,-405.352"/>
<polygon fill="none" stroke="black" points="531.19,-401.89 520.705,-403.41 529.849,-408.761 531.19,-401.89"/>
</g>
<!-- \\Graph -->
<g id="node8" class="node"><title>\\Graph</title>
<polygon fill="none" stroke="black" points="498.5,-1006 444.5,-1006 444.5,-970 498.5,-970 498.5,-1006"/>
<text text-anchor="middle" x="471.5" y="-985.2" font-family="Courier,monospace" font-size="11.00">Graph</text>
</g>
<!-- \\Graph&#45;&gt;\\LDEntity -->
<g id="edge7" class="edge"><title>\\Graph&#45;&gt;\\LDEntity</title>
<path fill="none" stroke="black" d="M444.441,-986.404C426.1,-983.825 402.501,-977.301 389,-961 234.558,-774.528 464.195,-613.244 317,-421 311.749,-414.142 304.433,-409.01 296.607,-405.175"/>
<polygon fill="none" stroke="black" points="297.853,-401.902 287.279,-401.243 295.134,-408.352 297.853,-401.902"/>
</g>
<!-- \\DacuraForm -->
<g id="node9" class="node"><title>\\DacuraForm</title>
<polygon fill="none" stroke="black" points="293.5,-1114 209.5,-1114 209.5,-1078 293.5,-1078 293.5,-1114"/>
<text text-anchor="middle" x="251.5" y="-1093.2" font-family="Courier,monospace" font-size="11.00">DacuraForm</text>
</g>
<!-- \\DacuraForm&#45;&gt;\\DacuraObject -->
<g id="edge8" class="edge"><title>\\DacuraForm&#45;&gt;\\DacuraObject</title>
<path fill="none" stroke="black" d="M209.36,-1084.87C200.764,-1080.99 192.384,-1075.83 186,-1069 97.64,-974.511 74.0619,-812.189 68.0048,-746.669"/>
<polygon fill="none" stroke="black" points="71.4578,-745.968 67.1204,-736.301 64.4832,-746.563 71.4578,-745.968"/>
</g>
<!-- \\CoreService -->
<g id="node10" class="node"><title>\\CoreService</title>
<polygon fill="none" stroke="black" points="517,-628 426,-628 426,-592 517,-592 517,-628"/>
<text text-anchor="middle" x="471.5" y="-607.2" font-family="Courier,monospace" font-size="11.00">CoreService</text>
</g>
<!-- \\DacuraService -->
<g id="node14" class="node"><title>\\DacuraService</title>
<polygon fill="none" stroke="black" points="303.5,-358 199.5,-358 199.5,-322 303.5,-322 303.5,-358"/>
<text text-anchor="middle" x="251.5" y="-337.2" font-family="Courier,monospace" font-size="11.00">DacuraService</text>
</g>
<!-- \\CoreService&#45;&gt;\\DacuraService -->
<g id="edge9" class="edge"><title>\\CoreService&#45;&gt;\\DacuraService</title>
<path fill="none" stroke="black" d="M425.809,-603.139C412.539,-599.168 398.917,-592.898 389,-583 317.38,-511.512 385.833,-441.176 317,-367 315.423,-365.301 313.723,-363.705 311.926,-362.207"/>
<polygon fill="none" stroke="black" points="313.697,-359.172 303.516,-356.241 309.648,-364.881 313.697,-359.172"/>
</g>
<!-- \\Collection -->
<g id="node11" class="node"><title>\\Collection</title>
<polygon fill="none" stroke="black" points="293.5,-1060 209.5,-1060 209.5,-1024 293.5,-1024 293.5,-1060"/>
<text text-anchor="middle" x="251.5" y="-1039.2" font-family="Courier,monospace" font-size="11.00">Collection</text>
</g>
<!-- \\Collection&#45;&gt;\\DacuraObject -->
<g id="edge10" class="edge"><title>\\Collection&#45;&gt;\\DacuraObject</title>
<path fill="none" stroke="black" d="M209.294,-1030.46C200.801,-1026.61 192.483,-1021.56 186,-1015 109.296,-937.335 79.6696,-804.167 70.0215,-746.265"/>
<polygon fill="none" stroke="black" points="73.4734,-745.686 68.4456,-736.36 66.5603,-746.786 73.4734,-745.686"/>
</g>
<!-- \\EntityCreateRequest -->
<g id="node12" class="node"><title>\\EntityCreateRequest</title>
<polygon fill="none" stroke="black" points="544,-1222 399,-1222 399,-1186 544,-1186 544,-1222"/>
<text text-anchor="middle" x="471.5" y="-1201.2" font-family="Courier,monospace" font-size="11.00">EntityCreateRequest</text>
</g>
<!-- \\EntityCreateRequest&#45;&gt;\\LDEntity -->
<g id="edge11" class="edge"><title>\\EntityCreateRequest&#45;&gt;\\LDEntity</title>
<path fill="none" stroke="black" d="M398.97,-1186.47C395.258,-1183.75 391.88,-1180.61 389,-1177 178.633,-913.057 517.115,-692.797 317,-421 311.827,-413.974 304.474,-408.765 296.574,-404.906"/>
<polygon fill="none" stroke="black" points="297.722,-401.593 287.145,-400.969 295.024,-408.052 297.722,-401.593"/>
</g>
<!-- \\ConfigService -->
<g id="node13" class="node"><title>\\ConfigService</title>
<polygon fill="none" stroke="black" points="523.5,-574 419.5,-574 419.5,-538 523.5,-538 523.5,-574"/>
<text text-anchor="middle" x="471.5" y="-553.2" font-family="Courier,monospace" font-size="11.00">ConfigService</text>
</g>
<!-- \\ConfigService&#45;&gt;\\DacuraService -->
<g id="edge12" class="edge"><title>\\ConfigService&#45;&gt;\\DacuraService</title>
<path fill="none" stroke="black" d="M419.158,-546.163C408.266,-542.221 397.505,-536.707 389,-529 330.616,-476.091 373.317,-422.103 317,-367 315.536,-365.567 313.984,-364.206 312.364,-362.913"/>
<polygon fill="none" stroke="black" points="313.988,-359.783 303.764,-357.004 310.024,-365.552 313.988,-359.783"/>
</g>
<!-- \\DacuraService&#45;&gt;\\DacuraObject -->
<g id="edge13" class="edge"><title>\\DacuraService&#45;&gt;\\DacuraObject</title>
<path fill="none" stroke="black" d="M199.199,-356.464C194.34,-359.437 189.814,-362.921 186,-367 97.64,-461.489 74.0619,-623.811 68.0048,-689.331"/>
<polygon fill="none" stroke="black" points="64.4832,-689.437 67.1204,-699.699 71.4578,-690.032 64.4832,-689.437"/>
</g>
<!-- \\FakeTripleStore -->
<g id="node15" class="node"><title>\\FakeTripleStore</title>
<polygon fill="none" stroke="black" points="1084.28,-817 966.278,-817 966.278,-781 1084.28,-781 1084.28,-817"/>
<text text-anchor="middle" x="1025.28" y="-796.2" font-family="Courier,monospace" font-size="11.00">FakeTripleStore</text>
</g>
<!-- \\GraphCreateRequest -->
<g id="node16" class="node"><title>\\GraphCreateRequest</title>
<polygon fill="none" stroke="black" points="819.139,-1060 681.139,-1060 681.139,-1024 819.139,-1024 819.139,-1060"/>
<text text-anchor="middle" x="750.139" y="-1039.2" font-family="Courier,monospace" font-size="11.00">GraphCreateRequest</text>
</g>
<!-- \\GraphCreateRequest&#45;&gt;\\EntityCreateRequest -->
<g id="edge14" class="edge"><title>\\GraphCreateRequest&#45;&gt;\\EntityCreateRequest</title>
<path fill="none" stroke="black" d="M680.835,-1047.45C661.868,-1051.4 642.084,-1058.01 626,-1069 578.365,-1101.54 599.878,-1142.03 554,-1177 552.218,-1178.36 550.365,-1179.65 548.454,-1180.88"/>
<polygon fill="none" stroke="black" points="546.687,-1177.86 539.755,-1185.87 550.171,-1183.93 546.687,-1177.86"/>
</g>
<!-- \\LdDacuraServer -->
<g id="node17" class="node"><title>\\LdDacuraServer</title>
<polygon fill="none" stroke="black" points="805.639,-304 694.639,-304 694.639,-268 805.639,-268 805.639,-304"/>
<text text-anchor="middle" x="750.139" y="-283.2" font-family="Courier,monospace" font-size="11.00">LdDacuraServer</text>
</g>
<!-- \\LdDacuraServer&#45;&gt;\\DacuraServer -->
<g id="edge15" class="edge"><title>\\LdDacuraServer&#45;&gt;\\DacuraServer</title>
<path fill="none" stroke="black" d="M694.496,-292.822C672.528,-296.868 647.389,-303.199 626,-313 589.636,-329.663 589.448,-348.468 554,-367 546.5,-370.921 538.317,-374.431 530.124,-377.519"/>
<polygon fill="none" stroke="black" points="528.776,-374.284 520.541,-380.951 531.135,-380.875 528.776,-374.284"/>
</g>
<!-- \\DacuraResult -->
<g id="node18" class="node"><title>\\DacuraResult</title>
<polygon fill="none" stroke="black" points="300.5,-1006 202.5,-1006 202.5,-970 300.5,-970 300.5,-1006"/>
<text text-anchor="middle" x="251.5" y="-985.2" font-family="Courier,monospace" font-size="11.00">DacuraResult</text>
</g>
<!-- \\DacuraResult&#45;&gt;\\DacuraObject -->
<g id="edge16" class="edge"><title>\\DacuraResult&#45;&gt;\\DacuraObject</title>
<path fill="none" stroke="black" d="M202.322,-972.482C196.409,-969.285 190.777,-965.489 186,-961 120.855,-899.789 86.3109,-795.596 72.8274,-745.931"/>
<polygon fill="none" stroke="black" points="76.1954,-744.976 70.2664,-736.195 69.4257,-746.757 76.1954,-744.976"/>
</g>
<!-- \\UserRole -->
<g id="node19" class="node"><title>\\UserRole</title>
<polygon fill="none" stroke="black" points="287,-952 216,-952 216,-916 287,-916 287,-952"/>
<text text-anchor="middle" x="251.5" y="-931.2" font-family="Courier,monospace" font-size="11.00">UserRole</text>
</g>
<!-- \\UserRole&#45;&gt;\\DacuraObject -->
<g id="edge17" class="edge"><title>\\UserRole&#45;&gt;\\DacuraObject</title>
<path fill="none" stroke="black" d="M215.847,-923.955C205.501,-919.833 194.629,-914.28 186,-907 132.207,-861.62 94.4765,-785.882 76.9978,-745.433"/>
<polygon fill="none" stroke="black" points="80.2061,-744.034 73.0898,-736.185 73.7581,-746.758 80.2061,-744.034"/>
</g>
<!-- \\DacuraSession -->
<g id="node20" class="node"><title>\\DacuraSession</title>
<polygon fill="none" stroke="black" points="303.5,-898 199.5,-898 199.5,-862 303.5,-862 303.5,-898"/>
<text text-anchor="middle" x="251.5" y="-877.2" font-family="Courier,monospace" font-size="11.00">DacuraSession</text>
</g>
<!-- \\DacuraSession&#45;&gt;\\DacuraObject -->
<g id="edge18" class="edge"><title>\\DacuraSession&#45;&gt;\\DacuraObject</title>
<path fill="none" stroke="black" d="M200.672,-861.855C195.537,-859.197 190.544,-856.246 186,-853 143.268,-822.474 105.091,-774.114 83.7964,-744.317"/>
<polygon fill="none" stroke="black" points="86.6118,-742.236 77.9957,-736.07 80.8864,-746.263 86.6118,-742.236"/>
</g>
<!-- \\DacuraController -->
<g id="node21" class="node"><title>\\DacuraController</title>
<polygon fill="none" stroke="black" points="314,-304 189,-304 189,-268 314,-268 314,-304"/>
<text text-anchor="middle" x="251.5" y="-283.2" font-family="Courier,monospace" font-size="11.00">DacuraController</text>
</g>
<!-- \\DacuraController&#45;&gt;\\DacuraObject -->
<g id="edge19" class="edge"><title>\\DacuraController&#45;&gt;\\DacuraObject</title>
<path fill="none" stroke="black" d="M196.238,-304.131C192.479,-306.716 188.999,-309.657 186,-313 85.6224,-424.892 69.055,-617.251 66.4383,-689.483"/>
<polygon fill="none" stroke="black" points="62.9354,-689.531 66.1362,-699.631 69.9323,-689.739 62.9354,-689.531"/>
</g>
<!-- \\AnalysisResults -->
<g id="node22" class="node"><title>\\AnalysisResults</title>
<polygon fill="none" stroke="black" points="530.5,-142 412.5,-142 412.5,-106 530.5,-106 530.5,-142"/>
<text text-anchor="middle" x="471.5" y="-121.2" font-family="Courier,monospace" font-size="11.00">AnalysisResults</text>
</g>
<!-- \\WidgetCreateRequest -->
<g id="node23" class="node"><title>\\WidgetCreateRequest</title>
<polygon fill="none" stroke="black" points="822.639,-1222 677.639,-1222 677.639,-1186 822.639,-1186 822.639,-1222"/>
<text text-anchor="middle" x="750.139" y="-1201.2" font-family="Courier,monospace" font-size="11.00">WidgetCreateRequest</text>
</g>
<!-- \\WidgetCreateRequest&#45;&gt;\\EntityCreateRequest -->
<g id="edge20" class="edge"><title>\\WidgetCreateRequest&#45;&gt;\\EntityCreateRequest</title>
<path fill="none" stroke="black" d="M677.538,-1204C639.916,-1204 593.635,-1204 554.57,-1204"/>
<polygon fill="none" stroke="black" points="554.281,-1200.5 544.281,-1204 554.281,-1207.5 554.281,-1200.5"/>
</g>
<!-- \\ServiceCall -->
<g id="node24" class="node"><title>\\ServiceCall</title>
<polygon fill="none" stroke="black" points="297,-844 206,-844 206,-808 297,-808 297,-844"/>
<text text-anchor="middle" x="251.5" y="-823.2" font-family="Courier,monospace" font-size="11.00">ServiceCall</text>
</g>
<!-- \\ServiceCall&#45;&gt;\\DacuraObject -->
<g id="edge21" class="edge"><title>\\ServiceCall&#45;&gt;\\DacuraObject</title>
<path fill="none" stroke="black" d="M205.895,-808.687C199.126,-805.671 192.302,-802.403 186,-799 154.877,-782.195 121.711,-759.391 98.1527,-742.26"/>
<polygon fill="none" stroke="black" points="100.063,-739.32 89.9294,-736.227 95.9219,-744.964 100.063,-739.32"/>
</g>
<!-- \\UserManager -->
<g id="node25" class="node"><title>\\UserManager</title>
<polygon fill="none" stroke="black" points="517,-466 426,-466 426,-430 517,-430 517,-466"/>
<text text-anchor="middle" x="471.5" y="-445.2" font-family="Courier,monospace" font-size="11.00">UserManager</text>
</g>
<!-- \\UserManager&#45;&gt;\\DacuraController -->
<g id="edge22" class="edge"><title>\\UserManager&#45;&gt;\\DacuraController</title>
<path fill="none" stroke="black" d="M425.594,-438.924C412.909,-434.885 399.668,-429.133 389,-421 343.122,-386.025 361.506,-349.704 317,-313 315.49,-311.755 313.914,-310.559 312.287,-309.412"/>
<polygon fill="none" stroke="black" points="314.118,-306.429 303.788,-304.073 310.394,-312.356 314.118,-306.429"/>
</g>
<!-- \\GraphAnalysisResults -->
<g id="node26" class="node"><title>\\GraphAnalysisResults</title>
<polygon fill="none" stroke="black" points="826.139,-196 674.139,-196 674.139,-160 826.139,-160 826.139,-196"/>
<text text-anchor="middle" x="750.139" y="-175.2" font-family="Courier,monospace" font-size="11.00">GraphAnalysisResults</text>
</g>
<!-- \\GraphAnalysisResults&#45;&gt;\\AnalysisResults -->
<g id="edge23" class="edge"><title>\\GraphAnalysisResults&#45;&gt;\\AnalysisResults</title>
<path fill="none" stroke="black" d="M673.912,-163.316C632.317,-155.196 581.036,-145.186 540.628,-137.299"/>
<polygon fill="none" stroke="black" points="541.087,-133.822 530.602,-135.342 539.746,-140.693 541.087,-133.822"/>
</g>
<!-- \\LoginDacuraServer -->
<g id="node27" class="node"><title>\\LoginDacuraServer</title>
<polygon fill="none" stroke="black" points="815.639,-412 684.639,-412 684.639,-376 815.639,-376 815.639,-412"/>
<text text-anchor="middle" x="750.139" y="-391.2" font-family="Courier,monospace" font-size="11.00">LoginDacuraServer</text>
</g>
<!-- \\LoginDacuraServer&#45;&gt;\\DacuraServer -->
<g id="edge24" class="edge"><title>\\LoginDacuraServer&#45;&gt;\\DacuraServer</title>
<path fill="none" stroke="black" d="M684.629,-394C638.119,-394 575.864,-394 530.837,-394"/>
<polygon fill="none" stroke="black" points="530.644,-390.5 520.644,-394 530.644,-397.5 530.644,-390.5"/>
</g>
<!-- \\CandidateService -->
<g id="node28" class="node"><title>\\CandidateService</title>
<polygon fill="none" stroke="black" points="812.639,-736 687.639,-736 687.639,-700 812.639,-700 812.639,-736"/>
<text text-anchor="middle" x="750.139" y="-715.2" font-family="Courier,monospace" font-size="11.00">CandidateService</text>
</g>
<!-- \\LdService -->
<g id="node45" class="node"><title>\\LdService</title>
<polygon fill="none" stroke="black" points="510,-682 433,-682 433,-646 510,-646 510,-682"/>
<text text-anchor="middle" x="471.5" y="-661.2" font-family="Courier,monospace" font-size="11.00">LdService</text>
</g>
<!-- \\CandidateService&#45;&gt;\\LdService -->
<g id="edge25" class="edge"><title>\\CandidateService&#45;&gt;\\LdService</title>
<path fill="none" stroke="black" d="M687.4,-705.949C636.917,-696.094 566.56,-682.36 520.295,-673.33"/>
<polygon fill="none" stroke="black" points="520.716,-669.846 510.23,-671.365 519.374,-676.716 520.716,-669.846"/>
</g>
<!-- \\ScraperService -->
<g id="node29" class="node"><title>\\ScraperService</title>
<polygon fill="none" stroke="black" points="527,-952 416,-952 416,-916 527,-916 527,-952"/>
<text text-anchor="middle" x="471.5" y="-931.2" font-family="Courier,monospace" font-size="11.00">ScraperService</text>
</g>
<!-- \\ScraperService&#45;&gt;\\DacuraService -->
<g id="edge26" class="edge"><title>\\ScraperService&#45;&gt;\\DacuraService</title>
<path fill="none" stroke="black" d="M415.742,-925.181C405.55,-921.176 395.941,-915.38 389,-907 234.558,-720.528 464.195,-559.244 317,-367 315.418,-364.934 313.649,-363.024 311.734,-361.26"/>
<polygon fill="none" stroke="black" points="313.796,-358.43 303.722,-355.147 309.55,-363.995 313.796,-358.43"/>
</g>
<!-- \\WidgetDacuraServer -->
<g id="node30" class="node"><title>\\WidgetDacuraServer</title>
<polygon fill="none" stroke="black" points="1094.28,-358 956.278,-358 956.278,-322 1094.28,-322 1094.28,-358"/>
<text text-anchor="middle" x="1025.28" y="-337.2" font-family="Courier,monospace" font-size="11.00">WidgetDacuraServer</text>
</g>
<!-- \\WidgetDacuraServer&#45;&gt;\\LdDacuraServer -->
<g id="edge27" class="edge"><title>\\WidgetDacuraServer&#45;&gt;\\LdDacuraServer</title>
<path fill="none" stroke="black" d="M956.058,-326.513C913.051,-318.01 857.859,-307.099 815.591,-298.742"/>
<polygon fill="none" stroke="black" points="816.176,-295.29 805.687,-296.784 814.818,-302.157 816.176,-295.29"/>
</g>
<!-- \\CandidateDacuraServer -->
<g id="node31" class="node"><title>\\CandidateDacuraServer</title>
<polygon fill="none" stroke="black" points="1104.28,-304 946.278,-304 946.278,-268 1104.28,-268 1104.28,-304"/>
<text text-anchor="middle" x="1025.28" y="-283.2" font-family="Courier,monospace" font-size="11.00">CandidateDacuraServer</text>
</g>
<!-- \\CandidateDacuraServer&#45;&gt;\\LdDacuraServer -->
<g id="edge28" class="edge"><title>\\CandidateDacuraServer&#45;&gt;\\LdDacuraServer</title>
<path fill="none" stroke="black" d="M946.007,-286C904.91,-286 855.141,-286 816.187,-286"/>
<polygon fill="none" stroke="black" points="816.018,-282.5 806.018,-286 816.017,-289.5 816.018,-282.5"/>
</g>
<!-- \\seshatParsing -->
<g id="node32" class="node"><title>\\seshatParsing</title>
<polygon fill="none" stroke="black" points="1077.28,-88 973.278,-88 973.278,-52 1077.28,-52 1077.28,-88"/>
<text text-anchor="middle" x="1025.28" y="-67.2" font-family="Courier,monospace" font-size="11.00">seshatParsing</text>
</g>
<!-- \\hafriedlander\\Peg\\Parser\\Basic -->
<g id="node67" class="node"><title>\\hafriedlander\\Peg\\Parser\\Basic</title>
<ellipse fill="none" stroke="black" cx="750.139" cy="-18" rx="124.278" ry="18"/>
<text text-anchor="middle" x="750.139" y="-14.3" font-family="Times New Roman,serif" font-size="14.00" fill="gray">\hafriedlander\Peg\Parser\Basic</text>
</g>
<!-- \\seshatParsing&#45;&gt;\\hafriedlander\\Peg\\Parser\\Basic -->
<g id="edge29" class="edge"><title>\\seshatParsing&#45;&gt;\\hafriedlander\\Peg\\Parser\\Basic</title>
<path fill="none" stroke="black" d="M972.956,-59.4636C944.007,-53.5889 907.156,-46.2242 874.278,-40 863.221,-37.9067 851.594,-35.7595 840.082,-33.6659"/>
<polygon fill="none" stroke="black" points="840.476,-30.1803 830.012,-31.8425 839.228,-37.0683 840.476,-30.1803"/>
</g>
<!-- \\HomeDacuraServer -->
<g id="node33" class="node"><title>\\HomeDacuraServer</title>
<polygon fill="none" stroke="black" points="812.639,-358 687.639,-358 687.639,-322 812.639,-322 812.639,-358"/>
<text text-anchor="middle" x="750.139" y="-337.2" font-family="Courier,monospace" font-size="11.00">HomeDacuraServer</text>
</g>
<!-- \\HomeDacuraServer&#45;&gt;\\DacuraServer -->
<g id="edge30" class="edge"><title>\\HomeDacuraServer&#45;&gt;\\DacuraServer</title>
<path fill="none" stroke="black" d="M687.4,-352.051C640.618,-361.183 576.769,-373.647 530.842,-382.612"/>
<polygon fill="none" stroke="black" points="529.888,-379.232 520.744,-384.583 531.229,-386.102 529.888,-379.232"/>
</g>
<!-- \\LDDBManager -->
<g id="node34" class="node"><title>\\LDDBManager</title>
<polygon fill="none" stroke="black" points="795.639,-574 704.639,-574 704.639,-538 795.639,-538 795.639,-574"/>
<text text-anchor="middle" x="750.139" y="-553.2" font-family="Courier,monospace" font-size="11.00">LDDBManager</text>
</g>
<!-- \\DBManager -->
<g id="node39" class="node"><title>\\DBManager</title>
<polygon fill="none" stroke="black" points="510,-520 433,-520 433,-484 510,-484 510,-520"/>
<text text-anchor="middle" x="471.5" y="-499.2" font-family="Courier,monospace" font-size="11.00">DBManager</text>
</g>
<!-- \\LDDBManager&#45;&gt;\\DBManager -->
<g id="edge31" class="edge"><title>\\LDDBManager&#45;&gt;\\DBManager</title>
<path fill="none" stroke="black" d="M704.385,-547.264C653.778,-537.385 571.714,-521.367 520.001,-511.272"/>
<polygon fill="none" stroke="black" points="520.567,-507.817 510.081,-509.336 519.226,-514.687 520.567,-507.817"/>
</g>
<!-- \\SimpleRequestResults -->
<g id="node35" class="node"><title>\\SimpleRequestResults</title>
<polygon fill="none" stroke="black" points="826.139,-142 674.139,-142 674.139,-106 826.139,-106 826.139,-142"/>
<text text-anchor="middle" x="750.139" y="-121.2" font-family="Courier,monospace" font-size="11.00">SimpleRequestResults</text>
</g>
<!-- \\SimpleRequestResults&#45;&gt;\\AnalysisResults -->
<g id="edge32" class="edge"><title>\\SimpleRequestResults&#45;&gt;\\AnalysisResults</title>
<path fill="none" stroke="black" d="M673.912,-124C632.317,-124 581.036,-124 540.628,-124"/>
<polygon fill="none" stroke="black" points="540.602,-120.5 530.602,-124 540.602,-127.5 540.602,-120.5"/>
</g>
<!-- \\UpdateAnalysisResults -->
<g id="node36" class="node"><title>\\UpdateAnalysisResults</title>
<polygon fill="none" stroke="black" points="1104.28,-196 946.278,-196 946.278,-160 1104.28,-160 1104.28,-196"/>
<text text-anchor="middle" x="1025.28" y="-175.2" font-family="Courier,monospace" font-size="11.00">UpdateAnalysisResults</text>
</g>
<!-- \\UpdateAnalysisResults&#45;&gt;\\SimpleRequestResults -->
<g id="edge33" class="edge"><title>\\UpdateAnalysisResults&#45;&gt;\\SimpleRequestResults</title>
<path fill="none" stroke="black" d="M946.007,-162.526C911.86,-155.775 871.726,-147.84 836.783,-140.932"/>
<polygon fill="none" stroke="black" points="837.086,-137.424 826.597,-138.918 835.729,-144.291 837.086,-137.424"/>
</g>
<!-- \\SchemaService -->
<g id="node37" class="node"><title>\\SchemaService</title>
<polygon fill="none" stroke="black" points="802.139,-682 698.139,-682 698.139,-646 802.139,-646 802.139,-682"/>
<text text-anchor="middle" x="750.139" y="-661.2" font-family="Courier,monospace" font-size="11.00">SchemaService</text>
</g>
<!-- \\SchemaService&#45;&gt;\\LdService -->
<g id="edge34" class="edge"><title>\\SchemaService&#45;&gt;\\LdService</title>
<path fill="none" stroke="black" d="M698.077,-664C647.355,-664 570.174,-664 520.538,-664"/>
<polygon fill="none" stroke="black" points="520.383,-660.5 510.383,-664 520.383,-667.5 520.383,-660.5"/>
</g>
<!-- \\HomeService -->
<g id="node38" class="node"><title>\\HomeService</title>
<polygon fill="none" stroke="black" points="517,-898 426,-898 426,-862 517,-862 517,-898"/>
<text text-anchor="middle" x="471.5" y="-877.2" font-family="Courier,monospace" font-size="11.00">HomeService</text>
</g>
<!-- \\HomeService&#45;&gt;\\DacuraService -->
<g id="edge35" class="edge"><title>\\HomeService&#45;&gt;\\DacuraService</title>
<path fill="none" stroke="black" d="M425.577,-874.379C411.97,-870.489 398.207,-863.954 389,-853 248.5,-685.848 451.002,-539.405 317,-367 315.403,-364.945 313.621,-363.045 311.697,-361.289"/>
<polygon fill="none" stroke="black" points="313.74,-358.446 303.655,-355.199 309.514,-364.026 313.74,-358.446"/>
</g>
<!-- \\DBManager&#45;&gt;\\DacuraController -->
<g id="edge36" class="edge"><title>\\DBManager&#45;&gt;\\DacuraController</title>
<path fill="none" stroke="black" d="M432.652,-496.308C417.601,-492.424 401.039,-485.91 389,-475 330.616,-422.091 373.317,-368.103 317,-313 316.048,-312.069 315.06,-311.168 314.039,-310.296"/>
<polygon fill="none" stroke="black" points="315.808,-307.254 305.671,-304.174 311.675,-312.903 315.808,-307.254"/>
</g>
<!-- \\PolicyEngine -->
<g id="node40" class="node"><title>\\PolicyEngine</title>
<polygon fill="none" stroke="black" points="300.5,-790 202.5,-790 202.5,-754 300.5,-754 300.5,-790"/>
<text text-anchor="middle" x="251.5" y="-769.2" font-family="Courier,monospace" font-size="11.00">PolicyEngine</text>
</g>
<!-- \\PolicyEngine&#45;&gt;\\DacuraObject -->
<g id="edge37" class="edge"><title>\\PolicyEngine&#45;&gt;\\DacuraObject</title>
<path fill="none" stroke="black" d="M202.025,-757.812C178.084,-750.805 149.023,-742.299 123.918,-734.952"/>
<polygon fill="none" stroke="black" points="124.732,-731.543 114.151,-732.093 122.766,-738.261 124.732,-731.543"/>
</g>
<!-- \\GraphManager -->
<g id="node41" class="node"><title>\\GraphManager</title>
<polygon fill="none" stroke="black" points="300.5,-736 202.5,-736 202.5,-700 300.5,-700 300.5,-736"/>
<text text-anchor="middle" x="251.5" y="-715.2" font-family="Courier,monospace" font-size="11.00">GraphManager</text>
</g>
<!-- \\GraphManager&#45;&gt;\\DacuraObject -->
<g id="edge38" class="edge"><title>\\GraphManager&#45;&gt;\\DacuraObject</title>
<path fill="none" stroke="black" d="M202.025,-718C178.19,-718 149.28,-718 124.252,-718"/>
<polygon fill="none" stroke="black" points="124.151,-714.5 114.151,-718 124.151,-721.5 124.151,-714.5"/>
</g>
<!-- \\CandidateUpdateRequest -->
<g id="node42" class="node"><title>\\CandidateUpdateRequest</title>
<polygon fill="none" stroke="black" points="554,-196 389,-196 389,-160 554,-160 554,-196"/>
<text text-anchor="middle" x="471.5" y="-175.2" font-family="Courier,monospace" font-size="11.00">CandidateUpdateRequest</text>
</g>
<!-- \\CandidateUpdateRequest&#45;&gt;\\EntityUpdate -->
<g id="edge39" class="edge"><title>\\CandidateUpdateRequest&#45;&gt;\\EntityUpdate</title>
<path fill="none" stroke="black" d="M397.606,-196.056C369.289,-203.071 337.307,-210.993 310.588,-217.611"/>
<polygon fill="none" stroke="black" points="309.49,-214.277 300.625,-220.079 311.173,-221.072 309.49,-214.277"/>
</g>
<!-- \\NSResolver -->
<g id="node43" class="node"><title>\\NSResolver</title>
<polygon fill="none" stroke="black" points="293.5,-682 209.5,-682 209.5,-646 293.5,-646 293.5,-682"/>
<text text-anchor="middle" x="251.5" y="-661.2" font-family="Courier,monospace" font-size="11.00">NSResolver</text>
</g>
<!-- \\NSResolver&#45;&gt;\\DacuraObject -->
<g id="edge40" class="edge"><title>\\NSResolver&#45;&gt;\\DacuraObject</title>
<path fill="none" stroke="black" d="M209.095,-676.119C184.019,-683.458 151.656,-692.93 124.051,-701.009"/>
<polygon fill="none" stroke="black" points="122.733,-697.748 114.119,-703.917 124.699,-704.467 122.733,-697.748"/>
</g>
<!-- \\LDDelta -->
<g id="node44" class="node"><title>\\LDDelta</title>
<polygon fill="none" stroke="black" points="283.5,-628 219.5,-628 219.5,-592 283.5,-592 283.5,-628"/>
<text text-anchor="middle" x="251.5" y="-607.2" font-family="Courier,monospace" font-size="11.00">LDDelta</text>
</g>
<!-- \\LDDelta&#45;&gt;\\DacuraObject -->
<g id="edge41" class="edge"><title>\\LDDelta&#45;&gt;\\DacuraObject</title>
<path fill="none" stroke="black" d="M219.41,-621.567C208.617,-625.958 196.575,-631.29 186,-637 154.877,-653.805 121.711,-676.609 98.1527,-693.74"/>
<polygon fill="none" stroke="black" points="95.9219,-691.036 89.9294,-699.773 100.063,-696.68 95.9219,-691.036"/>
</g>
<!-- \\LdService&#45;&gt;\\DacuraService -->
<g id="edge42" class="edge"><title>\\LdService&#45;&gt;\\DacuraService</title>
<path fill="none" stroke="black" d="M432.601,-659.415C417.177,-655.716 400.347,-649.041 389,-637 303.824,-546.617 398.656,-460.575 317,-367 315.476,-365.254 313.821,-363.617 312.062,-362.085"/>
<polygon fill="none" stroke="black" points="313.909,-359.099 303.775,-356.008 309.769,-364.744 313.909,-359.099"/>
</g>
<!-- \\LoginService -->
<g id="node46" class="node"><title>\\LoginService</title>
<polygon fill="none" stroke="black" points="520.5,-844 422.5,-844 422.5,-808 520.5,-808 520.5,-844"/>
<text text-anchor="middle" x="471.5" y="-823.2" font-family="Courier,monospace" font-size="11.00">LoginService</text>
</g>
<!-- \\LoginService&#45;&gt;\\DacuraService -->
<g id="edge43" class="edge"><title>\\LoginService&#45;&gt;\\DacuraService</title>
<path fill="none" stroke="black" d="M422.291,-819.252C409.826,-815.269 397.53,-808.964 389,-799 262.414,-651.135 437.836,-519.6 317,-367 315.384,-364.96 313.587,-363.072 311.65,-361.325"/>
<polygon fill="none" stroke="black" points="313.672,-358.467 303.572,-355.264 309.47,-364.066 313.672,-358.467"/>
</g>
<!-- \\BrowseService -->
<g id="node47" class="node"><title>\\BrowseService</title>
<polygon fill="none" stroke="black" points="523.5,-790 419.5,-790 419.5,-754 523.5,-754 523.5,-790"/>
<text text-anchor="middle" x="471.5" y="-769.2" font-family="Courier,monospace" font-size="11.00">BrowseService</text>
</g>
<!-- \\BrowseService&#45;&gt;\\DacuraService -->
<g id="edge44" class="edge"><title>\\BrowseService&#45;&gt;\\DacuraService</title>
<path fill="none" stroke="black" d="M419.469,-764.129C408.038,-760.118 396.957,-754.08 389,-745 276.289,-616.376 424.708,-499.842 317,-367 315.509,-365.161 313.871,-363.446 312.117,-361.846"/>
<polygon fill="none" stroke="black" points="313.868,-358.782 303.78,-355.544 309.647,-364.366 313.868,-358.782"/>
</g>
<!-- \\DacuraUser -->
<g id="node48" class="node"><title>\\DacuraUser</title>
<polygon fill="none" stroke="black" points="293.5,-574 209.5,-574 209.5,-538 293.5,-538 293.5,-574"/>
<text text-anchor="middle" x="251.5" y="-553.2" font-family="Courier,monospace" font-size="11.00">DacuraUser</text>
</g>
<!-- \\DacuraUser&#45;&gt;\\DacuraObject -->
<g id="edge45" class="edge"><title>\\DacuraUser&#45;&gt;\\DacuraObject</title>
<path fill="none" stroke="black" d="M209.459,-569.92C201.326,-573.561 193.112,-577.919 186,-583 143.268,-613.526 105.091,-661.886 83.7964,-691.683"/>
<polygon fill="none" stroke="black" points="80.8864,-689.737 77.9957,-699.93 86.6118,-693.764 80.8864,-689.737"/>
</g>
<!-- \\ScraperDacuraServer -->
<g id="node49" class="node"><title>\\ScraperDacuraServer</title>
<polygon fill="none" stroke="black" points="822.639,-520 677.639,-520 677.639,-484 822.639,-484 822.639,-520"/>
<text text-anchor="middle" x="750.139" y="-499.2" font-family="Courier,monospace" font-size="11.00">ScraperDacuraServer</text>
</g>
<!-- \\ScraperDacuraServer&#45;&gt;\\DacuraServer -->
<g id="edge46" class="edge"><title>\\ScraperDacuraServer&#45;&gt;\\DacuraServer</title>
<path fill="none" stroke="black" d="M677.453,-491.678C660.137,-487.733 642.017,-482.339 626,-475 589.636,-458.337 589.448,-439.532 554,-421 546.5,-417.079 538.317,-413.569 530.124,-410.481"/>
<polygon fill="none" stroke="black" points="531.135,-407.125 520.541,-407.049 528.776,-413.716 531.135,-407.125"/>
</g>
<!-- \\DacuraServer&#45;&gt;\\DacuraController -->
<g id="edge47" class="edge"><title>\\DacuraServer&#45;&gt;\\DacuraController</title>
<path fill="none" stroke="black" d="M422.459,-380.951C411.191,-377.115 399.435,-372.455 389,-367 353.552,-348.468 351.713,-332.874 317,-313 314.346,-311.481 311.591,-309.999 308.779,-308.562"/>
<polygon fill="none" stroke="black" points="310.186,-305.355 299.661,-304.136 307.128,-311.652 310.186,-305.355"/>
</g>
<!-- \\SchemaDacuraServer -->
<g id="node52" class="node"><title>\\SchemaDacuraServer</title>
<polygon fill="none" stroke="black" points="1094.28,-250 956.278,-250 956.278,-214 1094.28,-214 1094.28,-250"/>
<text text-anchor="middle" x="1025.28" y="-229.2" font-family="Courier,monospace" font-size="11.00">SchemaDacuraServer</text>
</g>
<!-- \\SchemaDacuraServer&#45;&gt;\\LdDacuraServer -->
<g id="edge48" class="edge"><title>\\SchemaDacuraServer&#45;&gt;\\LdDacuraServer</title>
<path fill="none" stroke="black" d="M956.058,-245.487C913.051,-253.99 857.859,-264.901 815.591,-273.258"/>
<polygon fill="none" stroke="black" points="814.818,-269.843 805.687,-275.216 816.176,-276.71 814.818,-269.843"/>
</g>
<!-- \\ServiceLoader -->
<g id="node53" class="node"><title>\\ServiceLoader</title>
<polygon fill="none" stroke="black" points="303.5,-520 199.5,-520 199.5,-484 303.5,-484 303.5,-520"/>
<text text-anchor="middle" x="251.5" y="-499.2" font-family="Courier,monospace" font-size="11.00">ServiceLoader</text>
</g>
<!-- \\ServiceLoader&#45;&gt;\\DacuraObject -->
<g id="edge49" class="edge"><title>\\ServiceLoader&#45;&gt;\\DacuraObject</title>
<path fill="none" stroke="black" d="M199.461,-519.795C194.667,-522.498 190.083,-525.556 186,-529 132.207,-574.38 94.4765,-650.118 76.9978,-690.567"/>
<polygon fill="none" stroke="black" points="73.7581,-689.242 73.0898,-699.815 80.2061,-691.966 73.7581,-689.242"/>
</g>
<!-- \\EntityUpdate&#45;&gt;\\DacuraObject -->
<g id="edge50" class="edge"><title>\\EntityUpdate&#45;&gt;\\DacuraObject</title>
<path fill="none" stroke="black" d="M202.393,-246.109C196.251,-249.539 190.537,-253.775 186,-259 73.5628,-388.488 64.6414,-610.964 65.2291,-689.519"/>
<polygon fill="none" stroke="black" points="61.7308,-689.672 65.3654,-699.624 68.7301,-689.578 61.7308,-689.672"/>
</g>
<!-- \\OntologyUpdateRequest -->
<g id="node55" class="node"><title>\\OntologyUpdateRequest</title>
<polygon fill="none" stroke="black" points="550.5,-88 392.5,-88 392.5,-52 550.5,-52 550.5,-88"/>
<text text-anchor="middle" x="471.5" y="-67.2" font-family="Courier,monospace" font-size="11.00">OntologyUpdateRequest</text>
</g>
<!-- \\OntologyUpdateRequest&#45;&gt;\\EntityUpdate -->
<g id="edge51" class="edge"><title>\\OntologyUpdateRequest&#45;&gt;\\EntityUpdate</title>
<path fill="none" stroke="black" d="M406.475,-88.0143C400.393,-90.6644 394.465,-93.6505 389,-97 341.207,-126.295 297.295,-175.367 272.794,-205.585"/>
<polygon fill="none" stroke="black" points="269.917,-203.578 266.411,-213.576 275.386,-207.947 269.917,-203.578"/>
</g>
<!-- \\FileManager -->
<g id="node56" class="node"><title>\\FileManager</title>
<polygon fill="none" stroke="black" points="517,-358 426,-358 426,-322 517,-322 517,-358"/>
<text text-anchor="middle" x="471.5" y="-337.2" font-family="Courier,monospace" font-size="11.00">FileManager</text>
</g>
<!-- \\FileManager&#45;&gt;\\DacuraController -->
<g id="edge52" class="edge"><title>\\FileManager&#45;&gt;\\DacuraController</title>
<path fill="none" stroke="black" d="M425.858,-328.942C396.494,-321.668 357.421,-311.99 323.803,-303.662"/>
<polygon fill="none" stroke="black" points="324.57,-300.247 314.022,-301.239 322.887,-307.041 324.57,-300.247"/>
</g>
<!-- \\FileChannel -->
<g id="node57" class="node"><title>\\FileChannel</title>
<polygon fill="none" stroke="black" points="1070.78,-142 979.778,-142 979.778,-106 1070.78,-106 1070.78,-142"/>
<text text-anchor="middle" x="1025.28" y="-121.2" font-family="Courier,monospace" font-size="11.00">FileChannel</text>
</g>
<!-- \\UsersService -->
<g id="node58" class="node"><title>\\UsersService</title>
<polygon fill="none" stroke="black" points="520.5,-736 422.5,-736 422.5,-700 520.5,-700 520.5,-736"/>
<text text-anchor="middle" x="471.5" y="-715.2" font-family="Courier,monospace" font-size="11.00">UsersService</text>
</g>
<!-- \\UsersService&#45;&gt;\\DacuraService -->
<g id="edge53" class="edge"><title>\\UsersService&#45;&gt;\\DacuraService</title>
<path fill="none" stroke="black" d="M422.207,-710.815C409.891,-706.822 397.694,-700.622 389,-691 290.104,-581.549 411.636,-480.155 317,-367 315.481,-365.184 313.82,-363.488 312.046,-361.905"/>
<polygon fill="none" stroke="black" points="313.757,-358.815 303.644,-355.656 309.58,-364.432 313.757,-358.815"/>
</g>
<!-- \\DacuraFormElement -->
<g id="node59" class="node"><title>\\DacuraFormElement</title>
<polygon fill="none" stroke="black" points="317,-466 186,-466 186,-430 317,-430 317,-466"/>
<text text-anchor="middle" x="251.5" y="-445.2" font-family="Courier,monospace" font-size="11.00">DacuraFormElement</text>
</g>
<!-- \\DacuraFormElement&#45;&gt;\\DacuraObject -->
<g id="edge54" class="edge"><title>\\DacuraFormElement&#45;&gt;\\DacuraObject</title>
<path fill="none" stroke="black" d="M197.79,-466.127C193.546,-468.73 189.539,-471.675 186,-475 120.855,-536.211 86.3109,-640.404 72.8274,-690.069"/>
<polygon fill="none" stroke="black" points="69.4257,-689.243 70.2664,-699.805 76.1954,-691.024 69.4257,-689.243"/>
</g>
<!-- \\Candidate -->
<g id="node60" class="node"><title>\\Candidate</title>
<polygon fill="none" stroke="black" points="510,-1168 433,-1168 433,-1132 510,-1132 510,-1168"/>
<text text-anchor="middle" x="471.5" y="-1147.2" font-family="Courier,monospace" font-size="11.00">Candidate</text>
</g>
<!-- \\Candidate&#45;&gt;\\LDEntity -->
<g id="edge55" class="edge"><title>\\Candidate&#45;&gt;\\LDEntity</title>
<path fill="none" stroke="black" d="M432.911,-1146.52C416.964,-1143.05 399.639,-1136.25 389,-1123 192.631,-878.445 503.87,-672.888 317,-421 311.801,-413.993 304.438,-408.792 296.534,-404.935"/>
<polygon fill="none" stroke="black" points="297.682,-401.622 287.106,-400.998 294.985,-408.081 297.682,-401.622"/>
</g>
<!-- \\CandidateCreateRequest -->
<g id="node61" class="node"><title>\\CandidateCreateRequest</title>
<polygon fill="none" stroke="black" points="832.639,-1168 667.639,-1168 667.639,-1132 832.639,-1132 832.639,-1168"/>
<text text-anchor="middle" x="750.139" y="-1147.2" font-family="Courier,monospace" font-size="11.00">CandidateCreateRequest</text>
</g>
<!-- \\CandidateCreateRequest&#45;&gt;\\EntityCreateRequest -->
<g id="edge56" class="edge"><title>\\CandidateCreateRequest&#45;&gt;\\EntityCreateRequest</title>
<path fill="none" stroke="black" d="M667.634,-1165.91C631.797,-1172.91 589.8,-1181.1 553.967,-1188.1"/>
<polygon fill="none" stroke="black" points="553.178,-1184.69 544.034,-1190.04 554.519,-1191.56 553.178,-1184.69"/>
</g>
<!-- \\LDEntity&#45;&gt;\\DacuraObject -->
<g id="edge57" class="edge"><title>\\LDEntity&#45;&gt;\\DacuraObject</title>
<path fill="none" stroke="black" d="M215.67,-402.869C205.075,-406.961 194.104,-412.795 186,-421 109.296,-498.665 79.6696,-631.833 70.0215,-689.735"/>
<polygon fill="none" stroke="black" points="66.5603,-689.214 68.4456,-699.64 73.4734,-690.314 66.5603,-689.214"/>
</g>
<!-- \\WidgetService -->
<g id="node63" class="node"><title>\\WidgetService</title>
<polygon fill="none" stroke="black" points="802.139,-628 698.139,-628 698.139,-592 802.139,-592 802.139,-628"/>
<text text-anchor="middle" x="750.139" y="-607.2" font-family="Courier,monospace" font-size="11.00">WidgetService</text>
</g>
<!-- \\WidgetService&#45;&gt;\\LdService -->
<g id="edge58" class="edge"><title>\\WidgetService&#45;&gt;\\LdService</title>
<path fill="none" stroke="black" d="M698.077,-619.967C647.249,-629.889 569.851,-644.997 520.226,-654.684"/>
<polygon fill="none" stroke="black" points="519.527,-651.254 510.383,-656.605 520.868,-658.124 519.527,-651.254"/>
</g>
<!-- \\WidgetUpdateRequest -->
<g id="node64" class="node"><title>\\WidgetUpdateRequest</title>
<polygon fill="none" stroke="black" points="544,-304 399,-304 399,-268 544,-268 544,-304"/>
<text text-anchor="middle" x="471.5" y="-283.2" font-family="Courier,monospace" font-size="11.00">WidgetUpdateRequest</text>
</g>
<!-- \\WidgetUpdateRequest&#45;&gt;\\EntityUpdate -->
<g id="edge59" class="edge"><title>\\WidgetUpdateRequest&#45;&gt;\\EntityUpdate</title>
<path fill="none" stroke="black" d="M398.817,-268.244C370.191,-261.153 337.659,-253.094 310.552,-246.38"/>
<polygon fill="none" stroke="black" points="311.376,-242.978 300.828,-243.971 309.693,-249.773 311.376,-242.978"/>
</g>
<!-- \\BrowseDacuraServer -->
<g id="node65" class="node"><title>\\BrowseDacuraServer</title>
<polygon fill="none" stroke="black" points="1094.28,-412 956.278,-412 956.278,-376 1094.28,-376 1094.28,-412"/>
<text text-anchor="middle" x="1025.28" y="-391.2" font-family="Courier,monospace" font-size="11.00">BrowseDacuraServer</text>
</g>
<!-- \\BrowseDacuraServer&#45;&gt;\\LdDacuraServer -->
<g id="edge60" class="edge"><title>\\BrowseDacuraServer&#45;&gt;\\LdDacuraServer</title>
<path fill="none" stroke="black" d="M965.506,-375.883C958.891,-373.194 952.352,-370.227 946.278,-367 910.954,-348.232 910.642,-329.663 874.278,-313 856.064,-304.654 835.13,-298.824 815.751,-294.778"/>
<polygon fill="none" stroke="black" points="816.268,-291.313 805.782,-292.822 814.92,-298.182 816.268,-291.313"/>
</g>
<!-- \\OntologyCreateRequest -->
<g id="node66" class="node"><title>\\OntologyCreateRequest</title>
<polygon fill="none" stroke="black" points="829.139,-1114 671.139,-1114 671.139,-1078 829.139,-1078 829.139,-1114"/>
<text text-anchor="middle" x="750.139" y="-1093.2" font-family="Courier,monospace" font-size="11.00">OntologyCreateRequest</text>
</g>
<!-- \\OntologyCreateRequest&#45;&gt;\\EntityCreateRequest -->
<g id="edge61" class="edge"><title>\\OntologyCreateRequest&#45;&gt;\\EntityCreateRequest</title>
<path fill="none" stroke="black" d="M670.968,-1107.86C655.667,-1111.64 640.027,-1116.57 626,-1123 589.636,-1139.66 589.448,-1158.47 554,-1177 550.702,-1178.72 547.272,-1180.37 543.767,-1181.93"/>
<polygon fill="none" stroke="black" points="542.218,-1178.79 534.353,-1185.89 544.929,-1185.24 542.218,-1178.79"/>
</g>
</g>
</svg>
