<?xml version="1.0" encoding="UTF-8" standalone="no"?>
<!DOCTYPE svg PUBLIC "-//W3C//DTD SVG 1.1//EN"
 "http://www.w3.org/Graphics/SVG/1.1/DTD/svg11.dtd">
<!-- Generated by graphviz version 2.38.0 (20140413.2041)
 -->
<!-- Title: G Pages: 1 -->
<svg width="1045pt" height="1122pt"
 viewBox="0.00 0.00 1045.00 1122.00" xmlns="http://www.w3.org/2000/svg" xmlns:xlink="http://www.w3.org/1999/xlink">
<g id="graph0" class="graph" transform="scale(1 1) rotate(0) translate(4 1118)">
<title>G</title>
<polygon fill="white" stroke="none" points="-4,4 -4,-1118 1041,-1118 1041,4 -4,4"/>
<g id="clust1" class="cluster"><title>cluster_Global</title>
<path fill="none" stroke="gray" d="M20,-8C20,-8 1017,-8 1017,-8 1023,-8 1029,-14 1029,-20 1029,-20 1029,-1094 1029,-1094 1029,-1100 1023,-1106 1017,-1106 1017,-1106 20,-1106 20,-1106 14,-1106 8,-1100 8,-1094 8,-1094 8,-20 8,-20 8,-14 14,-8 20,-8"/>
<text text-anchor="middle" x="518.5" y="-1093.2" font-family="Times New Roman,serif" font-size="11.00" fill="gray">Global</text>
</g>
<!-- \\Ontology -->
<g id="node1" class="node"><title>\\Ontology</title>
<polygon fill="none" stroke="black" points="507,-484 436,-484 436,-448 507,-448 507,-484"/>
<text text-anchor="middle" x="471.5" y="-463.2" font-family="Courier,monospace" font-size="11.00">Ontology</text>
</g>
<!-- \\LDEntity -->
<g id="node57" class="node"><title>\\LDEntity</title>
<polygon fill="none" stroke="black" points="287,-214 216,-214 216,-178 287,-178 287,-214"/>
<text text-anchor="middle" x="251.5" y="-193.2" font-family="Courier,monospace" font-size="11.00">LDEntity</text>
</g>
<!-- \\Ontology&#45;&gt;\\LDEntity -->
<g id="edge1" class="edge"><title>\\Ontology&#45;&gt;\\LDEntity</title>
<path fill="none" stroke="black" d="M435.836,-461.753C419.737,-458.133 401.448,-451.426 389,-439 317.38,-367.512 385.833,-297.176 317,-223 311.426,-216.994 304.308,-212.278 296.846,-208.589"/>
<polygon fill="none" stroke="black" points="297.869,-205.217 287.302,-204.446 295.082,-211.639 297.869,-205.217"/>
</g>
<!-- \\GraphUpdateRequest -->
<g id="node2" class="node"><title>\\GraphUpdateRequest</title>
<polygon fill="none" stroke="black" points="540.5,-376 402.5,-376 402.5,-340 540.5,-340 540.5,-376"/>
<text text-anchor="middle" x="471.5" y="-355.2" font-family="Courier,monospace" font-size="11.00">GraphUpdateRequest</text>
</g>
<!-- \\EntityUpdate -->
<g id="node49" class="node"><title>\\EntityUpdate</title>
<polygon fill="none" stroke="black" points="300.5,-106 202.5,-106 202.5,-70 300.5,-70 300.5,-106"/>
<text text-anchor="middle" x="251.5" y="-85.2" font-family="Courier,monospace" font-size="11.00">EntityUpdate</text>
</g>
<!-- \\GraphUpdateRequest&#45;&gt;\\EntityUpdate -->
<g id="edge2" class="edge"><title>\\GraphUpdateRequest&#45;&gt;\\EntityUpdate</title>
<path fill="none" stroke="black" d="M402.185,-341.083C397.381,-338.23 392.903,-334.896 389,-331 317.38,-259.512 385.833,-189.176 317,-115 314.616,-112.431 311.949,-110.097 309.093,-107.98"/>
<polygon fill="none" stroke="black" points="310.935,-105.003 300.624,-102.565 307.164,-110.9 310.935,-105.003"/>
</g>
<!-- \\LDPropertyValue -->
<g id="node3" class="node"><title>\\LDPropertyValue</title>
<polygon fill="none" stroke="black" points="310.5,-1078 192.5,-1078 192.5,-1042 310.5,-1042 310.5,-1078"/>
<text text-anchor="middle" x="251.5" y="-1057.2" font-family="Courier,monospace" font-size="11.00">LDPropertyValue</text>
</g>
<!-- \\DacuraObject -->
<g id="node45" class="node"><title>\\DacuraObject</title>
<polygon fill="none" stroke="black" points="114,-565 16,-565 16,-529 114,-529 114,-565"/>
<text text-anchor="middle" x="65" y="-544.2" font-family="Courier,monospace" font-size="11.00">DacuraObject</text>
</g>
<!-- \\LDPropertyValue&#45;&gt;\\DacuraObject -->
<g id="edge3" class="edge"><title>\\LDPropertyValue&#45;&gt;\\DacuraObject</title>
<path fill="none" stroke="black" d="M195.766,-1041.81C192.161,-1039.24 188.843,-1036.32 186,-1033 125.299,-962.123 81.9953,-668.169 69.6152,-575.271"/>
<polygon fill="none" stroke="black" points="73.0659,-574.667 68.291,-565.209 66.1257,-575.58 73.0659,-574.667"/>
</g>
<!-- \\Schema -->
<g id="node4" class="node"><title>\\Schema</title>
<polygon fill="none" stroke="black" points="280,-1024 223,-1024 223,-988 280,-988 280,-1024"/>
<text text-anchor="middle" x="251.5" y="-1003.2" font-family="Courier,monospace" font-size="11.00">Schema</text>
</g>
<!-- \\Schema&#45;&gt;\\DacuraObject -->
<g id="edge4" class="edge"><title>\\Schema&#45;&gt;\\DacuraObject</title>
<path fill="none" stroke="black" d="M222.737,-1000.29C209.918,-996.32 195.474,-989.744 186,-979 79.5222,-858.245 66.7674,-650.628 65.7959,-575.326"/>
<polygon fill="none" stroke="black" points="69.2951,-575.179 65.7283,-565.202 62.2952,-575.226 69.2951,-575.179"/>
</g>
<!-- \\RequestLog -->
<g id="node5" class="node"><title>\\RequestLog</title>
<polygon fill="none" stroke="black" points="984,-1010 900,-1010 900,-974 984,-974 984,-1010"/>
<text text-anchor="middle" x="942" y="-989.2" font-family="Courier,monospace" font-size="11.00">RequestLog</text>
</g>
<!-- \\ConfigForm -->
<g id="node6" class="node"><title>\\ConfigForm</title>
<polygon fill="none" stroke="black" points="293.5,-970 209.5,-970 209.5,-934 293.5,-934 293.5,-970"/>
<text text-anchor="middle" x="251.5" y="-949.2" font-family="Courier,monospace" font-size="11.00">ConfigForm</text>
</g>
<!-- \\ConfigForm&#45;&gt;\\DacuraObject -->
<g id="edge5" class="edge"><title>\\ConfigForm&#45;&gt;\\DacuraObject</title>
<path fill="none" stroke="black" d="M209.249,-940.975C200.658,-937.088 192.309,-931.897 186,-925 91.6022,-821.799 71.4567,-644.378 67.1619,-575.5"/>
<polygon fill="none" stroke="black" points="70.6504,-575.195 66.5997,-565.406 63.6613,-575.585 70.6504,-575.195"/>
</g>
<!-- \\ConfigDacuraServer -->
<g id="node7" class="node"><title>\\ConfigDacuraServer</title>
<polygon fill="none" stroke="black" points="777.5,-106 639.5,-106 639.5,-70 777.5,-70 777.5,-106"/>
<text text-anchor="middle" x="708.5" y="-85.2" font-family="Courier,monospace" font-size="11.00">ConfigDacuraServer</text>
</g>
<!-- \\DacuraServer -->
<g id="node46" class="node"><title>\\DacuraServer</title>
<polygon fill="none" stroke="black" points="520.5,-214 422.5,-214 422.5,-178 520.5,-178 520.5,-214"/>
<text text-anchor="middle" x="471.5" y="-193.2" font-family="Courier,monospace" font-size="11.00">DacuraServer</text>
</g>
<!-- \\ConfigDacuraServer&#45;&gt;\\DacuraServer -->
<g id="edge6" class="edge"><title>\\ConfigDacuraServer&#45;&gt;\\DacuraServer</title>
<path fill="none" stroke="black" d="M645.647,-106.114C638.884,-108.79 632.208,-111.754 626,-115 590.552,-133.532 589.448,-150.468 554,-169 546.5,-172.921 538.317,-176.431 530.124,-179.519"/>
<polygon fill="none" stroke="black" points="528.776,-176.284 520.541,-182.951 531.135,-182.875 528.776,-176.284"/>
</g>
<!-- \\Graph -->
<g id="node8" class="node"><title>\\Graph</title>
<polygon fill="none" stroke="black" points="498.5,-430 444.5,-430 444.5,-394 498.5,-394 498.5,-430"/>
<text text-anchor="middle" x="471.5" y="-409.2" font-family="Courier,monospace" font-size="11.00">Graph</text>
</g>
<!-- \\Graph&#45;&gt;\\LDEntity -->
<g id="edge7" class="edge"><title>\\Graph&#45;&gt;\\LDEntity</title>
<path fill="none" stroke="black" d="M444.231,-408.883C426.734,-405.579 404.242,-398.813 389,-385 330.616,-332.091 373.317,-278.103 317,-223 311.204,-217.329 304.042,-212.779 296.62,-209.152"/>
<polygon fill="none" stroke="black" points="297.73,-205.818 287.164,-205.035 294.936,-212.236 297.73,-205.818"/>
</g>
<!-- \\DacuraForm -->
<g id="node9" class="node"><title>\\DacuraForm</title>
<polygon fill="none" stroke="black" points="293.5,-916 209.5,-916 209.5,-880 293.5,-880 293.5,-916"/>
<text text-anchor="middle" x="251.5" y="-895.2" font-family="Courier,monospace" font-size="11.00">DacuraForm</text>
</g>
<!-- \\DacuraForm&#45;&gt;\\DacuraObject -->
<g id="edge8" class="edge"><title>\\DacuraForm&#45;&gt;\\DacuraObject</title>
<path fill="none" stroke="black" d="M209.486,-886.753C200.883,-882.877 192.47,-877.746 186,-871 103.353,-784.83 76.6807,-636.783 68.9035,-575.177"/>
<polygon fill="none" stroke="black" points="72.3554,-574.564 67.699,-565.047 65.4043,-575.39 72.3554,-574.564"/>
</g>
<!-- \\CoreService -->
<g id="node10" class="node"><title>\\CoreService</title>
<polygon fill="none" stroke="black" points="517,-754 426,-754 426,-718 517,-718 517,-754"/>
<text text-anchor="middle" x="471.5" y="-733.2" font-family="Courier,monospace" font-size="11.00">CoreService</text>
</g>
<!-- \\DacuraService -->
<g id="node14" class="node"><title>\\DacuraService</title>
<polygon fill="none" stroke="black" points="303.5,-268 199.5,-268 199.5,-232 303.5,-232 303.5,-268"/>
<text text-anchor="middle" x="251.5" y="-247.2" font-family="Courier,monospace" font-size="11.00">DacuraService</text>
</g>
<!-- \\CoreService&#45;&gt;\\DacuraService -->
<g id="edge9" class="edge"><title>\\CoreService&#45;&gt;\\DacuraService</title>
<path fill="none" stroke="black" d="M425.692,-730.281C412.093,-726.385 398.306,-719.87 389,-709 262.414,-561.135 437.836,-429.6 317,-277 315.384,-274.96 313.587,-273.072 311.65,-271.325"/>
<polygon fill="none" stroke="black" points="313.672,-268.467 303.572,-265.264 309.47,-274.066 313.672,-268.467"/>
</g>
<!-- \\Collection -->
<g id="node11" class="node"><title>\\Collection</title>
<polygon fill="none" stroke="black" points="293.5,-862 209.5,-862 209.5,-826 293.5,-826 293.5,-862"/>
<text text-anchor="middle" x="251.5" y="-841.2" font-family="Courier,monospace" font-size="11.00">Collection</text>
</g>
<!-- \\Collection&#45;&gt;\\DacuraObject -->
<g id="edge10" class="edge"><title>\\Collection&#45;&gt;\\DacuraObject</title>
<path fill="none" stroke="black" d="M209.459,-832.296C200.958,-828.453 192.594,-823.452 186,-817 115.019,-747.549 82.7682,-628.732 71.2623,-574.931"/>
<polygon fill="none" stroke="black" points="74.6771,-574.16 69.2324,-565.071 67.8209,-575.572 74.6771,-574.16"/>
</g>
<!-- \\EntityCreateRequest -->
<g id="node12" class="node"><title>\\EntityCreateRequest</title>
<polygon fill="none" stroke="black" points="544,-592 399,-592 399,-556 544,-556 544,-592"/>
<text text-anchor="middle" x="471.5" y="-571.2" font-family="Courier,monospace" font-size="11.00">EntityCreateRequest</text>
</g>
<!-- \\EntityCreateRequest&#45;&gt;\\LDEntity -->
<g id="edge11" class="edge"><title>\\EntityCreateRequest&#45;&gt;\\LDEntity</title>
<path fill="none" stroke="black" d="M399.105,-555.783C395.412,-553.229 391.998,-550.318 389,-547 290.104,-437.549 411.636,-336.155 317,-223 311.514,-216.441 304.164,-211.447 296.391,-207.654"/>
<polygon fill="none" stroke="black" points="297.731,-204.42 287.158,-203.731 294.993,-210.863 297.731,-204.42"/>
</g>
<!-- \\ConfigService -->
<g id="node13" class="node"><title>\\ConfigService</title>
<polygon fill="none" stroke="black" points="523.5,-646 419.5,-646 419.5,-610 523.5,-610 523.5,-646"/>
<text text-anchor="middle" x="471.5" y="-625.2" font-family="Courier,monospace" font-size="11.00">ConfigService</text>
</g>
<!-- \\ConfigService&#45;&gt;\\DacuraService -->
<g id="edge12" class="edge"><title>\\ConfigService&#45;&gt;\\DacuraService</title>
<path fill="none" stroke="black" d="M419.238,-619.808C407.951,-615.802 396.994,-609.848 389,-601 290.104,-491.549 411.636,-390.155 317,-277 315.481,-275.184 313.82,-273.488 312.046,-271.905"/>
<polygon fill="none" stroke="black" points="313.757,-268.815 303.644,-265.656 309.58,-274.432 313.757,-268.815"/>
</g>
<!-- \\DacuraService&#45;&gt;\\DacuraObject -->
<g id="edge13" class="edge"><title>\\DacuraService&#45;&gt;\\DacuraObject</title>
<path fill="none" stroke="black" d="M199.236,-267.004C194.429,-269.868 189.905,-273.18 186,-277 115.019,-346.451 82.7682,-465.268 71.2623,-519.069"/>
<polygon fill="none" stroke="black" points="67.8209,-518.428 69.2324,-528.929 74.6771,-519.84 67.8209,-518.428"/>
</g>
<!-- \\FakeTripleStore -->
<g id="node15" class="node"><title>\\FakeTripleStore</title>
<polygon fill="none" stroke="black" points="1001,-889 883,-889 883,-853 1001,-853 1001,-889"/>
<text text-anchor="middle" x="942" y="-868.2" font-family="Courier,monospace" font-size="11.00">FakeTripleStore</text>
</g>
<!-- \\GraphCreateRequest -->
<g id="node16" class="node"><title>\\GraphCreateRequest</title>
<polygon fill="none" stroke="black" points="777.5,-538 639.5,-538 639.5,-502 777.5,-502 777.5,-538"/>
<text text-anchor="middle" x="708.5" y="-517.2" font-family="Courier,monospace" font-size="11.00">GraphCreateRequest</text>
</g>
<!-- \\GraphCreateRequest&#45;&gt;\\EntityCreateRequest -->
<g id="edge14" class="edge"><title>\\GraphCreateRequest&#45;&gt;\\EntityCreateRequest</title>
<path fill="none" stroke="black" d="M639.213,-535.692C612.66,-541.793 582.015,-548.835 554.298,-555.204"/>
<polygon fill="none" stroke="black" points="553.194,-551.866 544.232,-557.517 554.762,-558.688 553.194,-551.866"/>
</g>
<!-- \\LdDacuraServer -->
<g id="node17" class="node"><title>\\LdDacuraServer</title>
<polygon fill="none" stroke="black" points="764,-268 653,-268 653,-232 764,-232 764,-268"/>
<text text-anchor="middle" x="708.5" y="-247.2" font-family="Courier,monospace" font-size="11.00">LdDacuraServer</text>
</g>
<!-- \\LdDacuraServer&#45;&gt;\\DacuraServer -->
<g id="edge15" class="edge"><title>\\LdDacuraServer&#45;&gt;\\DacuraServer</title>
<path fill="none" stroke="black" d="M652.996,-237.476C616.278,-229.038 567.908,-217.924 530.484,-209.324"/>
<polygon fill="none" stroke="black" points="531.259,-205.911 520.729,-207.083 529.692,-212.733 531.259,-205.911"/>
</g>
<!-- \\UserRole -->
<g id="node18" class="node"><title>\\UserRole</title>
<polygon fill="none" stroke="black" points="287,-808 216,-808 216,-772 287,-772 287,-808"/>
<text text-anchor="middle" x="251.5" y="-787.2" font-family="Courier,monospace" font-size="11.00">UserRole</text>
</g>
<!-- \\UserRole&#45;&gt;\\DacuraObject -->
<g id="edge16" class="edge"><title>\\UserRole&#45;&gt;\\DacuraObject</title>
<path fill="none" stroke="black" d="M215.917,-780.39C205.458,-776.272 194.503,-770.61 186,-763 126.69,-709.915 90.3161,-620.311 74.7873,-575.013"/>
<polygon fill="none" stroke="black" points="78.0223,-573.65 71.5369,-565.272 71.3822,-575.865 78.0223,-573.65"/>
</g>
<!-- \\DacuraSession -->
<g id="node19" class="node"><title>\\DacuraSession</title>
<polygon fill="none" stroke="black" points="303.5,-754 199.5,-754 199.5,-718 303.5,-718 303.5,-754"/>
<text text-anchor="middle" x="251.5" y="-733.2" font-family="Courier,monospace" font-size="11.00">DacuraSession</text>
</g>
<!-- \\DacuraSession&#45;&gt;\\DacuraObject -->
<g id="edge17" class="edge"><title>\\DacuraSession&#45;&gt;\\DacuraObject</title>
<path fill="none" stroke="black" d="M199.71,-717.898C194.868,-715.255 190.204,-712.295 186,-709 137.909,-671.301 99.6006,-609.677 80.0988,-574.294"/>
<polygon fill="none" stroke="black" points="82.9378,-572.185 75.1045,-565.052 76.7794,-575.513 82.9378,-572.185"/>
</g>
<!-- \\DacuraController -->
<g id="node20" class="node"><title>\\DacuraController</title>
<polygon fill="none" stroke="black" points="314,-52 189,-52 189,-16 314,-16 314,-52"/>
<text text-anchor="middle" x="251.5" y="-31.2" font-family="Courier,monospace" font-size="11.00">DacuraController</text>
</g>
<!-- \\DacuraController&#45;&gt;\\DacuraObject -->
<g id="edge18" class="edge"><title>\\DacuraController&#45;&gt;\\DacuraObject</title>
<path fill="none" stroke="black" d="M195.766,-52.1943C192.161,-54.7611 188.843,-57.6807 186,-61 125.299,-131.877 81.9953,-425.831 69.6152,-518.729"/>
<polygon fill="none" stroke="black" points="66.1257,-518.42 68.291,-528.791 73.0659,-519.333 66.1257,-518.42"/>
</g>
<!-- \\AnalysisResults -->
<g id="node21" class="node"><title>\\AnalysisResults</title>
<polygon fill="none" stroke="black" points="530.5,-700 412.5,-700 412.5,-664 530.5,-664 530.5,-700"/>
<text text-anchor="middle" x="471.5" y="-679.2" font-family="Courier,monospace" font-size="11.00">AnalysisResults</text>
</g>
<!-- \\ServiceCall -->
<g id="node22" class="node"><title>\\ServiceCall</title>
<polygon fill="none" stroke="black" points="297,-700 206,-700 206,-664 297,-664 297,-700"/>
<text text-anchor="middle" x="251.5" y="-679.2" font-family="Courier,monospace" font-size="11.00">ServiceCall</text>
</g>
<!-- \\ServiceCall&#45;&gt;\\DacuraObject -->
<g id="edge19" class="edge"><title>\\ServiceCall&#45;&gt;\\DacuraObject</title>
<path fill="none" stroke="black" d="M205.789,-665.608C198.965,-662.451 192.153,-658.898 186,-655 148.824,-631.452 112.111,-596.164 89.2764,-572.394"/>
<polygon fill="none" stroke="black" points="91.7889,-569.957 82.3674,-565.111 86.7104,-574.775 91.7889,-569.957"/>
</g>
<!-- \\UserManager -->
<g id="node23" class="node"><title>\\UserManager</title>
<polygon fill="none" stroke="black" points="517,-106 426,-106 426,-70 517,-70 517,-106"/>
<text text-anchor="middle" x="471.5" y="-85.2" font-family="Courier,monospace" font-size="11.00">UserManager</text>
</g>
<!-- \\UserManager&#45;&gt;\\DacuraController -->
<g id="edge20" class="edge"><title>\\UserManager&#45;&gt;\\DacuraController</title>
<path fill="none" stroke="black" d="M425.858,-76.942C396.494,-69.6682 357.421,-59.9895 323.803,-51.6623"/>
<polygon fill="none" stroke="black" points="324.57,-48.2466 314.022,-49.2394 322.887,-55.0412 324.57,-48.2466"/>
</g>
<!-- \\PolicyEngine -->
<g id="node24" class="node"><title>\\PolicyEngine</title>
<polygon fill="none" stroke="black" points="300.5,-646 202.5,-646 202.5,-610 300.5,-610 300.5,-646"/>
<text text-anchor="middle" x="251.5" y="-625.2" font-family="Courier,monospace" font-size="11.00">PolicyEngine</text>
</g>
<!-- \\PolicyEngine&#45;&gt;\\DacuraObject -->
<g id="edge21" class="edge"><title>\\PolicyEngine&#45;&gt;\\DacuraObject</title>
<path fill="none" stroke="black" d="M206.717,-609.856C199.773,-606.925 192.681,-603.901 186,-601 162.452,-590.775 136.456,-579.122 114.698,-569.265"/>
<polygon fill="none" stroke="black" points="115.891,-565.963 105.338,-565.017 112.998,-572.337 115.891,-565.963"/>
</g>
<!-- \\GraphAnalysisResults -->
<g id="node25" class="node"><title>\\GraphAnalysisResults</title>
<polygon fill="none" stroke="black" points="784.5,-754 632.5,-754 632.5,-718 784.5,-718 784.5,-754"/>
<text text-anchor="middle" x="708.5" y="-733.2" font-family="Courier,monospace" font-size="11.00">GraphAnalysisResults</text>
</g>
<!-- \\GraphAnalysisResults&#45;&gt;\\AnalysisResults -->
<g id="edge22" class="edge"><title>\\GraphAnalysisResults&#45;&gt;\\AnalysisResults</title>
<path fill="none" stroke="black" d="M632.498,-718.766C603.06,-712.001 569.508,-704.291 540.758,-697.685"/>
<polygon fill="none" stroke="black" points="541.333,-694.226 530.803,-695.397 539.765,-701.048 541.333,-694.226"/>
</g>
<!-- \\LoginDacuraServer -->
<g id="node26" class="node"><title>\\LoginDacuraServer</title>
<polygon fill="none" stroke="black" points="774,-376 643,-376 643,-340 774,-340 774,-376"/>
<text text-anchor="middle" x="708.5" y="-355.2" font-family="Courier,monospace" font-size="11.00">LoginDacuraServer</text>
</g>
<!-- \\LoginDacuraServer&#45;&gt;\\DacuraServer -->
<g id="edge23" class="edge"><title>\\LoginDacuraServer&#45;&gt;\\DacuraServer</title>
<path fill="none" stroke="black" d="M642.712,-341.099C636.781,-338.228 631.097,-334.886 626,-331 580.122,-296.025 599.878,-257.975 554,-223 546.938,-217.616 538.748,-213.276 530.339,-209.785"/>
<polygon fill="none" stroke="black" points="531.392,-206.441 520.8,-206.194 528.926,-212.993 531.392,-206.441"/>
</g>
<!-- \\CandidateService -->
<g id="node27" class="node"><title>\\CandidateService</title>
<polygon fill="none" stroke="black" points="771,-1051 646,-1051 646,-1015 771,-1015 771,-1051"/>
<text text-anchor="middle" x="708.5" y="-1030.2" font-family="Courier,monospace" font-size="11.00">CandidateService</text>
</g>
<!-- \\LdService -->
<g id="node41" class="node"><title>\\LdService</title>
<polygon fill="none" stroke="black" points="510,-1024 433,-1024 433,-988 510,-988 510,-1024"/>
<text text-anchor="middle" x="471.5" y="-1003.2" font-family="Courier,monospace" font-size="11.00">LdService</text>
</g>
<!-- \\CandidateService&#45;&gt;\\LdService -->
<g id="edge24" class="edge"><title>\\CandidateService&#45;&gt;\\LdService</title>
<path fill="none" stroke="black" d="M645.757,-1025.91C606.645,-1021.41 556.803,-1015.69 520.628,-1011.53"/>
<polygon fill="none" stroke="black" points="520.673,-1008.01 510.338,-1010.35 519.873,-1014.97 520.673,-1008.01"/>
</g>
<!-- \\CandidateDacuraServer -->
<g id="node28" class="node"><title>\\CandidateDacuraServer</title>
<polygon fill="none" stroke="black" points="1021,-295 863,-295 863,-259 1021,-259 1021,-295"/>
<text text-anchor="middle" x="942" y="-274.2" font-family="Courier,monospace" font-size="11.00">CandidateDacuraServer</text>
</g>
<!-- \\CandidateDacuraServer&#45;&gt;\\LdDacuraServer -->
<g id="edge25" class="edge"><title>\\CandidateDacuraServer&#45;&gt;\\LdDacuraServer</title>
<path fill="none" stroke="black" d="M862.947,-267.897C834.198,-264.544 801.966,-260.784 774.491,-257.58"/>
<polygon fill="none" stroke="black" points="774.55,-254.063 764.212,-256.381 773.739,-261.016 774.55,-254.063"/>
</g>
<!-- \\DacuraResult -->
<g id="node29" class="node"><title>\\DacuraResult</title>
<polygon fill="none" stroke="black" points="300.5,-592 202.5,-592 202.5,-556 300.5,-556 300.5,-592"/>
<text text-anchor="middle" x="251.5" y="-571.2" font-family="Courier,monospace" font-size="11.00">DacuraResult</text>
</g>
<!-- \\DacuraResult&#45;&gt;\\DacuraObject -->
<g id="edge26" class="edge"><title>\\DacuraResult&#45;&gt;\\DacuraObject</title>
<path fill="none" stroke="black" d="M202.025,-566.906C178.19,-563.418 149.28,-559.187 124.252,-555.525"/>
<polygon fill="none" stroke="black" points="124.553,-552.032 114.151,-554.047 123.539,-558.958 124.553,-552.032"/>
</g>
<!-- \\HomeDacuraServer -->
<g id="node30" class="node"><title>\\HomeDacuraServer</title>
<polygon fill="none" stroke="black" points="771,-322 646,-322 646,-286 771,-286 771,-322"/>
<text text-anchor="middle" x="708.5" y="-301.2" font-family="Courier,monospace" font-size="11.00">HomeDacuraServer</text>
</g>
<!-- \\HomeDacuraServer&#45;&gt;\\DacuraServer -->
<g id="edge27" class="edge"><title>\\HomeDacuraServer&#45;&gt;\\DacuraServer</title>
<path fill="none" stroke="black" d="M645.647,-285.886C638.884,-283.21 632.208,-280.246 626,-277 590.552,-258.468 589.448,-241.532 554,-223 546.5,-219.079 538.317,-215.569 530.124,-212.481"/>
<polygon fill="none" stroke="black" points="531.135,-209.125 520.541,-209.049 528.776,-215.716 531.135,-209.125"/>
</g>
<!-- \\LDDBManager -->
<g id="node31" class="node"><title>\\LDDBManager</title>
<polygon fill="none" stroke="black" points="754,-52 663,-52 663,-16 754,-16 754,-52"/>
<text text-anchor="middle" x="708.5" y="-31.2" font-family="Courier,monospace" font-size="11.00">LDDBManager</text>
</g>
<!-- \\DBManager -->
<g id="node36" class="node"><title>\\DBManager</title>
<polygon fill="none" stroke="black" points="510,-160 433,-160 433,-124 510,-124 510,-160"/>
<text text-anchor="middle" x="471.5" y="-139.2" font-family="Courier,monospace" font-size="11.00">DBManager</text>
</g>
<!-- \\LDDBManager&#45;&gt;\\DBManager -->
<g id="edge28" class="edge"><title>\\LDDBManager&#45;&gt;\\DBManager</title>
<path fill="none" stroke="black" d="M662.866,-45.9097C650.586,-49.9494 637.492,-54.9921 626,-61 590.552,-79.5316 589.448,-96.4684 554,-115 543.267,-120.611 531.138,-125.38 519.579,-129.276"/>
<polygon fill="none" stroke="black" points="518.495,-125.948 510.047,-132.343 520.639,-132.612 518.495,-125.948"/>
</g>
<!-- \\SimpleRequestResults -->
<g id="node32" class="node"><title>\\SimpleRequestResults</title>
<polygon fill="none" stroke="black" points="784.5,-700 632.5,-700 632.5,-664 784.5,-664 784.5,-700"/>
<text text-anchor="middle" x="708.5" y="-679.2" font-family="Courier,monospace" font-size="11.00">SimpleRequestResults</text>
</g>
<!-- \\SimpleRequestResults&#45;&gt;\\AnalysisResults -->
<g id="edge29" class="edge"><title>\\SimpleRequestResults&#45;&gt;\\AnalysisResults</title>
<path fill="none" stroke="black" d="M632.498,-682C603.188,-682 569.801,-682 541.135,-682"/>
<polygon fill="none" stroke="black" points="540.803,-678.5 530.803,-682 540.803,-685.5 540.803,-678.5"/>
</g>
<!-- \\UpdateAnalysisResults -->
<g id="node33" class="node"><title>\\UpdateAnalysisResults</title>
<polygon fill="none" stroke="black" points="1021,-700 863,-700 863,-664 1021,-664 1021,-700"/>
<text text-anchor="middle" x="942" y="-679.2" font-family="Courier,monospace" font-size="11.00">UpdateAnalysisResults</text>
</g>
<!-- \\UpdateAnalysisResults&#45;&gt;\\SimpleRequestResults -->
<g id="edge30" class="edge"><title>\\UpdateAnalysisResults&#45;&gt;\\SimpleRequestResults</title>
<path fill="none" stroke="black" d="M862.947,-682C841.092,-682 817.224,-682 794.963,-682"/>
<polygon fill="none" stroke="black" points="794.861,-678.5 784.861,-682 794.861,-685.5 794.861,-678.5"/>
</g>
<!-- \\SchemaService -->
<g id="node34" class="node"><title>\\SchemaService</title>
<polygon fill="none" stroke="black" points="760.5,-997 656.5,-997 656.5,-961 760.5,-961 760.5,-997"/>
<text text-anchor="middle" x="708.5" y="-976.2" font-family="Courier,monospace" font-size="11.00">SchemaService</text>
</g>
<!-- \\SchemaService&#45;&gt;\\LdService -->
<g id="edge31" class="edge"><title>\\SchemaService&#45;&gt;\\LdService</title>
<path fill="none" stroke="black" d="M656.219,-984.892C615.804,-989.535 559.87,-995.962 520.365,-1000.5"/>
<polygon fill="none" stroke="black" points="519.726,-997.051 510.191,-1001.67 520.525,-1004.01 519.726,-997.051"/>
</g>
<!-- \\HomeService -->
<g id="node35" class="node"><title>\\HomeService</title>
<polygon fill="none" stroke="black" points="517,-970 426,-970 426,-934 517,-934 517,-970"/>
<text text-anchor="middle" x="471.5" y="-949.2" font-family="Courier,monospace" font-size="11.00">HomeService</text>
</g>
<!-- \\HomeService&#45;&gt;\\DacuraService -->
<g id="edge32" class="edge"><title>\\HomeService&#45;&gt;\\DacuraService</title>
<path fill="none" stroke="black" d="M425.767,-946.694C412.005,-942.833 398.1,-936.235 389,-925 206.619,-699.822 490.633,-508.991 317,-277 315.409,-274.874 313.619,-272.914 311.675,-271.108"/>
<polygon fill="none" stroke="black" points="313.586,-268.163 303.515,-264.873 309.336,-273.725 313.586,-268.163"/>
</g>
<!-- \\DBManager&#45;&gt;\\DacuraController -->
<g id="edge33" class="edge"><title>\\DBManager&#45;&gt;\\DacuraController</title>
<path fill="none" stroke="black" d="M432.953,-132.343C418.764,-127.984 402.738,-122.182 389,-115 353.552,-96.4684 351.713,-80.8742 317,-61 314.346,-59.4808 311.591,-57.9992 308.779,-56.5625"/>
<polygon fill="none" stroke="black" points="310.186,-53.3549 299.661,-52.1356 307.128,-59.6519 310.186,-53.3549"/>
</g>
<!-- \\GraphManager -->
<g id="node37" class="node"><title>\\GraphManager</title>
<polygon fill="none" stroke="black" points="300.5,-538 202.5,-538 202.5,-502 300.5,-502 300.5,-538"/>
<text text-anchor="middle" x="251.5" y="-517.2" font-family="Courier,monospace" font-size="11.00">GraphManager</text>
</g>
<!-- \\GraphManager&#45;&gt;\\DacuraObject -->
<g id="edge34" class="edge"><title>\\GraphManager&#45;&gt;\\DacuraObject</title>
<path fill="none" stroke="black" d="M202.025,-527.094C178.19,-530.582 149.28,-534.813 124.252,-538.475"/>
<polygon fill="none" stroke="black" points="123.539,-535.042 114.151,-539.953 124.553,-541.968 123.539,-535.042"/>
</g>
<!-- \\CandidateUpdateRequest -->
<g id="node38" class="node"><title>\\CandidateUpdateRequest</title>
<polygon fill="none" stroke="black" points="554,-322 389,-322 389,-286 554,-286 554,-322"/>
<text text-anchor="middle" x="471.5" y="-301.2" font-family="Courier,monospace" font-size="11.00">CandidateUpdateRequest</text>
</g>
<!-- \\CandidateUpdateRequest&#45;&gt;\\EntityUpdate -->
<g id="edge35" class="edge"><title>\\CandidateUpdateRequest&#45;&gt;\\EntityUpdate</title>
<path fill="none" stroke="black" d="M401.403,-285.98C396.951,-283.379 392.755,-280.403 389,-277 330.616,-224.091 373.317,-170.103 317,-115 314.614,-112.665 311.996,-110.521 309.224,-108.552"/>
<polygon fill="none" stroke="black" points="310.866,-105.452 300.522,-103.161 307.179,-111.403 310.866,-105.452"/>
</g>
<!-- \\NSResolver -->
<g id="node39" class="node"><title>\\NSResolver</title>
<polygon fill="none" stroke="black" points="293.5,-484 209.5,-484 209.5,-448 293.5,-448 293.5,-484"/>
<text text-anchor="middle" x="251.5" y="-463.2" font-family="Courier,monospace" font-size="11.00">NSResolver</text>
</g>
<!-- \\NSResolver&#45;&gt;\\DacuraObject -->
<g id="edge36" class="edge"><title>\\NSResolver&#45;&gt;\\DacuraObject</title>
<path fill="none" stroke="black" d="M209.486,-482.978C201.672,-486.266 193.572,-489.712 186,-493 162.452,-503.225 136.456,-514.878 114.698,-524.735"/>
<polygon fill="none" stroke="black" points="112.998,-521.663 105.338,-528.983 115.891,-528.037 112.998,-521.663"/>
</g>
<!-- \\LDDelta -->
<g id="node40" class="node"><title>\\LDDelta</title>
<polygon fill="none" stroke="black" points="283.5,-430 219.5,-430 219.5,-394 283.5,-394 283.5,-430"/>
<text text-anchor="middle" x="251.5" y="-409.2" font-family="Courier,monospace" font-size="11.00">LDDelta</text>
</g>
<!-- \\LDDelta&#45;&gt;\\DacuraObject -->
<g id="edge37" class="edge"><title>\\LDDelta&#45;&gt;\\DacuraObject</title>
<path fill="none" stroke="black" d="M219.261,-422.623C208.341,-426.963 196.255,-432.504 186,-439 148.824,-462.548 112.111,-497.836 89.2764,-521.606"/>
<polygon fill="none" stroke="black" points="86.7104,-519.225 82.3674,-528.889 91.7889,-524.043 86.7104,-519.225"/>
</g>
<!-- \\LdService&#45;&gt;\\DacuraService -->
<g id="edge38" class="edge"><title>\\LdService&#45;&gt;\\DacuraService</title>
<path fill="none" stroke="black" d="M432.911,-1002.52C416.964,-999.053 399.639,-992.25 389,-979 192.631,-734.445 503.87,-528.888 317,-277 315.418,-274.867 313.635,-272.902 311.698,-271.091"/>
<polygon fill="none" stroke="black" points="313.619,-268.154 303.555,-264.843 309.358,-273.707 313.619,-268.154"/>
</g>
<!-- \\LoginService -->
<g id="node42" class="node"><title>\\LoginService</title>
<polygon fill="none" stroke="black" points="520.5,-916 422.5,-916 422.5,-880 520.5,-880 520.5,-916"/>
<text text-anchor="middle" x="471.5" y="-895.2" font-family="Courier,monospace" font-size="11.00">LoginService</text>
</g>
<!-- \\LoginService&#45;&gt;\\DacuraService -->
<g id="edge39" class="edge"><title>\\LoginService&#45;&gt;\\DacuraService</title>
<path fill="none" stroke="black" d="M422.427,-891.629C409.811,-887.659 397.401,-881.267 389,-871 220.596,-665.184 477.407,-489.108 317,-277 315.43,-274.924 313.671,-273.007 311.765,-271.236"/>
<polygon fill="none" stroke="black" points="313.842,-268.417 303.778,-265.105 309.579,-273.97 313.842,-268.417"/>
</g>
<!-- \\BrowseService -->
<g id="node43" class="node"><title>\\BrowseService</title>
<polygon fill="none" stroke="black" points="523.5,-862 419.5,-862 419.5,-826 523.5,-826 523.5,-862"/>
<text text-anchor="middle" x="471.5" y="-841.2" font-family="Courier,monospace" font-size="11.00">BrowseService</text>
</g>
<!-- \\BrowseService&#45;&gt;\\DacuraService -->
<g id="edge40" class="edge"><title>\\BrowseService&#45;&gt;\\DacuraService</title>
<path fill="none" stroke="black" d="M419.111,-836.434C407.688,-832.416 396.701,-826.298 389,-817 234.558,-630.528 464.195,-469.244 317,-277 315.418,-274.934 313.649,-273.024 311.734,-271.26"/>
<polygon fill="none" stroke="black" points="313.796,-268.43 303.722,-265.147 309.55,-273.995 313.796,-268.43"/>
</g>
<!-- \\DacuraUser -->
<g id="node44" class="node"><title>\\DacuraUser</title>
<polygon fill="none" stroke="black" points="293.5,-376 209.5,-376 209.5,-340 293.5,-340 293.5,-376"/>
<text text-anchor="middle" x="251.5" y="-355.2" font-family="Courier,monospace" font-size="11.00">DacuraUser</text>
</g>
<!-- \\DacuraUser&#45;&gt;\\DacuraObject -->
<g id="edge41" class="edge"><title>\\DacuraUser&#45;&gt;\\DacuraObject</title>
<path fill="none" stroke="black" d="M209.435,-371.284C201.216,-374.988 192.974,-379.533 186,-385 137.909,-422.699 99.6006,-484.323 80.0988,-519.706"/>
<polygon fill="none" stroke="black" points="76.7794,-518.487 75.1045,-528.948 82.9378,-521.815 76.7794,-518.487"/>
</g>
<!-- \\DacuraServer&#45;&gt;\\DacuraController -->
<g id="edge42" class="edge"><title>\\DacuraServer&#45;&gt;\\DacuraController</title>
<path fill="none" stroke="black" d="M422.2,-185.806C410.575,-181.843 398.72,-176.41 389,-169 343.122,-134.025 361.506,-97.7041 317,-61 315.49,-59.7546 313.914,-58.5589 312.287,-57.4117"/>
<polygon fill="none" stroke="black" points="314.118,-54.4288 303.788,-52.0731 310.394,-60.3563 314.118,-54.4288"/>
</g>
<!-- \\SchemaDacuraServer -->
<g id="node47" class="node"><title>\\SchemaDacuraServer</title>
<polygon fill="none" stroke="black" points="1011,-241 873,-241 873,-205 1011,-205 1011,-241"/>
<text text-anchor="middle" x="942" y="-220.2" font-family="Courier,monospace" font-size="11.00">SchemaDacuraServer</text>
</g>
<!-- \\SchemaDacuraServer&#45;&gt;\\LdDacuraServer -->
<g id="edge43" class="edge"><title>\\SchemaDacuraServer&#45;&gt;\\LdDacuraServer</title>
<path fill="none" stroke="black" d="M872.794,-230.955C841.639,-234.588 804.922,-238.871 774.204,-242.454"/>
<polygon fill="none" stroke="black" points="773.56,-239.005 764.033,-243.64 774.371,-245.958 773.56,-239.005"/>
</g>
<!-- \\ServiceLoader -->
<g id="node48" class="node"><title>\\ServiceLoader</title>
<polygon fill="none" stroke="black" points="303.5,-322 199.5,-322 199.5,-286 303.5,-286 303.5,-322"/>
<text text-anchor="middle" x="251.5" y="-301.2" font-family="Courier,monospace" font-size="11.00">ServiceLoader</text>
</g>
<!-- \\ServiceLoader&#45;&gt;\\DacuraObject -->
<g id="edge44" class="edge"><title>\\ServiceLoader&#45;&gt;\\DacuraObject</title>
<path fill="none" stroke="black" d="M199.25,-321.552C194.497,-324.302 189.98,-327.438 186,-331 126.69,-384.085 90.3161,-473.689 74.7873,-518.987"/>
<polygon fill="none" stroke="black" points="71.3822,-518.135 71.5369,-528.728 78.0223,-520.35 71.3822,-518.135"/>
</g>
<!-- \\EntityUpdate&#45;&gt;\\DacuraObject -->
<g id="edge45" class="edge"><title>\\EntityUpdate&#45;&gt;\\DacuraObject</title>
<path fill="none" stroke="black" d="M202.465,-102.172C196.312,-105.593 190.576,-109.81 186,-115 79.5222,-235.755 66.7674,-443.372 65.7959,-518.674"/>
<polygon fill="none" stroke="black" points="62.2952,-518.774 65.7283,-528.798 69.2951,-518.821 62.2952,-518.774"/>
</g>
<!-- \\OntologyUpdateRequest -->
<g id="node50" class="node"><title>\\OntologyUpdateRequest</title>
<polygon fill="none" stroke="black" points="550.5,-268 392.5,-268 392.5,-232 550.5,-232 550.5,-268"/>
<text text-anchor="middle" x="471.5" y="-247.2" font-family="Courier,monospace" font-size="11.00">OntologyUpdateRequest</text>
</g>
<!-- \\OntologyUpdateRequest&#45;&gt;\\EntityUpdate -->
<g id="edge46" class="edge"><title>\\OntologyUpdateRequest&#45;&gt;\\EntityUpdate</title>
<path fill="none" stroke="black" d="M403.245,-231.87C398.207,-229.285 393.386,-226.344 389,-223 343.122,-188.025 361.506,-151.704 317,-115 314.641,-113.055 312.122,-111.231 309.497,-109.523"/>
<polygon fill="none" stroke="black" points="311.221,-106.477 300.82,-104.459 307.693,-112.523 311.221,-106.477"/>
</g>
<!-- \\FileManager -->
<g id="node51" class="node"><title>\\FileManager</title>
<polygon fill="none" stroke="black" points="517,-52 426,-52 426,-16 517,-16 517,-52"/>
<text text-anchor="middle" x="471.5" y="-31.2" font-family="Courier,monospace" font-size="11.00">FileManager</text>
</g>
<!-- \\FileManager&#45;&gt;\\DacuraController -->
<g id="edge47" class="edge"><title>\\FileManager&#45;&gt;\\DacuraController</title>
<path fill="none" stroke="black" d="M425.858,-34C396.62,-34 357.756,-34 324.237,-34"/>
<polygon fill="none" stroke="black" points="324.022,-30.5001 314.022,-34 324.022,-37.5001 324.022,-30.5001"/>
</g>
<!-- \\FileChannel -->
<g id="node52" class="node"><title>\\FileChannel</title>
<polygon fill="none" stroke="black" points="987.5,-133 896.5,-133 896.5,-97 987.5,-97 987.5,-133"/>
<text text-anchor="middle" x="942" y="-112.2" font-family="Courier,monospace" font-size="11.00">FileChannel</text>
</g>
<!-- \\UsersService -->
<g id="node53" class="node"><title>\\UsersService</title>
<polygon fill="none" stroke="black" points="520.5,-808 422.5,-808 422.5,-772 520.5,-772 520.5,-808"/>
<text text-anchor="middle" x="471.5" y="-787.2" font-family="Courier,monospace" font-size="11.00">UsersService</text>
</g>
<!-- \\UsersService&#45;&gt;\\DacuraService -->
<g id="edge48" class="edge"><title>\\UsersService&#45;&gt;\\DacuraService</title>
<path fill="none" stroke="black" d="M422.175,-783.351C409.708,-779.369 397.44,-773.041 389,-763 248.5,-595.848 451.002,-449.405 317,-277 315.403,-274.945 313.621,-273.045 311.697,-271.289"/>
<polygon fill="none" stroke="black" points="313.74,-268.446 303.655,-265.199 309.514,-274.026 313.74,-268.446"/>
</g>
<!-- \\DacuraFormElement -->
<g id="node54" class="node"><title>\\DacuraFormElement</title>
<polygon fill="none" stroke="black" points="317,-160 186,-160 186,-124 317,-124 317,-160"/>
<text text-anchor="middle" x="251.5" y="-139.2" font-family="Courier,monospace" font-size="11.00">DacuraFormElement</text>
</g>
<!-- \\DacuraFormElement&#45;&gt;\\DacuraObject -->
<g id="edge49" class="edge"><title>\\DacuraFormElement&#45;&gt;\\DacuraObject</title>
<path fill="none" stroke="black" d="M196.308,-160.195C192.534,-162.766 189.032,-165.686 186,-169 91.6022,-272.201 71.4567,-449.622 67.1619,-518.5"/>
<polygon fill="none" stroke="black" points="63.6613,-518.415 66.5997,-528.594 70.6504,-518.805 63.6613,-518.415"/>
</g>
<!-- \\Candidate -->
<g id="node55" class="node"><title>\\Candidate</title>
<polygon fill="none" stroke="black" points="510,-538 433,-538 433,-502 510,-502 510,-538"/>
<text text-anchor="middle" x="471.5" y="-517.2" font-family="Courier,monospace" font-size="11.00">Candidate</text>
</g>
<!-- \\Candidate&#45;&gt;\\LDEntity -->
<g id="edge50" class="edge"><title>\\Candidate&#45;&gt;\\LDEntity</title>
<path fill="none" stroke="black" d="M432.601,-515.415C417.177,-511.716 400.347,-505.041 389,-493 303.824,-402.617 398.656,-316.575 317,-223 311.496,-216.692 304.277,-211.824 296.666,-208.077"/>
<polygon fill="none" stroke="black" points="297.846,-204.775 287.277,-204.041 295.082,-211.206 297.846,-204.775"/>
</g>
<!-- \\CandidateCreateRequest -->
<g id="node56" class="node"><title>\\CandidateCreateRequest</title>
<polygon fill="none" stroke="black" points="791,-646 626,-646 626,-610 791,-610 791,-646"/>
<text text-anchor="middle" x="708.5" y="-625.2" font-family="Courier,monospace" font-size="11.00">CandidateCreateRequest</text>
</g>
<!-- \\CandidateCreateRequest&#45;&gt;\\EntityCreateRequest -->
<g id="edge51" class="edge"><title>\\CandidateCreateRequest&#45;&gt;\\EntityCreateRequest</title>
<path fill="none" stroke="black" d="M628.922,-609.944C604.881,-604.419 578.389,-598.332 554.149,-592.762"/>
<polygon fill="none" stroke="black" points="554.8,-589.32 544.27,-590.492 553.232,-596.143 554.8,-589.32"/>
</g>
<!-- \\LDEntity&#45;&gt;\\DacuraObject -->
<g id="edge52" class="edge"><title>\\LDEntity&#45;&gt;\\DacuraObject</title>
<path fill="none" stroke="black" d="M215.861,-204.601C205.154,-208.69 194.067,-214.589 186,-223 103.353,-309.17 76.6807,-457.217 68.9035,-518.823"/>
<polygon fill="none" stroke="black" points="65.4043,-518.61 67.699,-528.953 72.3554,-519.436 65.4043,-518.61"/>
</g>
<!-- \\UsersDacuraServer -->
<g id="node58" class="node"><title>\\UsersDacuraServer</title>
<polygon fill="none" stroke="black" points="774,-214 643,-214 643,-178 774,-178 774,-214"/>
<text text-anchor="middle" x="708.5" y="-193.2" font-family="Courier,monospace" font-size="11.00">UsersDacuraServer</text>
</g>
<!-- \\UsersDacuraServer&#45;&gt;\\DacuraServer -->
<g id="edge53" class="edge"><title>\\UsersDacuraServer&#45;&gt;\\DacuraServer</title>
<path fill="none" stroke="black" d="M642.974,-196C608.003,-196 565.113,-196 531.103,-196"/>
<polygon fill="none" stroke="black" points="530.852,-192.5 520.852,-196 530.852,-199.5 530.852,-192.5"/>
</g>
<!-- \\BrowseDacuraServer -->
<g id="node59" class="node"><title>\\BrowseDacuraServer</title>
<polygon fill="none" stroke="black" points="777.5,-160 639.5,-160 639.5,-124 777.5,-124 777.5,-160"/>
<text text-anchor="middle" x="708.5" y="-139.2" font-family="Courier,monospace" font-size="11.00">BrowseDacuraServer</text>
</g>
<!-- \\BrowseDacuraServer&#45;&gt;\\DacuraServer -->
<g id="edge54" class="edge"><title>\\BrowseDacuraServer&#45;&gt;\\DacuraServer</title>
<path fill="none" stroke="black" d="M639.213,-157.692C604.825,-165.593 563.574,-175.072 530.709,-182.624"/>
<polygon fill="none" stroke="black" points="529.758,-179.251 520.796,-184.902 531.326,-186.074 529.758,-179.251"/>
</g>
<!-- \\OntologyCreateRequest -->
<g id="node60" class="node"><title>\\OntologyCreateRequest</title>
<polygon fill="none" stroke="black" points="787.5,-592 629.5,-592 629.5,-556 787.5,-556 787.5,-592"/>
<text text-anchor="middle" x="708.5" y="-571.2" font-family="Courier,monospace" font-size="11.00">OntologyCreateRequest</text>
</g>
<!-- \\OntologyCreateRequest&#45;&gt;\\EntityCreateRequest -->
<g id="edge55" class="edge"><title>\\OntologyCreateRequest&#45;&gt;\\EntityCreateRequest</title>
<path fill="none" stroke="black" d="M629.248,-574C605.182,-574 578.633,-574 554.333,-574"/>
<polygon fill="none" stroke="black" points="554.07,-570.5 544.07,-574 554.07,-577.5 554.07,-570.5"/>
</g>
</g>
</svg>
