<?xml version="1.0" encoding="UTF-8" standalone="no"?>
<!DOCTYPE svg PUBLIC "-//W3C//DTD SVG 1.1//EN"
 "http://www.w3.org/Graphics/SVG/1.1/DTD/svg11.dtd">
<!-- Generated by graphviz version 2.38.0 (20140413.2041)
 -->
<!-- Title: G Pages: 1 -->
<svg width="1128pt" height="1268pt"
 viewBox="0.00 0.00 1128.28 1268.00" xmlns="http://www.w3.org/2000/svg" xmlns:xlink="http://www.w3.org/1999/xlink">
<g id="graph0" class="graph" transform="scale(1 1) rotate(0) translate(4 1264)">
<title>G</title>
<polygon fill="white" stroke="none" points="-4,4 -4,-1264 1124.28,-1264 1124.28,4 -4,4"/>
<g id="clust1" class="cluster"><title>cluster_Global</title>
<path fill="none" stroke="gray" d="M20,-46C20,-46 1100.28,-46 1100.28,-46 1106.28,-46 1112.28,-52 1112.28,-58 1112.28,-58 1112.28,-1240 1112.28,-1240 1112.28,-1246 1106.28,-1252 1100.28,-1252 1100.28,-1252 20,-1252 20,-1252 14,-1252 8,-1246 8,-1240 8,-1240 8,-58 8,-58 8,-52 14,-46 20,-46"/>
<text text-anchor="middle" x="560.139" y="-1239.2" font-family="Times New Roman,serif" font-size="11.00" fill="gray">Global</text>
</g>
<!-- \\Collection -->
<g id="node1" class="node"><title>\\Collection</title>
<polygon fill="none" stroke="black" points="293.5,-1224 209.5,-1224 209.5,-1188 293.5,-1188 293.5,-1224"/>
<text text-anchor="middle" x="251.5" y="-1203.2" font-family="Courier,monospace" font-size="11.00">Collection</text>
</g>
<!-- \\DacuraObject -->
<g id="node5" class="node"><title>\\DacuraObject</title>
<polygon fill="none" stroke="black" points="114,-738 16,-738 16,-702 114,-702 114,-738"/>
<text text-anchor="middle" x="65" y="-717.2" font-family="Courier,monospace" font-size="11.00">DacuraObject</text>
</g>
<!-- \\Collection&#45;&gt;\\DacuraObject -->
<g id="edge1" class="edge"><title>\\Collection&#45;&gt;\\DacuraObject</title>
<path fill="none" stroke="black" d="M209.319,-1195.36C200.621,-1191.45 192.208,-1186.15 186,-1179 73.5628,-1049.51 64.6414,-827.036 65.2291,-748.481"/>
<polygon fill="none" stroke="black" points="68.7301,-748.422 65.3654,-738.376 61.7308,-748.328 68.7301,-748.422"/>
</g>
<!-- \\DacuraController -->
<g id="node2" class="node"><title>\\DacuraController</title>
<polygon fill="none" stroke="black" points="314,-225 189,-225 189,-189 314,-189 314,-225"/>
<text text-anchor="middle" x="251.5" y="-204.2" font-family="Courier,monospace" font-size="11.00">DacuraController</text>
</g>
<!-- \\DacuraController&#45;&gt;\\DacuraObject -->
<g id="edge2" class="edge"><title>\\DacuraController&#45;&gt;\\DacuraObject</title>
<path fill="none" stroke="black" d="M237.587,-225.349C223.356,-246.244 200.558,-281.798 186,-315 126.462,-450.79 86.1174,-624.711 71.7862,-691.834"/>
<polygon fill="none" stroke="black" points="68.3514,-691.16 69.7105,-701.667 75.2005,-692.606 68.3514,-691.16"/>
</g>
<!-- \\DacuraForm -->
<g id="node3" class="node"><title>\\DacuraForm</title>
<polygon fill="none" stroke="black" points="293.5,-1170 209.5,-1170 209.5,-1134 293.5,-1134 293.5,-1170"/>
<text text-anchor="middle" x="251.5" y="-1149.2" font-family="Courier,monospace" font-size="11.00">DacuraForm</text>
</g>
<!-- \\DacuraForm&#45;&gt;\\DacuraObject -->
<g id="edge3" class="edge"><title>\\DacuraForm&#45;&gt;\\DacuraObject</title>
<path fill="none" stroke="black" d="M209.485,-1141.21C200.781,-1137.31 192.323,-1132.05 186,-1125 85.6224,-1013.11 69.055,-820.749 66.4383,-748.517"/>
<polygon fill="none" stroke="black" points="69.9323,-748.261 66.1362,-738.369 62.9354,-748.469 69.9323,-748.261"/>
</g>
<!-- \\DacuraFormElement -->
<g id="node4" class="node"><title>\\DacuraFormElement</title>
<polygon fill="none" stroke="black" points="317,-1116 186,-1116 186,-1080 317,-1080 317,-1116"/>
<text text-anchor="middle" x="251.5" y="-1095.2" font-family="Courier,monospace" font-size="11.00">DacuraFormElement</text>
</g>
<!-- \\DacuraFormElement&#45;&gt;\\DacuraObject -->
<g id="edge4" class="edge"><title>\\DacuraFormElement&#45;&gt;\\DacuraObject</title>
<path fill="none" stroke="black" d="M196.696,-1079.94C192.787,-1077.33 189.151,-1074.37 186,-1071 97.64,-976.511 74.0619,-814.189 68.0048,-748.669"/>
<polygon fill="none" stroke="black" points="71.4578,-747.968 67.1204,-738.301 64.4832,-748.563 71.4578,-747.968"/>
</g>
<!-- \\DacuraResult -->
<g id="node6" class="node"><title>\\DacuraResult</title>
<polygon fill="none" stroke="black" points="300.5,-1062 202.5,-1062 202.5,-1026 300.5,-1026 300.5,-1062"/>
<text text-anchor="middle" x="251.5" y="-1041.2" font-family="Courier,monospace" font-size="11.00">DacuraResult</text>
</g>
<!-- \\DacuraResult&#45;&gt;\\DacuraObject -->
<g id="edge5" class="edge"><title>\\DacuraResult&#45;&gt;\\DacuraObject</title>
<path fill="none" stroke="black" d="M202.329,-1028.99C196.345,-1025.71 190.692,-1021.75 186,-1017 109.296,-939.335 79.6696,-806.167 70.0215,-748.265"/>
<polygon fill="none" stroke="black" points="73.4734,-747.686 68.4456,-738.36 66.5603,-748.786 73.4734,-747.686"/>
</g>
<!-- \\DacuraServer -->
<g id="node7" class="node"><title>\\DacuraServer</title>
<polygon fill="none" stroke="black" points="520.5,-198 422.5,-198 422.5,-162 520.5,-162 520.5,-198"/>
<text text-anchor="middle" x="471.5" y="-177.2" font-family="Courier,monospace" font-size="11.00">DacuraServer</text>
</g>
<!-- \\DacuraServer&#45;&gt;\\DacuraController -->
<g id="edge6" class="edge"><title>\\DacuraServer&#45;&gt;\\DacuraController</title>
<path fill="none" stroke="black" d="M422.389,-185.959C393.651,-189.518 356.598,-194.107 324.433,-198.091"/>
<polygon fill="none" stroke="black" points="323.673,-194.658 314.179,-199.361 324.533,-201.605 323.673,-194.658"/>
</g>
<!-- \\DacuraService -->
<g id="node8" class="node"><title>\\DacuraService</title>
<polygon fill="none" stroke="black" points="303.5,-468 199.5,-468 199.5,-432 303.5,-432 303.5,-468"/>
<text text-anchor="middle" x="251.5" y="-447.2" font-family="Courier,monospace" font-size="11.00">DacuraService</text>
</g>
<!-- \\DacuraService&#45;&gt;\\DacuraObject -->
<g id="edge7" class="edge"><title>\\DacuraService&#45;&gt;\\DacuraObject</title>
<path fill="none" stroke="black" d="M199.392,-467.167C194.556,-469.999 189.981,-473.259 186,-477 120.855,-538.211 86.3109,-642.404 72.8274,-692.069"/>
<polygon fill="none" stroke="black" points="69.4257,-691.243 70.2664,-701.805 76.1954,-693.024 69.4257,-691.243"/>
</g>
<!-- \\DacuraSession -->
<g id="node9" class="node"><title>\\DacuraSession</title>
<polygon fill="none" stroke="black" points="303.5,-1008 199.5,-1008 199.5,-972 303.5,-972 303.5,-1008"/>
<text text-anchor="middle" x="251.5" y="-987.2" font-family="Courier,monospace" font-size="11.00">DacuraSession</text>
</g>
<!-- \\DacuraSession&#45;&gt;\\DacuraObject -->
<g id="edge8" class="edge"><title>\\DacuraSession&#45;&gt;\\DacuraObject</title>
<path fill="none" stroke="black" d="M199.392,-972.833C194.556,-970.001 189.981,-966.741 186,-963 120.855,-901.789 86.3109,-797.596 72.8274,-747.931"/>
<polygon fill="none" stroke="black" points="76.1954,-746.976 70.2664,-738.195 69.4257,-748.757 76.1954,-746.976"/>
</g>
<!-- \\DacuraUser -->
<g id="node10" class="node"><title>\\DacuraUser</title>
<polygon fill="none" stroke="black" points="293.5,-954 209.5,-954 209.5,-918 293.5,-918 293.5,-954"/>
<text text-anchor="middle" x="251.5" y="-933.2" font-family="Courier,monospace" font-size="11.00">DacuraUser</text>
</g>
<!-- \\DacuraUser&#45;&gt;\\DacuraObject -->
<g id="edge9" class="edge"><title>\\DacuraUser&#45;&gt;\\DacuraObject</title>
<path fill="none" stroke="black" d="M209.464,-923.247C201.152,-919.492 192.866,-914.792 186,-909 132.207,-863.62 94.4765,-787.882 76.9978,-747.433"/>
<polygon fill="none" stroke="black" points="80.2061,-746.034 73.0898,-738.185 73.7581,-748.758 80.2061,-746.034"/>
</g>
<!-- \\DBManager -->
<g id="node11" class="node"><title>\\DBManager</title>
<polygon fill="none" stroke="black" points="510,-252 433,-252 433,-216 510,-216 510,-252"/>
<text text-anchor="middle" x="471.5" y="-231.2" font-family="Courier,monospace" font-size="11.00">DBManager</text>
</g>
<!-- \\DBManager&#45;&gt;\\DacuraController -->
<g id="edge10" class="edge"><title>\\DBManager&#45;&gt;\\DacuraController</title>
<path fill="none" stroke="black" d="M432.527,-229.297C402.755,-225.61 360.461,-220.371 324.348,-215.899"/>
<polygon fill="none" stroke="black" points="324.696,-212.415 314.341,-214.659 323.835,-219.362 324.696,-212.415"/>
</g>
<!-- \\FileManager -->
<g id="node12" class="node"><title>\\FileManager</title>
<polygon fill="none" stroke="black" points="517,-90 426,-90 426,-54 517,-54 517,-90"/>
<text text-anchor="middle" x="471.5" y="-69.2" font-family="Courier,monospace" font-size="11.00">FileManager</text>
</g>
<!-- \\FileManager&#45;&gt;\\DacuraController -->
<g id="edge11" class="edge"><title>\\FileManager&#45;&gt;\\DacuraController</title>
<path fill="none" stroke="black" d="M425.85,-82.1689C413.309,-86.2221 400.082,-91.7074 389,-99 348.764,-125.478 356.193,-152.002 317,-180 315.154,-181.319 313.234,-182.589 311.26,-183.81"/>
<polygon fill="none" stroke="black" points="309.314,-180.89 302.328,-188.855 312.756,-186.985 309.314,-180.89"/>
</g>
<!-- \\FileChannel -->
<g id="node13" class="node"><title>\\FileChannel</title>
<polygon fill="none" stroke="black" points="1070.78,-1143 979.778,-1143 979.778,-1107 1070.78,-1107 1070.78,-1143"/>
<text text-anchor="middle" x="1025.28" y="-1122.2" font-family="Courier,monospace" font-size="11.00">FileChannel</text>
</g>
<!-- \\PolicyEngine -->
<g id="node14" class="node"><title>\\PolicyEngine</title>
<polygon fill="none" stroke="black" points="300.5,-900 202.5,-900 202.5,-864 300.5,-864 300.5,-900"/>
<text text-anchor="middle" x="251.5" y="-879.2" font-family="Courier,monospace" font-size="11.00">PolicyEngine</text>
</g>
<!-- \\PolicyEngine&#45;&gt;\\DacuraObject -->
<g id="edge12" class="edge"><title>\\PolicyEngine&#45;&gt;\\DacuraObject</title>
<path fill="none" stroke="black" d="M202.351,-864.711C196.628,-861.835 191.038,-858.599 186,-855 143.268,-824.474 105.091,-776.114 83.7964,-746.317"/>
<polygon fill="none" stroke="black" points="86.6118,-744.236 77.9957,-738.07 80.8864,-748.263 86.6118,-744.236"/>
</g>
<!-- \\RequestLog -->
<g id="node15" class="node"><title>\\RequestLog</title>
<polygon fill="none" stroke="black" points="1067.28,-1008 983.278,-1008 983.278,-972 1067.28,-972 1067.28,-1008"/>
<text text-anchor="middle" x="1025.28" y="-987.2" font-family="Courier,monospace" font-size="11.00">RequestLog</text>
</g>
<!-- \\ServiceCall -->
<g id="node16" class="node"><title>\\ServiceCall</title>
<polygon fill="none" stroke="black" points="297,-846 206,-846 206,-810 297,-810 297,-846"/>
<text text-anchor="middle" x="251.5" y="-825.2" font-family="Courier,monospace" font-size="11.00">ServiceCall</text>
</g>
<!-- \\ServiceCall&#45;&gt;\\DacuraObject -->
<g id="edge13" class="edge"><title>\\ServiceCall&#45;&gt;\\DacuraObject</title>
<path fill="none" stroke="black" d="M205.895,-810.687C199.126,-807.671 192.302,-804.403 186,-801 154.877,-784.195 121.711,-761.391 98.1527,-744.26"/>
<polygon fill="none" stroke="black" points="100.063,-741.32 89.9294,-738.227 95.9219,-746.964 100.063,-741.32"/>
</g>
<!-- \\ServiceLoader -->
<g id="node17" class="node"><title>\\ServiceLoader</title>
<polygon fill="none" stroke="black" points="303.5,-792 199.5,-792 199.5,-756 303.5,-756 303.5,-792"/>
<text text-anchor="middle" x="251.5" y="-771.2" font-family="Courier,monospace" font-size="11.00">ServiceLoader</text>
</g>
<!-- \\ServiceLoader&#45;&gt;\\DacuraObject -->
<g id="edge14" class="edge"><title>\\ServiceLoader&#45;&gt;\\DacuraObject</title>
<path fill="none" stroke="black" d="M199.106,-758.958C175.772,-752.128 148.066,-744.019 123.99,-736.973"/>
<polygon fill="none" stroke="black" points="124.847,-733.577 114.266,-734.127 122.88,-740.295 124.847,-733.577"/>
</g>
<!-- \\BrowseDacuraServer -->
<g id="node18" class="node"><title>\\BrowseDacuraServer</title>
<polygon fill="none" stroke="black" points="819.139,-252 681.139,-252 681.139,-216 819.139,-216 819.139,-252"/>
<text text-anchor="middle" x="750.139" y="-231.2" font-family="Courier,monospace" font-size="11.00">BrowseDacuraServer</text>
</g>
<!-- \\BrowseDacuraServer&#45;&gt;\\DacuraServer -->
<g id="edge15" class="edge"><title>\\BrowseDacuraServer&#45;&gt;\\DacuraServer</title>
<path fill="none" stroke="black" d="M681.111,-220.721C634.953,-211.711 574.57,-199.924 530.653,-191.352"/>
<polygon fill="none" stroke="black" points="531.19,-187.89 520.705,-189.41 529.849,-194.761 531.19,-187.89"/>
</g>
<!-- \\BrowseService -->
<g id="node19" class="node"><title>\\BrowseService</title>
<polygon fill="none" stroke="black" points="523.5,-900 419.5,-900 419.5,-864 523.5,-864 523.5,-900"/>
<text text-anchor="middle" x="471.5" y="-879.2" font-family="Courier,monospace" font-size="11.00">BrowseService</text>
</g>
<!-- \\BrowseService&#45;&gt;\\DacuraService -->
<g id="edge16" class="edge"><title>\\BrowseService&#45;&gt;\\DacuraService</title>
<path fill="none" stroke="black" d="M419.469,-874.129C408.038,-870.118 396.957,-864.08 389,-855 276.289,-726.376 424.708,-609.842 317,-477 315.509,-475.161 313.871,-473.446 312.117,-471.846"/>
<polygon fill="none" stroke="black" points="313.868,-468.782 303.78,-465.544 309.647,-474.366 313.868,-468.782"/>
</g>
<!-- \\Candidate -->
<g id="node20" class="node"><title>\\Candidate</title>
<polygon fill="none" stroke="black" points="510,-576 433,-576 433,-540 510,-540 510,-576"/>
<text text-anchor="middle" x="471.5" y="-555.2" font-family="Courier,monospace" font-size="11.00">Candidate</text>
</g>
<!-- \\LDEntity -->
<g id="node40" class="node"><title>\\LDEntity</title>
<polygon fill="none" stroke="black" points="287,-414 216,-414 216,-378 287,-378 287,-414"/>
<text text-anchor="middle" x="251.5" y="-393.2" font-family="Courier,monospace" font-size="11.00">LDEntity</text>
</g>
<!-- \\Candidate&#45;&gt;\\LDEntity -->
<g id="edge17" class="edge"><title>\\Candidate&#45;&gt;\\LDEntity</title>
<path fill="none" stroke="black" d="M432.702,-551.034C418.002,-546.972 401.684,-540.669 389,-531 343.122,-496.025 361.506,-459.704 317,-423 310.876,-417.949 303.672,-413.717 296.34,-410.215"/>
<polygon fill="none" stroke="black" points="297.62,-406.955 287.055,-406.163 294.82,-413.371 297.62,-406.955"/>
</g>
<!-- \\CandidateCreateRequest -->
<g id="node21" class="node"><title>\\CandidateCreateRequest</title>
<polygon fill="none" stroke="black" points="832.639,-630 667.639,-630 667.639,-594 832.639,-594 832.639,-630"/>
<text text-anchor="middle" x="750.139" y="-609.2" font-family="Courier,monospace" font-size="11.00">CandidateCreateRequest</text>
</g>
<!-- \\EntityCreateRequest -->
<g id="node34" class="node"><title>\\EntityCreateRequest</title>
<polygon fill="none" stroke="black" points="544,-684 399,-684 399,-648 544,-648 544,-684"/>
<text text-anchor="middle" x="471.5" y="-663.2" font-family="Courier,monospace" font-size="11.00">EntityCreateRequest</text>
</g>
<!-- \\CandidateCreateRequest&#45;&gt;\\EntityCreateRequest -->
<g id="edge18" class="edge"><title>\\CandidateCreateRequest&#45;&gt;\\EntityCreateRequest</title>
<path fill="none" stroke="black" d="M667.634,-627.91C631.797,-634.905 589.8,-643.103 553.967,-650.098"/>
<polygon fill="none" stroke="black" points="553.178,-646.686 544.034,-652.037 554.519,-653.556 553.178,-646.686"/>
</g>
<!-- \\CandidateDacuraServer -->
<g id="node22" class="node"><title>\\CandidateDacuraServer</title>
<polygon fill="none" stroke="black" points="1104.28,-306 946.278,-306 946.278,-270 1104.28,-270 1104.28,-306"/>
<text text-anchor="middle" x="1025.28" y="-285.2" font-family="Courier,monospace" font-size="11.00">CandidateDacuraServer</text>
</g>
<!-- \\LdDacuraServer -->
<g id="node30" class="node"><title>\\LdDacuraServer</title>
<polygon fill="none" stroke="black" points="805.639,-306 694.639,-306 694.639,-270 805.639,-270 805.639,-306"/>
<text text-anchor="middle" x="750.139" y="-285.2" font-family="Courier,monospace" font-size="11.00">LdDacuraServer</text>
</g>
<!-- \\CandidateDacuraServer&#45;&gt;\\LdDacuraServer -->
<g id="edge19" class="edge"><title>\\CandidateDacuraServer&#45;&gt;\\LdDacuraServer</title>
<path fill="none" stroke="black" d="M946.007,-288C904.91,-288 855.141,-288 816.187,-288"/>
<polygon fill="none" stroke="black" points="816.018,-284.5 806.018,-288 816.017,-291.5 816.018,-284.5"/>
</g>
<!-- \\CandidateService -->
<g id="node23" class="node"><title>\\CandidateService</title>
<polygon fill="none" stroke="black" points="812.639,-900 687.639,-900 687.639,-864 812.639,-864 812.639,-900"/>
<text text-anchor="middle" x="750.139" y="-879.2" font-family="Courier,monospace" font-size="11.00">CandidateService</text>
</g>
<!-- \\LdService -->
<g id="node32" class="node"><title>\\LdService</title>
<polygon fill="none" stroke="black" points="510,-954 433,-954 433,-918 510,-918 510,-954"/>
<text text-anchor="middle" x="471.5" y="-933.2" font-family="Courier,monospace" font-size="11.00">LdService</text>
</g>
<!-- \\CandidateService&#45;&gt;\\LdService -->
<g id="edge20" class="edge"><title>\\CandidateService&#45;&gt;\\LdService</title>
<path fill="none" stroke="black" d="M687.4,-894.051C636.917,-903.906 566.56,-917.64 520.295,-926.67"/>
<polygon fill="none" stroke="black" points="519.374,-923.284 510.23,-928.635 520.716,-930.154 519.374,-923.284"/>
</g>
<!-- \\CandidateUpdateRequest -->
<g id="node24" class="node"><title>\\CandidateUpdateRequest</title>
<polygon fill="none" stroke="black" points="554,-360 389,-360 389,-324 554,-324 554,-360"/>
<text text-anchor="middle" x="471.5" y="-339.2" font-family="Courier,monospace" font-size="11.00">CandidateUpdateRequest</text>
</g>
<!-- \\EntityUpdate -->
<g id="node35" class="node"><title>\\EntityUpdate</title>
<polygon fill="none" stroke="black" points="300.5,-360 202.5,-360 202.5,-324 300.5,-324 300.5,-360"/>
<text text-anchor="middle" x="251.5" y="-339.2" font-family="Courier,monospace" font-size="11.00">EntityUpdate</text>
</g>
<!-- \\CandidateUpdateRequest&#45;&gt;\\EntityUpdate -->
<g id="edge21" class="edge"><title>\\CandidateUpdateRequest&#45;&gt;\\EntityUpdate</title>
<path fill="none" stroke="black" d="M388.705,-342C362.815,-342 334.738,-342 310.839,-342"/>
<polygon fill="none" stroke="black" points="310.524,-338.5 300.524,-342 310.524,-345.5 310.524,-338.5"/>
</g>
<!-- \\ConfigDacuraServer -->
<g id="node25" class="node"><title>\\ConfigDacuraServer</title>
<polygon fill="none" stroke="black" points="819.139,-198 681.139,-198 681.139,-162 819.139,-162 819.139,-198"/>
<text text-anchor="middle" x="750.139" y="-177.2" font-family="Courier,monospace" font-size="11.00">ConfigDacuraServer</text>
</g>
<!-- \\ConfigDacuraServer&#45;&gt;\\DacuraServer -->
<g id="edge22" class="edge"><title>\\ConfigDacuraServer&#45;&gt;\\DacuraServer</title>
<path fill="none" stroke="black" d="M681.111,-180C635.05,-180 574.824,-180 530.931,-180"/>
<polygon fill="none" stroke="black" points="530.705,-176.5 520.705,-180 530.705,-183.5 530.705,-176.5"/>
</g>
<!-- \\ConfigService -->
<g id="node26" class="node"><title>\\ConfigService</title>
<polygon fill="none" stroke="black" points="523.5,-846 419.5,-846 419.5,-810 523.5,-810 523.5,-846"/>
<text text-anchor="middle" x="471.5" y="-825.2" font-family="Courier,monospace" font-size="11.00">ConfigService</text>
</g>
<!-- \\ConfigService&#45;&gt;\\DacuraService -->
<g id="edge23" class="edge"><title>\\ConfigService&#45;&gt;\\DacuraService</title>
<path fill="none" stroke="black" d="M419.238,-819.808C407.951,-815.802 396.994,-809.848 389,-801 290.104,-691.549 411.636,-590.155 317,-477 315.481,-475.184 313.82,-473.488 312.046,-471.905"/>
<polygon fill="none" stroke="black" points="313.757,-468.815 303.644,-465.656 309.58,-474.432 313.757,-468.815"/>
</g>
<!-- \\CoreService -->
<g id="node27" class="node"><title>\\CoreService</title>
<polygon fill="none" stroke="black" points="517,-1224 426,-1224 426,-1188 517,-1188 517,-1224"/>
<text text-anchor="middle" x="471.5" y="-1203.2" font-family="Courier,monospace" font-size="11.00">CoreService</text>
</g>
<!-- \\CoreService&#45;&gt;\\DacuraService -->
<g id="edge24" class="edge"><title>\\CoreService&#45;&gt;\\DacuraService</title>
<path fill="none" stroke="black" d="M425.712,-1200.74C411.946,-1196.88 398.052,-1190.27 389,-1179 192.631,-934.445 503.87,-728.888 317,-477 315.418,-474.867 313.635,-472.902 311.698,-471.091"/>
<polygon fill="none" stroke="black" points="313.619,-468.154 303.555,-464.843 309.358,-473.707 313.619,-468.154"/>
</g>
<!-- \\HomeDacuraServer -->
<g id="node28" class="node"><title>\\HomeDacuraServer</title>
<polygon fill="none" stroke="black" points="812.639,-144 687.639,-144 687.639,-108 812.639,-108 812.639,-144"/>
<text text-anchor="middle" x="750.139" y="-123.2" font-family="Courier,monospace" font-size="11.00">HomeDacuraServer</text>
</g>
<!-- \\HomeDacuraServer&#45;&gt;\\DacuraServer -->
<g id="edge25" class="edge"><title>\\HomeDacuraServer&#45;&gt;\\DacuraServer</title>
<path fill="none" stroke="black" d="M687.4,-138.051C640.618,-147.183 576.769,-159.647 530.842,-168.612"/>
<polygon fill="none" stroke="black" points="529.888,-165.232 520.744,-170.583 531.229,-172.102 529.888,-165.232"/>
</g>
<!-- \\HomeService -->
<g id="node29" class="node"><title>\\HomeService</title>
<polygon fill="none" stroke="black" points="517,-1170 426,-1170 426,-1134 517,-1134 517,-1170"/>
<text text-anchor="middle" x="471.5" y="-1149.2" font-family="Courier,monospace" font-size="11.00">HomeService</text>
</g>
<!-- \\HomeService&#45;&gt;\\DacuraService -->
<g id="edge26" class="edge"><title>\\HomeService&#45;&gt;\\DacuraService</title>
<path fill="none" stroke="black" d="M425.767,-1146.69C412.005,-1142.83 398.1,-1136.24 389,-1125 206.619,-899.822 490.633,-708.991 317,-477 315.409,-474.874 313.619,-472.914 311.675,-471.108"/>
<polygon fill="none" stroke="black" points="313.586,-468.163 303.515,-464.873 309.336,-473.725 313.586,-468.163"/>
</g>
<!-- \\LdDacuraServer&#45;&gt;\\DacuraServer -->
<g id="edge27" class="edge"><title>\\LdDacuraServer&#45;&gt;\\DacuraServer</title>
<path fill="none" stroke="black" d="M694.496,-281.178C672.528,-277.132 647.389,-270.801 626,-261 589.636,-244.337 589.448,-225.532 554,-207 546.5,-203.079 538.317,-199.569 530.124,-196.481"/>
<polygon fill="none" stroke="black" points="531.135,-193.125 520.541,-193.049 528.776,-199.716 531.135,-193.125"/>
</g>
<!-- \\LDDBManager -->
<g id="node31" class="node"><title>\\LDDBManager</title>
<polygon fill="none" stroke="black" points="795.639,-468 704.639,-468 704.639,-432 795.639,-432 795.639,-468"/>
<text text-anchor="middle" x="750.139" y="-447.2" font-family="Courier,monospace" font-size="11.00">LDDBManager</text>
</g>
<!-- \\LDDBManager&#45;&gt;\\DBManager -->
<g id="edge28" class="edge"><title>\\LDDBManager&#45;&gt;\\DBManager</title>
<path fill="none" stroke="black" d="M704.444,-449.834C678.975,-447.562 647.878,-440.845 626,-423 564.944,-373.199 612.384,-313.909 554,-261 544.5,-252.391 532.185,-246.52 520.017,-242.517"/>
<polygon fill="none" stroke="black" points="520.928,-239.137 510.348,-239.692 518.965,-245.856 520.928,-239.137"/>
</g>
<!-- \\LdService&#45;&gt;\\DacuraService -->
<g id="edge29" class="edge"><title>\\LdService&#45;&gt;\\DacuraService</title>
<path fill="none" stroke="black" d="M432.873,-932.115C417.117,-928.555 399.954,-921.795 389,-909 262.414,-761.135 437.836,-629.6 317,-477 315.384,-474.96 313.587,-473.072 311.65,-471.325"/>
<polygon fill="none" stroke="black" points="313.672,-468.467 303.572,-465.264 309.47,-474.066 313.672,-468.467"/>
</g>
<!-- \\AnalysisResults -->
<g id="node33" class="node"><title>\\AnalysisResults</title>
<polygon fill="none" stroke="black" points="530.5,-792 412.5,-792 412.5,-756 530.5,-756 530.5,-792"/>
<text text-anchor="middle" x="471.5" y="-771.2" font-family="Courier,monospace" font-size="11.00">AnalysisResults</text>
</g>
<!-- \\EntityCreateRequest&#45;&gt;\\LDEntity -->
<g id="edge30" class="edge"><title>\\EntityCreateRequest&#45;&gt;\\LDEntity</title>
<path fill="none" stroke="black" d="M400.256,-647.9C396.181,-645.319 392.376,-642.37 389,-639 317.38,-567.512 385.833,-497.176 317,-423 311.426,-416.994 304.308,-412.278 296.846,-408.589"/>
<polygon fill="none" stroke="black" points="297.869,-405.217 287.302,-404.446 295.082,-411.639 297.869,-405.217"/>
</g>
<!-- \\EntityUpdate&#45;&gt;\\DacuraObject -->
<g id="edge31" class="edge"><title>\\EntityUpdate&#45;&gt;\\DacuraObject</title>
<path fill="none" stroke="black" d="M202.411,-356.597C196.341,-359.95 190.643,-364.035 186,-369 97.64,-463.489 74.0619,-625.811 68.0048,-691.331"/>
<polygon fill="none" stroke="black" points="64.4832,-691.437 67.1204,-701.699 71.4578,-692.032 64.4832,-691.437"/>
</g>
<!-- \\FakeTripleStore -->
<g id="node36" class="node"><title>\\FakeTripleStore</title>
<polygon fill="none" stroke="black" points="1084.28,-576 966.278,-576 966.278,-540 1084.28,-540 1084.28,-576"/>
<text text-anchor="middle" x="1025.28" y="-555.2" font-family="Courier,monospace" font-size="11.00">FakeTripleStore</text>
</g>
<!-- \\GraphAnalysisResults -->
<g id="node37" class="node"><title>\\GraphAnalysisResults</title>
<polygon fill="none" stroke="black" points="826.139,-846 674.139,-846 674.139,-810 826.139,-810 826.139,-846"/>
<text text-anchor="middle" x="750.139" y="-825.2" font-family="Courier,monospace" font-size="11.00">GraphAnalysisResults</text>
</g>
<!-- \\GraphAnalysisResults&#45;&gt;\\AnalysisResults -->
<g id="edge32" class="edge"><title>\\GraphAnalysisResults&#45;&gt;\\AnalysisResults</title>
<path fill="none" stroke="black" d="M673.912,-813.316C632.317,-805.196 581.036,-795.186 540.628,-787.299"/>
<polygon fill="none" stroke="black" points="541.087,-783.822 530.602,-785.342 539.746,-790.693 541.087,-783.822"/>
</g>
<!-- \\GraphManager -->
<g id="node38" class="node"><title>\\GraphManager</title>
<polygon fill="none" stroke="black" points="300.5,-738 202.5,-738 202.5,-702 300.5,-702 300.5,-738"/>
<text text-anchor="middle" x="251.5" y="-717.2" font-family="Courier,monospace" font-size="11.00">GraphManager</text>
</g>
<!-- \\GraphManager&#45;&gt;\\DacuraObject -->
<g id="edge33" class="edge"><title>\\GraphManager&#45;&gt;\\DacuraObject</title>
<path fill="none" stroke="black" d="M202.025,-720C178.19,-720 149.28,-720 124.252,-720"/>
<polygon fill="none" stroke="black" points="124.151,-716.5 114.151,-720 124.151,-723.5 124.151,-716.5"/>
</g>
<!-- \\LDDelta -->
<g id="node39" class="node"><title>\\LDDelta</title>
<polygon fill="none" stroke="black" points="283.5,-684 219.5,-684 219.5,-648 283.5,-648 283.5,-684"/>
<text text-anchor="middle" x="251.5" y="-663.2" font-family="Courier,monospace" font-size="11.00">LDDelta</text>
</g>
<!-- \\LDDelta&#45;&gt;\\DacuraObject -->
<g id="edge34" class="edge"><title>\\LDDelta&#45;&gt;\\DacuraObject</title>
<path fill="none" stroke="black" d="M219.202,-675.16C193.227,-682.763 155.581,-693.781 124.108,-702.993"/>
<polygon fill="none" stroke="black" points="122.743,-699.745 114.129,-705.913 124.709,-706.464 122.743,-699.745"/>
</g>
<!-- \\LDEntity&#45;&gt;\\DacuraObject -->
<g id="edge35" class="edge"><title>\\LDEntity&#45;&gt;\\DacuraObject</title>
<path fill="none" stroke="black" d="M215.67,-404.869C205.075,-408.961 194.104,-414.795 186,-423 109.296,-500.665 79.6696,-633.833 70.0215,-691.735"/>
<polygon fill="none" stroke="black" points="66.5603,-691.214 68.4456,-701.64 73.4734,-692.314 66.5603,-691.214"/>
</g>
<!-- \\LDPropertyValue -->
<g id="node41" class="node"><title>\\LDPropertyValue</title>
<polygon fill="none" stroke="black" points="310.5,-630 192.5,-630 192.5,-594 310.5,-594 310.5,-630"/>
<text text-anchor="middle" x="251.5" y="-609.2" font-family="Courier,monospace" font-size="11.00">LDPropertyValue</text>
</g>
<!-- \\LDPropertyValue&#45;&gt;\\DacuraObject -->
<g id="edge36" class="edge"><title>\\LDPropertyValue&#45;&gt;\\DacuraObject</title>
<path fill="none" stroke="black" d="M204.173,-630.085C197.973,-632.884 191.768,-635.885 186,-639 154.877,-655.805 121.711,-678.609 98.1527,-695.74"/>
<polygon fill="none" stroke="black" points="95.9219,-693.036 89.9294,-701.773 100.063,-698.68 95.9219,-693.036"/>
</g>
<!-- \\NSResolver -->
<g id="node42" class="node"><title>\\NSResolver</title>
<polygon fill="none" stroke="black" points="293.5,-576 209.5,-576 209.5,-540 293.5,-540 293.5,-576"/>
<text text-anchor="middle" x="251.5" y="-555.2" font-family="Courier,monospace" font-size="11.00">NSResolver</text>
</g>
<!-- \\NSResolver&#45;&gt;\\DacuraObject -->
<g id="edge37" class="edge"><title>\\NSResolver&#45;&gt;\\DacuraObject</title>
<path fill="none" stroke="black" d="M209.459,-571.92C201.326,-575.561 193.112,-579.919 186,-585 143.268,-615.526 105.091,-663.886 83.7964,-693.683"/>
<polygon fill="none" stroke="black" points="80.8864,-691.737 77.9957,-701.93 86.6118,-695.764 80.8864,-691.737"/>
</g>
<!-- \\SimpleRequestResults -->
<g id="node43" class="node"><title>\\SimpleRequestResults</title>
<polygon fill="none" stroke="black" points="826.139,-792 674.139,-792 674.139,-756 826.139,-756 826.139,-792"/>
<text text-anchor="middle" x="750.139" y="-771.2" font-family="Courier,monospace" font-size="11.00">SimpleRequestResults</text>
</g>
<!-- \\SimpleRequestResults&#45;&gt;\\AnalysisResults -->
<g id="edge38" class="edge"><title>\\SimpleRequestResults&#45;&gt;\\AnalysisResults</title>
<path fill="none" stroke="black" d="M673.912,-774C632.317,-774 581.036,-774 540.628,-774"/>
<polygon fill="none" stroke="black" points="540.602,-770.5 530.602,-774 540.602,-777.5 540.602,-770.5"/>
</g>
<!-- \\UpdateAnalysisResults -->
<g id="node44" class="node"><title>\\UpdateAnalysisResults</title>
<polygon fill="none" stroke="black" points="1104.28,-792 946.278,-792 946.278,-756 1104.28,-756 1104.28,-792"/>
<text text-anchor="middle" x="1025.28" y="-771.2" font-family="Courier,monospace" font-size="11.00">UpdateAnalysisResults</text>
</g>
<!-- \\UpdateAnalysisResults&#45;&gt;\\SimpleRequestResults -->
<g id="edge39" class="edge"><title>\\UpdateAnalysisResults&#45;&gt;\\SimpleRequestResults</title>
<path fill="none" stroke="black" d="M946.007,-774C911.86,-774 871.726,-774 836.783,-774"/>
<polygon fill="none" stroke="black" points="836.597,-770.5 826.597,-774 836.597,-777.5 836.597,-770.5"/>
</g>
<!-- \\Schema -->
<g id="node45" class="node"><title>\\Schema</title>
<polygon fill="none" stroke="black" points="280,-522 223,-522 223,-486 280,-486 280,-522"/>
<text text-anchor="middle" x="251.5" y="-501.2" font-family="Courier,monospace" font-size="11.00">Schema</text>
</g>
<!-- \\Schema&#45;&gt;\\DacuraObject -->
<g id="edge40" class="edge"><title>\\Schema&#45;&gt;\\DacuraObject</title>
<path fill="none" stroke="black" d="M222.744,-511.469C210.525,-515.746 196.578,-522.077 186,-531 132.207,-576.38 94.4765,-652.118 76.9978,-692.567"/>
<polygon fill="none" stroke="black" points="73.7581,-691.242 73.0898,-701.815 80.2061,-693.966 73.7581,-691.242"/>
</g>
<!-- \\LoginDacuraServer -->
<g id="node46" class="node"><title>\\LoginDacuraServer</title>
<polygon fill="none" stroke="black" points="815.639,-90 684.639,-90 684.639,-54 815.639,-54 815.639,-90"/>
<text text-anchor="middle" x="750.139" y="-69.2" font-family="Courier,monospace" font-size="11.00">LoginDacuraServer</text>
</g>
<!-- \\LoginDacuraServer&#45;&gt;\\DacuraServer -->
<g id="edge41" class="edge"><title>\\LoginDacuraServer&#45;&gt;\\DacuraServer</title>
<path fill="none" stroke="black" d="M684.499,-80.7842C665.128,-84.8296 644.206,-90.6577 626,-99 589.636,-115.663 589.448,-134.468 554,-153 546.5,-156.921 538.317,-160.431 530.124,-163.519"/>
<polygon fill="none" stroke="black" points="528.776,-160.284 520.541,-166.951 531.135,-166.875 528.776,-160.284"/>
</g>
<!-- \\LoginService -->
<g id="node47" class="node"><title>\\LoginService</title>
<polygon fill="none" stroke="black" points="520.5,-1116 422.5,-1116 422.5,-1080 520.5,-1080 520.5,-1116"/>
<text text-anchor="middle" x="471.5" y="-1095.2" font-family="Courier,monospace" font-size="11.00">LoginService</text>
</g>
<!-- \\LoginService&#45;&gt;\\DacuraService -->
<g id="edge42" class="edge"><title>\\LoginService&#45;&gt;\\DacuraService</title>
<path fill="none" stroke="black" d="M422.427,-1091.63C409.811,-1087.66 397.401,-1081.27 389,-1071 220.596,-865.184 477.407,-689.108 317,-477 315.43,-474.924 313.671,-473.007 311.765,-471.236"/>
<polygon fill="none" stroke="black" points="313.842,-468.417 303.778,-465.105 309.579,-473.97 313.842,-468.417"/>
</g>
<!-- \\Graph -->
<g id="node48" class="node"><title>\\Graph</title>
<polygon fill="none" stroke="black" points="498.5,-630 444.5,-630 444.5,-594 498.5,-594 498.5,-630"/>
<text text-anchor="middle" x="471.5" y="-609.2" font-family="Courier,monospace" font-size="11.00">Graph</text>
</g>
<!-- \\Graph&#45;&gt;\\LDEntity -->
<g id="edge43" class="edge"><title>\\Graph&#45;&gt;\\LDEntity</title>
<path fill="none" stroke="black" d="M444.231,-608.883C426.734,-605.579 404.242,-598.813 389,-585 330.616,-532.091 373.317,-478.103 317,-423 311.204,-417.329 304.042,-412.779 296.62,-409.152"/>
<polygon fill="none" stroke="black" points="297.73,-405.818 287.164,-405.035 294.936,-412.236 297.73,-405.818"/>
</g>
<!-- \\GraphCreateRequest -->
<g id="node49" class="node"><title>\\GraphCreateRequest</title>
<polygon fill="none" stroke="black" points="819.139,-576 681.139,-576 681.139,-540 819.139,-540 819.139,-576"/>
<text text-anchor="middle" x="750.139" y="-555.2" font-family="Courier,monospace" font-size="11.00">GraphCreateRequest</text>
</g>
<!-- \\GraphCreateRequest&#45;&gt;\\EntityCreateRequest -->
<g id="edge44" class="edge"><title>\\GraphCreateRequest&#45;&gt;\\EntityCreateRequest</title>
<path fill="none" stroke="black" d="M680.99,-567.533C662.623,-571.539 643.111,-577.159 626,-585 589.636,-601.663 589.448,-620.468 554,-639 550.702,-640.724 547.272,-642.369 543.767,-643.933"/>
<polygon fill="none" stroke="black" points="542.218,-640.787 534.353,-647.886 544.929,-647.241 542.218,-640.787"/>
</g>
<!-- \\GraphUpdateRequest -->
<g id="node50" class="node"><title>\\GraphUpdateRequest</title>
<polygon fill="none" stroke="black" points="540.5,-306 402.5,-306 402.5,-270 540.5,-270 540.5,-306"/>
<text text-anchor="middle" x="471.5" y="-285.2" font-family="Courier,monospace" font-size="11.00">GraphUpdateRequest</text>
</g>
<!-- \\GraphUpdateRequest&#45;&gt;\\EntityUpdate -->
<g id="edge45" class="edge"><title>\\GraphUpdateRequest&#45;&gt;\\EntityUpdate</title>
<path fill="none" stroke="black" d="M402.42,-304.864C372.917,-312.172 338.736,-320.639 310.468,-327.641"/>
<polygon fill="none" stroke="black" points="309.598,-324.25 300.733,-330.052 311.282,-331.045 309.598,-324.25"/>
</g>
<!-- \\Ontology -->
<g id="node51" class="node"><title>\\Ontology</title>
<polygon fill="none" stroke="black" points="507,-522 436,-522 436,-486 507,-486 507,-522"/>
<text text-anchor="middle" x="471.5" y="-501.2" font-family="Courier,monospace" font-size="11.00">Ontology</text>
</g>
<!-- \\Ontology&#45;&gt;\\LDEntity -->
<g id="edge46" class="edge"><title>\\Ontology&#45;&gt;\\LDEntity</title>
<path fill="none" stroke="black" d="M435.791,-495.204C420.932,-490.759 403.662,-484.665 389,-477 353.552,-458.468 351.713,-442.874 317,-423 310.554,-419.309 303.504,-415.841 296.508,-412.698"/>
<polygon fill="none" stroke="black" points="297.632,-409.371 287.063,-408.626 294.86,-415.799 297.632,-409.371"/>
</g>
<!-- \\OntologyCreateRequest -->
<g id="node52" class="node"><title>\\OntologyCreateRequest</title>
<polygon fill="none" stroke="black" points="829.139,-738 671.139,-738 671.139,-702 829.139,-702 829.139,-738"/>
<text text-anchor="middle" x="750.139" y="-717.2" font-family="Courier,monospace" font-size="11.00">OntologyCreateRequest</text>
</g>
<!-- \\OntologyCreateRequest&#45;&gt;\\EntityCreateRequest -->
<g id="edge47" class="edge"><title>\\OntologyCreateRequest&#45;&gt;\\EntityCreateRequest</title>
<path fill="none" stroke="black" d="M670.975,-704.742C634.609,-697.644 591.355,-689.2 554.522,-682.011"/>
<polygon fill="none" stroke="black" points="554.8,-678.499 544.314,-680.018 553.459,-685.369 554.8,-678.499"/>
</g>
<!-- \\OntologyUpdateRequest -->
<g id="node53" class="node"><title>\\OntologyUpdateRequest</title>
<polygon fill="none" stroke="black" points="550.5,-468 392.5,-468 392.5,-432 550.5,-432 550.5,-468"/>
<text text-anchor="middle" x="471.5" y="-447.2" font-family="Courier,monospace" font-size="11.00">OntologyUpdateRequest</text>
</g>
<!-- \\OntologyUpdateRequest&#45;&gt;\\EntityUpdate -->
<g id="edge48" class="edge"><title>\\OntologyUpdateRequest&#45;&gt;\\EntityUpdate</title>
<path fill="none" stroke="black" d="M408.647,-431.886C401.884,-429.21 395.208,-426.246 389,-423 353.552,-404.468 351.713,-388.874 317,-369 314.346,-367.481 311.591,-365.999 308.779,-364.562"/>
<polygon fill="none" stroke="black" points="310.186,-361.355 299.661,-360.136 307.128,-367.652 310.186,-361.355"/>
</g>
<!-- \\SchemaDacuraServer -->
<g id="node54" class="node"><title>\\SchemaDacuraServer</title>
<polygon fill="none" stroke="black" points="1094.28,-360 956.278,-360 956.278,-324 1094.28,-324 1094.28,-360"/>
<text text-anchor="middle" x="1025.28" y="-339.2" font-family="Courier,monospace" font-size="11.00">SchemaDacuraServer</text>
</g>
<!-- \\SchemaDacuraServer&#45;&gt;\\LdDacuraServer -->
<g id="edge49" class="edge"><title>\\SchemaDacuraServer&#45;&gt;\\LdDacuraServer</title>
<path fill="none" stroke="black" d="M956.058,-328.513C913.051,-320.01 857.859,-309.099 815.591,-300.742"/>
<polygon fill="none" stroke="black" points="816.176,-297.29 805.687,-298.784 814.818,-304.157 816.176,-297.29"/>
</g>
<!-- \\SchemaService -->
<g id="node55" class="node"><title>\\SchemaService</title>
<polygon fill="none" stroke="black" points="802.139,-1008 698.139,-1008 698.139,-972 802.139,-972 802.139,-1008"/>
<text text-anchor="middle" x="750.139" y="-987.2" font-family="Courier,monospace" font-size="11.00">SchemaService</text>
</g>
<!-- \\SchemaService&#45;&gt;\\LdService -->
<g id="edge50" class="edge"><title>\\SchemaService&#45;&gt;\\LdService</title>
<path fill="none" stroke="black" d="M698.077,-980.033C647.249,-970.111 569.851,-955.003 520.226,-945.316"/>
<polygon fill="none" stroke="black" points="520.868,-941.876 510.383,-943.395 519.527,-948.746 520.868,-941.876"/>
</g>
<!-- \\seshatParsing -->
<g id="node56" class="node"><title>\\seshatParsing</title>
<polygon fill="none" stroke="black" points="1077.28,-90 973.278,-90 973.278,-54 1077.28,-54 1077.28,-90"/>
<text text-anchor="middle" x="1025.28" y="-69.2" font-family="Courier,monospace" font-size="11.00">seshatParsing</text>
</g>
<!-- \\hafriedlander\\Peg\\Parser\\Basic -->
<g id="node68" class="node"><title>\\hafriedlander\\Peg\\Parser\\Basic</title>
<ellipse fill="none" stroke="black" cx="750.139" cy="-18" rx="124.278" ry="18"/>
<text text-anchor="middle" x="750.139" y="-14.3" font-family="Times New Roman,serif" font-size="14.00" fill="gray">\hafriedlander\Peg\Parser\Basic</text>
</g>
<!-- \\seshatParsing&#45;&gt;\\hafriedlander\\Peg\\Parser\\Basic -->
<g id="edge51" class="edge"><title>\\seshatParsing&#45;&gt;\\hafriedlander\\Peg\\Parser\\Basic</title>
<path fill="none" stroke="black" d="M973.261,-61.7322C944.249,-55.9092 907.237,-48.5077 874.278,-42 861.678,-39.512 848.348,-36.8968 835.295,-34.345"/>
<polygon fill="none" stroke="black" points="835.868,-30.891 825.383,-32.4092 834.526,-37.7612 835.868,-30.891"/>
</g>
<!-- \\ScraperDacuraServer -->
<g id="node57" class="node"><title>\\ScraperDacuraServer</title>
<polygon fill="none" stroke="black" points="822.639,-414 677.639,-414 677.639,-378 822.639,-378 822.639,-414"/>
<text text-anchor="middle" x="750.139" y="-393.2" font-family="Courier,monospace" font-size="11.00">ScraperDacuraServer</text>
</g>
<!-- \\ScraperDacuraServer&#45;&gt;\\DacuraServer -->
<g id="edge52" class="edge"><title>\\ScraperDacuraServer&#45;&gt;\\DacuraServer</title>
<path fill="none" stroke="black" d="M677.329,-391.763C659.051,-387.766 640.501,-380.828 626,-369 564.944,-319.199 612.384,-259.909 554,-207 547.187,-200.826 538.925,-196.059 530.308,-192.38"/>
<polygon fill="none" stroke="black" points="531.461,-189.075 520.87,-188.801 528.978,-195.62 531.461,-189.075"/>
</g>
<!-- \\ScraperService -->
<g id="node58" class="node"><title>\\ScraperService</title>
<polygon fill="none" stroke="black" points="527,-1062 416,-1062 416,-1026 527,-1026 527,-1062"/>
<text text-anchor="middle" x="471.5" y="-1041.2" font-family="Courier,monospace" font-size="11.00">ScraperService</text>
</g>
<!-- \\ScraperService&#45;&gt;\\DacuraService -->
<g id="edge53" class="edge"><title>\\ScraperService&#45;&gt;\\DacuraService</title>
<path fill="none" stroke="black" d="M415.742,-1035.18C405.55,-1031.18 395.941,-1025.38 389,-1017 234.558,-830.528 464.195,-669.244 317,-477 315.418,-474.934 313.649,-473.024 311.734,-471.26"/>
<polygon fill="none" stroke="black" points="313.796,-468.43 303.722,-465.147 309.55,-473.995 313.796,-468.43"/>
</g>
<!-- \\UsersDacuraServer -->
<g id="node59" class="node"><title>\\UsersDacuraServer</title>
<polygon fill="none" stroke="black" points="815.639,-360 684.639,-360 684.639,-324 815.639,-324 815.639,-360"/>
<text text-anchor="middle" x="750.139" y="-339.2" font-family="Courier,monospace" font-size="11.00">UsersDacuraServer</text>
</g>
<!-- \\UsersDacuraServer&#45;&gt;\\DacuraServer -->
<g id="edge54" class="edge"><title>\\UsersDacuraServer&#45;&gt;\\DacuraServer</title>
<path fill="none" stroke="black" d="M684.341,-337.251C664.327,-333.399 643.078,-326.667 626,-315 578.365,-282.459 599.878,-241.975 554,-207 546.938,-201.616 538.748,-197.276 530.339,-193.785"/>
<polygon fill="none" stroke="black" points="531.392,-190.441 520.8,-190.194 528.926,-196.993 531.392,-190.441"/>
</g>
<!-- \\UsersService -->
<g id="node60" class="node"><title>\\UsersService</title>
<polygon fill="none" stroke="black" points="520.5,-1008 422.5,-1008 422.5,-972 520.5,-972 520.5,-1008"/>
<text text-anchor="middle" x="471.5" y="-987.2" font-family="Courier,monospace" font-size="11.00">UsersService</text>
</g>
<!-- \\UsersService&#45;&gt;\\DacuraService -->
<g id="edge55" class="edge"><title>\\UsersService&#45;&gt;\\DacuraService</title>
<path fill="none" stroke="black" d="M422.175,-983.351C409.708,-979.369 397.44,-973.041 389,-963 248.5,-795.848 451.002,-649.405 317,-477 315.403,-474.945 313.621,-473.045 311.697,-471.289"/>
<polygon fill="none" stroke="black" points="313.74,-468.446 303.655,-465.199 309.514,-474.026 313.74,-468.446"/>
</g>
<!-- \\Widget -->
<g id="node61" class="node"><title>\\Widget</title>
<polygon fill="none" stroke="black" points="500,-738 443,-738 443,-702 500,-702 500,-738"/>
<text text-anchor="middle" x="471.5" y="-717.2" font-family="Courier,monospace" font-size="11.00">Widget</text>
</g>
<!-- \\Widget&#45;&gt;\\LDEntity -->
<g id="edge56" class="edge"><title>\\Widget&#45;&gt;\\LDEntity</title>
<path fill="none" stroke="black" d="M442.73,-717.489C425.035,-714.451 402.903,-707.753 389,-693 303.824,-602.617 398.656,-516.575 317,-423 311.496,-416.692 304.277,-411.824 296.666,-408.077"/>
<polygon fill="none" stroke="black" points="297.846,-404.775 287.277,-404.041 295.082,-411.206 297.846,-404.775"/>
</g>
<!-- \\WidgetCreateRequest -->
<g id="node62" class="node"><title>\\WidgetCreateRequest</title>
<polygon fill="none" stroke="black" points="822.639,-684 677.639,-684 677.639,-648 822.639,-648 822.639,-684"/>
<text text-anchor="middle" x="750.139" y="-663.2" font-family="Courier,monospace" font-size="11.00">WidgetCreateRequest</text>
</g>
<!-- \\WidgetCreateRequest&#45;&gt;\\EntityCreateRequest -->
<g id="edge57" class="edge"><title>\\WidgetCreateRequest&#45;&gt;\\EntityCreateRequest</title>
<path fill="none" stroke="black" d="M677.538,-666C639.916,-666 593.635,-666 554.57,-666"/>
<polygon fill="none" stroke="black" points="554.281,-662.5 544.281,-666 554.281,-669.5 554.281,-662.5"/>
</g>
<!-- \\WidgetDacuraServer -->
<g id="node63" class="node"><title>\\WidgetDacuraServer</title>
<polygon fill="none" stroke="black" points="1094.28,-252 956.278,-252 956.278,-216 1094.28,-216 1094.28,-252"/>
<text text-anchor="middle" x="1025.28" y="-231.2" font-family="Courier,monospace" font-size="11.00">WidgetDacuraServer</text>
</g>
<!-- \\WidgetDacuraServer&#45;&gt;\\LdDacuraServer -->
<g id="edge58" class="edge"><title>\\WidgetDacuraServer&#45;&gt;\\LdDacuraServer</title>
<path fill="none" stroke="black" d="M956.058,-247.487C913.051,-255.99 857.859,-266.901 815.591,-275.258"/>
<polygon fill="none" stroke="black" points="814.818,-271.843 805.687,-277.216 816.176,-278.71 814.818,-271.843"/>
</g>
<!-- \\WidgetService -->
<g id="node64" class="node"><title>\\WidgetService</title>
<polygon fill="none" stroke="black" points="802.139,-954 698.139,-954 698.139,-918 802.139,-918 802.139,-954"/>
<text text-anchor="middle" x="750.139" y="-933.2" font-family="Courier,monospace" font-size="11.00">WidgetService</text>
</g>
<!-- \\WidgetService&#45;&gt;\\LdService -->
<g id="edge59" class="edge"><title>\\WidgetService&#45;&gt;\\LdService</title>
<path fill="none" stroke="black" d="M698.077,-936C647.355,-936 570.174,-936 520.538,-936"/>
<polygon fill="none" stroke="black" points="520.383,-932.5 510.383,-936 520.383,-939.5 520.383,-932.5"/>
</g>
<!-- \\WidgetUpdateRequest -->
<g id="node65" class="node"><title>\\WidgetUpdateRequest</title>
<polygon fill="none" stroke="black" points="544,-414 399,-414 399,-378 544,-378 544,-414"/>
<text text-anchor="middle" x="471.5" y="-393.2" font-family="Courier,monospace" font-size="11.00">WidgetUpdateRequest</text>
</g>
<!-- \\WidgetUpdateRequest&#45;&gt;\\EntityUpdate -->
<g id="edge60" class="edge"><title>\\WidgetUpdateRequest&#45;&gt;\\EntityUpdate</title>
<path fill="none" stroke="black" d="M398.817,-378.244C370.191,-371.153 337.659,-363.094 310.552,-356.38"/>
<polygon fill="none" stroke="black" points="311.376,-352.978 300.828,-353.971 309.693,-359.773 311.376,-352.978"/>
</g>
<!-- \\UserManager -->
<g id="node66" class="node"><title>\\UserManager</title>
<polygon fill="none" stroke="black" points="517,-144 426,-144 426,-108 517,-108 517,-144"/>
<text text-anchor="middle" x="471.5" y="-123.2" font-family="Courier,monospace" font-size="11.00">UserManager</text>
</g>
<!-- \\UserManager&#45;&gt;\\DacuraController -->
<g id="edge61" class="edge"><title>\\UserManager&#45;&gt;\\DacuraController</title>
<path fill="none" stroke="black" d="M425.929,-140.259C413.895,-144.246 400.909,-148.676 389,-153 361.281,-163.065 330.731,-175.065 305.573,-185.193"/>
<polygon fill="none" stroke="black" points="304.173,-181.984 296.212,-188.975 306.795,-188.474 304.173,-181.984"/>
</g>
<!-- \\UserRole -->
<g id="node67" class="node"><title>\\UserRole</title>
<polygon fill="none" stroke="black" points="287,-171 216,-171 216,-135 287,-135 287,-171"/>
<text text-anchor="middle" x="251.5" y="-150.2" font-family="Courier,monospace" font-size="11.00">UserRole</text>
</g>
<!-- \\UserRole&#45;&gt;\\DacuraObject -->
<g id="edge62" class="edge"><title>\\UserRole&#45;&gt;\\DacuraObject</title>
<path fill="none" stroke="black" d="M215.842,-160.731C204.873,-164.779 193.632,-170.874 186,-180 119.191,-259.882 79.457,-591.957 68.8711,-691.607"/>
<polygon fill="none" stroke="black" points="65.3634,-691.498 67.8036,-701.808 72.3254,-692.227 65.3634,-691.498"/>
</g>
</g>
</svg>
