<?xml version="1.0" encoding="UTF-8" standalone="no"?>
<!DOCTYPE svg PUBLIC "-//W3C//DTD SVG 1.1//EN"
 "http://www.w3.org/Graphics/SVG/1.1/DTD/svg11.dtd">
<!-- Generated by graphviz version 2.38.0 (20140413.2041)
 -->
<!-- Title: G Pages: 1 -->
<svg width="1045pt" height="1122pt"
 viewBox="0.00 0.00 1045.00 1122.00" xmlns="http://www.w3.org/2000/svg" xmlns:xlink="http://www.w3.org/1999/xlink">
<g id="graph0" class="graph" transform="scale(1 1) rotate(0) translate(4 1118)">
<title>G</title>
<polygon fill="white" stroke="none" points="-4,4 -4,-1118 1041,-1118 1041,4 -4,4"/>
<g id="clust1" class="cluster"><title>cluster_Global</title>
<path fill="none" stroke="gray" d="M20,-8C20,-8 1017,-8 1017,-8 1023,-8 1029,-14 1029,-20 1029,-20 1029,-1094 1029,-1094 1029,-1100 1023,-1106 1017,-1106 1017,-1106 20,-1106 20,-1106 14,-1106 8,-1100 8,-1094 8,-1094 8,-20 8,-20 8,-14 14,-8 20,-8"/>
<text text-anchor="middle" x="518.5" y="-1093.2" font-family="Times New Roman,serif" font-size="11.00" fill="gray">Global</text>
</g>
<!-- \\Collection -->
<g id="node1" class="node"><title>\\Collection</title>
<polygon fill="none" stroke="black" points="293.5,-1078 209.5,-1078 209.5,-1042 293.5,-1042 293.5,-1078"/>
<text text-anchor="middle" x="251.5" y="-1057.2" font-family="Courier,monospace" font-size="11.00">Collection</text>
</g>
<!-- \\DacuraObject -->
<g id="node5" class="node"><title>\\DacuraObject</title>
<polygon fill="none" stroke="black" points="114,-565 16,-565 16,-529 114,-529 114,-565"/>
<text text-anchor="middle" x="65" y="-544.2" font-family="Courier,monospace" font-size="11.00">DacuraObject</text>
</g>
<!-- \\Collection&#45;&gt;\\DacuraObject -->
<g id="edge1" class="edge"><title>\\Collection&#45;&gt;\\DacuraObject</title>
<path fill="none" stroke="black" d="M209.248,-1049.42C200.553,-1045.51 192.159,-1040.19 186,-1033 125.299,-962.123 81.9953,-668.169 69.6152,-575.271"/>
<polygon fill="none" stroke="black" points="73.0659,-574.667 68.291,-565.209 66.1257,-575.58 73.0659,-574.667"/>
</g>
<!-- \\DacuraController -->
<g id="node2" class="node"><title>\\DacuraController</title>
<polygon fill="none" stroke="black" points="314,-214 189,-214 189,-178 314,-178 314,-214"/>
<text text-anchor="middle" x="251.5" y="-193.2" font-family="Courier,monospace" font-size="11.00">DacuraController</text>
</g>
<!-- \\DacuraController&#45;&gt;\\DacuraObject -->
<g id="edge2" class="edge"><title>\\DacuraController&#45;&gt;\\DacuraObject</title>
<path fill="none" stroke="black" d="M196.788,-214.149C192.859,-216.735 189.193,-219.671 186,-223 103.353,-309.17 76.6807,-457.217 68.9035,-518.823"/>
<polygon fill="none" stroke="black" points="65.4043,-518.61 67.699,-528.953 72.3554,-519.436 65.4043,-518.61"/>
</g>
<!-- \\DacuraForm -->
<g id="node3" class="node"><title>\\DacuraForm</title>
<polygon fill="none" stroke="black" points="293.5,-1024 209.5,-1024 209.5,-988 293.5,-988 293.5,-1024"/>
<text text-anchor="middle" x="251.5" y="-1003.2" font-family="Courier,monospace" font-size="11.00">DacuraForm</text>
</g>
<!-- \\DacuraForm&#45;&gt;\\DacuraObject -->
<g id="edge3" class="edge"><title>\\DacuraForm&#45;&gt;\\DacuraObject</title>
<path fill="none" stroke="black" d="M209.397,-995.293C200.696,-991.383 192.262,-986.102 186,-979 79.5222,-858.245 66.7674,-650.628 65.7959,-575.326"/>
<polygon fill="none" stroke="black" points="69.2951,-575.179 65.7283,-565.202 62.2952,-575.226 69.2951,-575.179"/>
</g>
<!-- \\DacuraFormElement -->
<g id="node4" class="node"><title>\\DacuraFormElement</title>
<polygon fill="none" stroke="black" points="317,-970 186,-970 186,-934 317,-934 317,-970"/>
<text text-anchor="middle" x="251.5" y="-949.2" font-family="Courier,monospace" font-size="11.00">DacuraFormElement</text>
</g>
<!-- \\DacuraFormElement&#45;&gt;\\DacuraObject -->
<g id="edge4" class="edge"><title>\\DacuraFormElement&#45;&gt;\\DacuraObject</title>
<path fill="none" stroke="black" d="M196.308,-933.805C192.534,-931.234 189.032,-928.314 186,-925 91.6022,-821.799 71.4567,-644.378 67.1619,-575.5"/>
<polygon fill="none" stroke="black" points="70.6504,-575.195 66.5997,-565.406 63.6613,-575.585 70.6504,-575.195"/>
</g>
<!-- \\DacuraServer -->
<g id="node6" class="node"><title>\\DacuraServer</title>
<polygon fill="none" stroke="black" points="520.5,-484 422.5,-484 422.5,-448 520.5,-448 520.5,-484"/>
<text text-anchor="middle" x="471.5" y="-463.2" font-family="Courier,monospace" font-size="11.00">DacuraServer</text>
</g>
<!-- \\DacuraServer&#45;&gt;\\DacuraController -->
<g id="edge5" class="edge"><title>\\DacuraServer&#45;&gt;\\DacuraController</title>
<path fill="none" stroke="black" d="M422.416,-458.074C410.247,-454.074 398.073,-448.056 389,-439 317.38,-367.512 385.833,-297.176 317,-223 316.117,-222.049 315.196,-221.13 314.241,-220.243"/>
<polygon fill="none" stroke="black" points="316.36,-217.456 306.332,-214.036 312.038,-222.963 316.36,-217.456"/>
</g>
<!-- \\DacuraService -->
<g id="node7" class="node"><title>\\DacuraService</title>
<polygon fill="none" stroke="black" points="303.5,-268 199.5,-268 199.5,-232 303.5,-232 303.5,-268"/>
<text text-anchor="middle" x="251.5" y="-247.2" font-family="Courier,monospace" font-size="11.00">DacuraService</text>
</g>
<!-- \\DacuraService&#45;&gt;\\DacuraObject -->
<g id="edge6" class="edge"><title>\\DacuraService&#45;&gt;\\DacuraObject</title>
<path fill="none" stroke="black" d="M199.236,-267.004C194.429,-269.868 189.905,-273.18 186,-277 115.019,-346.451 82.7682,-465.268 71.2623,-519.069"/>
<polygon fill="none" stroke="black" points="67.8209,-518.428 69.2324,-528.929 74.6771,-519.84 67.8209,-518.428"/>
</g>
<!-- \\DacuraSession -->
<g id="node8" class="node"><title>\\DacuraSession</title>
<polygon fill="none" stroke="black" points="303.5,-916 199.5,-916 199.5,-880 303.5,-880 303.5,-916"/>
<text text-anchor="middle" x="251.5" y="-895.2" font-family="Courier,monospace" font-size="11.00">DacuraSession</text>
</g>
<!-- \\DacuraSession&#45;&gt;\\DacuraObject -->
<g id="edge7" class="edge"><title>\\DacuraSession&#45;&gt;\\DacuraObject</title>
<path fill="none" stroke="black" d="M199.302,-881.438C194.424,-878.484 189.865,-875.03 186,-871 103.353,-784.83 76.6807,-636.783 68.9035,-575.177"/>
<polygon fill="none" stroke="black" points="72.3554,-574.564 67.699,-565.047 65.4043,-575.39 72.3554,-574.564"/>
</g>
<!-- \\DacuraUser -->
<g id="node9" class="node"><title>\\DacuraUser</title>
<polygon fill="none" stroke="black" points="293.5,-862 209.5,-862 209.5,-826 293.5,-826 293.5,-862"/>
<text text-anchor="middle" x="251.5" y="-841.2" font-family="Courier,monospace" font-size="11.00">DacuraUser</text>
</g>
<!-- \\DacuraUser&#45;&gt;\\DacuraObject -->
<g id="edge8" class="edge"><title>\\DacuraUser&#45;&gt;\\DacuraObject</title>
<path fill="none" stroke="black" d="M209.459,-832.296C200.958,-828.453 192.594,-823.452 186,-817 115.019,-747.549 82.7682,-628.732 71.2623,-574.931"/>
<polygon fill="none" stroke="black" points="74.6771,-574.16 69.2324,-565.071 67.8209,-575.572 74.6771,-574.16"/>
</g>
<!-- \\DBManager -->
<g id="node10" class="node"><title>\\DBManager</title>
<polygon fill="none" stroke="black" points="510,-538 433,-538 433,-502 510,-502 510,-538"/>
<text text-anchor="middle" x="471.5" y="-517.2" font-family="Courier,monospace" font-size="11.00">DBManager</text>
</g>
<!-- \\DBManager&#45;&gt;\\DacuraController -->
<g id="edge9" class="edge"><title>\\DBManager&#45;&gt;\\DacuraController</title>
<path fill="none" stroke="black" d="M432.601,-515.415C417.177,-511.716 400.347,-505.041 389,-493 303.824,-402.617 398.656,-316.575 317,-223 316.262,-222.154 315.493,-221.334 314.696,-220.539"/>
<polygon fill="none" stroke="black" points="316.795,-217.732 306.864,-214.041 312.325,-223.12 316.795,-217.732"/>
</g>
<!-- \\FileManager -->
<g id="node11" class="node"><title>\\FileManager</title>
<polygon fill="none" stroke="black" points="517,-592 426,-592 426,-556 517,-556 517,-592"/>
<text text-anchor="middle" x="471.5" y="-571.2" font-family="Courier,monospace" font-size="11.00">FileManager</text>
</g>
<!-- \\FileManager&#45;&gt;\\DacuraController -->
<g id="edge10" class="edge"><title>\\FileManager&#45;&gt;\\DacuraController</title>
<path fill="none" stroke="black" d="M425.605,-567.862C412.164,-563.934 398.493,-557.507 389,-547 290.104,-437.549 411.636,-336.155 317,-223 316.387,-222.267 315.75,-221.553 315.092,-220.858"/>
<polygon fill="none" stroke="black" points="317.169,-218.027 307.32,-214.121 312.584,-223.316 317.169,-218.027"/>
</g>
<!-- \\FileChannel -->
<g id="node12" class="node"><title>\\FileChannel</title>
<polygon fill="none" stroke="black" points="987.5,-1010 896.5,-1010 896.5,-974 987.5,-974 987.5,-1010"/>
<text text-anchor="middle" x="942" y="-989.2" font-family="Courier,monospace" font-size="11.00">FileChannel</text>
</g>
<!-- \\RequestLog -->
<g id="node13" class="node"><title>\\RequestLog</title>
<polygon fill="none" stroke="black" points="984,-835 900,-835 900,-799 984,-799 984,-835"/>
<text text-anchor="middle" x="942" y="-814.2" font-family="Courier,monospace" font-size="11.00">RequestLog</text>
</g>
<!-- \\ServiceCall -->
<g id="node14" class="node"><title>\\ServiceCall</title>
<polygon fill="none" stroke="black" points="297,-808 206,-808 206,-772 297,-772 297,-808"/>
<text text-anchor="middle" x="251.5" y="-787.2" font-family="Courier,monospace" font-size="11.00">ServiceCall</text>
</g>
<!-- \\ServiceCall&#45;&gt;\\DacuraObject -->
<g id="edge11" class="edge"><title>\\ServiceCall&#45;&gt;\\DacuraObject</title>
<path fill="none" stroke="black" d="M205.847,-775.962C198.715,-772.46 191.789,-768.181 186,-763 126.69,-709.915 90.3161,-620.311 74.7873,-575.013"/>
<polygon fill="none" stroke="black" points="78.0223,-573.65 71.5369,-565.272 71.3822,-575.865 78.0223,-573.65"/>
</g>
<!-- \\ServiceLoader -->
<g id="node15" class="node"><title>\\ServiceLoader</title>
<polygon fill="none" stroke="black" points="303.5,-754 199.5,-754 199.5,-718 303.5,-718 303.5,-754"/>
<text text-anchor="middle" x="251.5" y="-733.2" font-family="Courier,monospace" font-size="11.00">ServiceLoader</text>
</g>
<!-- \\ServiceLoader&#45;&gt;\\DacuraObject -->
<g id="edge12" class="edge"><title>\\ServiceLoader&#45;&gt;\\DacuraObject</title>
<path fill="none" stroke="black" d="M199.71,-717.898C194.868,-715.255 190.204,-712.295 186,-709 137.909,-671.301 99.6006,-609.677 80.0988,-574.294"/>
<polygon fill="none" stroke="black" points="82.9378,-572.185 75.1045,-565.052 76.7794,-575.513 82.9378,-572.185"/>
</g>
<!-- \\BrowseDacuraServer -->
<g id="node16" class="node"><title>\\BrowseDacuraServer</title>
<polygon fill="none" stroke="black" points="777.5,-646 639.5,-646 639.5,-610 777.5,-610 777.5,-646"/>
<text text-anchor="middle" x="708.5" y="-625.2" font-family="Courier,monospace" font-size="11.00">BrowseDacuraServer</text>
</g>
<!-- \\BrowseDacuraServer&#45;&gt;\\DacuraServer -->
<g id="edge13" class="edge"><title>\\BrowseDacuraServer&#45;&gt;\\DacuraServer</title>
<path fill="none" stroke="black" d="M640.245,-609.87C635.207,-607.285 630.386,-604.344 626,-601 580.122,-566.025 599.878,-527.975 554,-493 546.938,-487.616 538.748,-483.276 530.339,-479.785"/>
<polygon fill="none" stroke="black" points="531.392,-476.441 520.8,-476.194 528.926,-482.993 531.392,-476.441"/>
</g>
<!-- \\BrowseService -->
<g id="node17" class="node"><title>\\BrowseService</title>
<polygon fill="none" stroke="black" points="523.5,-754 419.5,-754 419.5,-718 523.5,-718 523.5,-754"/>
<text text-anchor="middle" x="471.5" y="-733.2" font-family="Courier,monospace" font-size="11.00">BrowseService</text>
</g>
<!-- \\BrowseService&#45;&gt;\\DacuraService -->
<g id="edge14" class="edge"><title>\\BrowseService&#45;&gt;\\DacuraService</title>
<path fill="none" stroke="black" d="M419.322,-728.256C407.894,-724.242 396.852,-718.172 389,-709 262.414,-561.135 437.836,-429.6 317,-277 315.384,-274.96 313.587,-273.072 311.65,-271.325"/>
<polygon fill="none" stroke="black" points="313.672,-268.467 303.572,-265.264 309.47,-274.066 313.672,-268.467"/>
</g>
<!-- \\Candidate -->
<g id="node18" class="node"><title>\\Candidate</title>
<polygon fill="none" stroke="black" points="510,-160 433,-160 433,-124 510,-124 510,-160"/>
<text text-anchor="middle" x="471.5" y="-139.2" font-family="Courier,monospace" font-size="11.00">Candidate</text>
</g>
<!-- \\LDEntity -->
<g id="node40" class="node"><title>\\LDEntity</title>
<polygon fill="none" stroke="black" points="287,-106 216,-106 216,-70 287,-70 287,-106"/>
<text text-anchor="middle" x="251.5" y="-85.2" font-family="Courier,monospace" font-size="11.00">LDEntity</text>
</g>
<!-- \\Candidate&#45;&gt;\\LDEntity -->
<g id="edge15" class="edge"><title>\\Candidate&#45;&gt;\\LDEntity</title>
<path fill="none" stroke="black" d="M432.527,-132.594C394.741,-123.234 336.785,-108.878 296.893,-98.9964"/>
<polygon fill="none" stroke="black" points="297.711,-95.5934 287.163,-96.5863 296.028,-102.388 297.711,-95.5934"/>
</g>
<!-- \\CandidateCreateRequest -->
<g id="node19" class="node"><title>\\CandidateCreateRequest</title>
<polygon fill="none" stroke="black" points="791,-214 626,-214 626,-178 791,-178 791,-214"/>
<text text-anchor="middle" x="708.5" y="-193.2" font-family="Courier,monospace" font-size="11.00">CandidateCreateRequest</text>
</g>
<!-- \\EntityCreateRequest -->
<g id="node34" class="node"><title>\\EntityCreateRequest</title>
<polygon fill="none" stroke="black" points="544,-268 399,-268 399,-232 544,-232 544,-268"/>
<text text-anchor="middle" x="471.5" y="-247.2" font-family="Courier,monospace" font-size="11.00">EntityCreateRequest</text>
</g>
<!-- \\CandidateCreateRequest&#45;&gt;\\EntityCreateRequest -->
<g id="edge16" class="edge"><title>\\CandidateCreateRequest&#45;&gt;\\EntityCreateRequest</title>
<path fill="none" stroke="black" d="M628.922,-214.056C604.881,-219.581 578.389,-225.668 554.149,-231.238"/>
<polygon fill="none" stroke="black" points="553.232,-227.857 544.27,-233.508 554.8,-234.68 553.232,-227.857"/>
</g>
<!-- \\CandidateDacuraServer -->
<g id="node20" class="node"><title>\\CandidateDacuraServer</title>
<polygon fill="none" stroke="black" points="1021,-538 863,-538 863,-502 1021,-502 1021,-538"/>
<text text-anchor="middle" x="942" y="-517.2" font-family="Courier,monospace" font-size="11.00">CandidateDacuraServer</text>
</g>
<!-- \\LdDacuraServer -->
<g id="node29" class="node"><title>\\LdDacuraServer</title>
<polygon fill="none" stroke="black" points="764,-484 653,-484 653,-448 764,-448 764,-484"/>
<text text-anchor="middle" x="708.5" y="-463.2" font-family="Courier,monospace" font-size="11.00">LdDacuraServer</text>
</g>
<!-- \\CandidateDacuraServer&#45;&gt;\\LdDacuraServer -->
<g id="edge17" class="edge"><title>\\CandidateDacuraServer&#45;&gt;\\LdDacuraServer</title>
<path fill="none" stroke="black" d="M863.592,-501.944C834.56,-495.172 801.899,-487.553 774.144,-481.079"/>
<polygon fill="none" stroke="black" points="774.69,-477.612 764.156,-478.749 773.1,-484.429 774.69,-477.612"/>
</g>
<!-- \\CandidateService -->
<g id="node21" class="node"><title>\\CandidateService</title>
<polygon fill="none" stroke="black" points="771,-889 646,-889 646,-853 771,-853 771,-889"/>
<text text-anchor="middle" x="708.5" y="-868.2" font-family="Courier,monospace" font-size="11.00">CandidateService</text>
</g>
<!-- \\LdService -->
<g id="node31" class="node"><title>\\LdService</title>
<polygon fill="none" stroke="black" points="510,-862 433,-862 433,-826 510,-826 510,-862"/>
<text text-anchor="middle" x="471.5" y="-841.2" font-family="Courier,monospace" font-size="11.00">LdService</text>
</g>
<!-- \\CandidateService&#45;&gt;\\LdService -->
<g id="edge18" class="edge"><title>\\CandidateService&#45;&gt;\\LdService</title>
<path fill="none" stroke="black" d="M645.757,-863.906C606.645,-859.412 556.803,-853.686 520.628,-849.53"/>
<polygon fill="none" stroke="black" points="520.673,-846.012 510.338,-848.347 519.873,-852.966 520.673,-846.012"/>
</g>
<!-- \\CandidateUpdateRequest -->
<g id="node22" class="node"><title>\\CandidateUpdateRequest</title>
<polygon fill="none" stroke="black" points="554,-322 389,-322 389,-286 554,-286 554,-322"/>
<text text-anchor="middle" x="471.5" y="-301.2" font-family="Courier,monospace" font-size="11.00">CandidateUpdateRequest</text>
</g>
<!-- \\EntityUpdate -->
<g id="node35" class="node"><title>\\EntityUpdate</title>
<polygon fill="none" stroke="black" points="300.5,-160 202.5,-160 202.5,-124 300.5,-124 300.5,-160"/>
<text text-anchor="middle" x="251.5" y="-139.2" font-family="Courier,monospace" font-size="11.00">EntityUpdate</text>
</g>
<!-- \\CandidateUpdateRequest&#45;&gt;\\EntityUpdate -->
<g id="edge19" class="edge"><title>\\CandidateUpdateRequest&#45;&gt;\\EntityUpdate</title>
<path fill="none" stroke="black" d="M403.245,-285.87C398.207,-283.285 393.386,-280.344 389,-277 343.122,-242.025 361.506,-205.704 317,-169 314.641,-167.055 312.122,-165.231 309.497,-163.523"/>
<polygon fill="none" stroke="black" points="311.221,-160.477 300.82,-158.459 307.693,-166.523 311.221,-160.477"/>
</g>
<!-- \\ConfigDacuraServer -->
<g id="node23" class="node"><title>\\ConfigDacuraServer</title>
<polygon fill="none" stroke="black" points="777.5,-592 639.5,-592 639.5,-556 777.5,-556 777.5,-592"/>
<text text-anchor="middle" x="708.5" y="-571.2" font-family="Courier,monospace" font-size="11.00">ConfigDacuraServer</text>
</g>
<!-- \\ConfigDacuraServer&#45;&gt;\\DacuraServer -->
<g id="edge20" class="edge"><title>\\ConfigDacuraServer&#45;&gt;\\DacuraServer</title>
<path fill="none" stroke="black" d="M645.647,-555.886C638.884,-553.21 632.208,-550.246 626,-547 590.552,-528.468 589.448,-511.532 554,-493 546.5,-489.079 538.317,-485.569 530.124,-482.481"/>
<polygon fill="none" stroke="black" points="531.135,-479.125 520.541,-479.049 528.776,-485.716 531.135,-479.125"/>
</g>
<!-- \\ConfigForm -->
<g id="node24" class="node"><title>\\ConfigForm</title>
<polygon fill="none" stroke="black" points="293.5,-700 209.5,-700 209.5,-664 293.5,-664 293.5,-700"/>
<text text-anchor="middle" x="251.5" y="-679.2" font-family="Courier,monospace" font-size="11.00">ConfigForm</text>
</g>
<!-- \\ConfigForm&#45;&gt;\\DacuraObject -->
<g id="edge21" class="edge"><title>\\ConfigForm&#45;&gt;\\DacuraObject</title>
<path fill="none" stroke="black" d="M209.199,-667.153C201.254,-663.626 193.179,-659.547 186,-655 148.824,-631.452 112.111,-596.164 89.2764,-572.394"/>
<polygon fill="none" stroke="black" points="91.7889,-569.957 82.3674,-565.111 86.7104,-574.775 91.7889,-569.957"/>
</g>
<!-- \\ConfigService -->
<g id="node25" class="node"><title>\\ConfigService</title>
<polygon fill="none" stroke="black" points="523.5,-700 419.5,-700 419.5,-664 523.5,-664 523.5,-700"/>
<text text-anchor="middle" x="471.5" y="-679.2" font-family="Courier,monospace" font-size="11.00">ConfigService</text>
</g>
<!-- \\ConfigService&#45;&gt;\\DacuraService -->
<g id="edge22" class="edge"><title>\\ConfigService&#45;&gt;\\DacuraService</title>
<path fill="none" stroke="black" d="M419.469,-674.129C408.038,-670.118 396.957,-664.08 389,-655 276.289,-526.376 424.708,-409.842 317,-277 315.509,-275.161 313.871,-273.446 312.117,-271.846"/>
<polygon fill="none" stroke="black" points="313.868,-268.782 303.78,-265.544 309.647,-274.366 313.868,-268.782"/>
</g>
<!-- \\CoreService -->
<g id="node26" class="node"><title>\\CoreService</title>
<polygon fill="none" stroke="black" points="517,-1024 426,-1024 426,-988 517,-988 517,-1024"/>
<text text-anchor="middle" x="471.5" y="-1003.2" font-family="Courier,monospace" font-size="11.00">CoreService</text>
</g>
<!-- \\CoreService&#45;&gt;\\DacuraService -->
<g id="edge23" class="edge"><title>\\CoreService&#45;&gt;\\DacuraService</title>
<path fill="none" stroke="black" d="M425.712,-1000.74C411.946,-996.881 398.052,-990.274 389,-979 192.631,-734.445 503.87,-528.888 317,-277 315.418,-274.867 313.635,-272.902 311.698,-271.091"/>
<polygon fill="none" stroke="black" points="313.619,-268.154 303.555,-264.843 309.358,-273.707 313.619,-268.154"/>
</g>
<!-- \\HomeDacuraServer -->
<g id="node27" class="node"><title>\\HomeDacuraServer</title>
<polygon fill="none" stroke="black" points="771,-538 646,-538 646,-502 771,-502 771,-538"/>
<text text-anchor="middle" x="708.5" y="-517.2" font-family="Courier,monospace" font-size="11.00">HomeDacuraServer</text>
</g>
<!-- \\HomeDacuraServer&#45;&gt;\\DacuraServer -->
<g id="edge24" class="edge"><title>\\HomeDacuraServer&#45;&gt;\\DacuraServer</title>
<path fill="none" stroke="black" d="M645.757,-505.812C610.234,-497.65 565.861,-487.453 530.914,-479.423"/>
<polygon fill="none" stroke="black" points="531.388,-475.941 520.858,-477.112 529.82,-482.763 531.388,-475.941"/>
</g>
<!-- \\HomeService -->
<g id="node28" class="node"><title>\\HomeService</title>
<polygon fill="none" stroke="black" points="517,-970 426,-970 426,-934 517,-934 517,-970"/>
<text text-anchor="middle" x="471.5" y="-949.2" font-family="Courier,monospace" font-size="11.00">HomeService</text>
</g>
<!-- \\HomeService&#45;&gt;\\DacuraService -->
<g id="edge25" class="edge"><title>\\HomeService&#45;&gt;\\DacuraService</title>
<path fill="none" stroke="black" d="M425.767,-946.694C412.005,-942.833 398.1,-936.235 389,-925 206.619,-699.822 490.633,-508.991 317,-277 315.409,-274.874 313.619,-272.914 311.675,-271.108"/>
<polygon fill="none" stroke="black" points="313.586,-268.163 303.515,-264.873 309.336,-273.725 313.586,-268.163"/>
</g>
<!-- \\LdDacuraServer&#45;&gt;\\DacuraServer -->
<g id="edge26" class="edge"><title>\\LdDacuraServer&#45;&gt;\\DacuraServer</title>
<path fill="none" stroke="black" d="M652.996,-466C616.434,-466 568.32,-466 530.962,-466"/>
<polygon fill="none" stroke="black" points="530.729,-462.5 520.729,-466 530.729,-469.5 530.729,-462.5"/>
</g>
<!-- \\LDDBManager -->
<g id="node30" class="node"><title>\\LDDBManager</title>
<polygon fill="none" stroke="black" points="754,-700 663,-700 663,-664 754,-664 754,-700"/>
<text text-anchor="middle" x="708.5" y="-679.2" font-family="Courier,monospace" font-size="11.00">LDDBManager</text>
</g>
<!-- \\LDDBManager&#45;&gt;\\DBManager -->
<g id="edge27" class="edge"><title>\\LDDBManager&#45;&gt;\\DBManager</title>
<path fill="none" stroke="black" d="M662.594,-672.924C649.909,-668.885 636.668,-663.133 626,-655 580.122,-620.025 599.878,-581.975 554,-547 544.091,-539.446 531.963,-533.946 520.122,-529.965"/>
<polygon fill="none" stroke="black" points="520.884,-526.538 510.298,-526.966 518.84,-533.233 520.884,-526.538"/>
</g>
<!-- \\LdService&#45;&gt;\\DacuraService -->
<g id="edge28" class="edge"><title>\\LdService&#45;&gt;\\DacuraService</title>
<path fill="none" stroke="black" d="M432.677,-840.281C416.882,-836.753 399.744,-829.972 389,-817 234.558,-630.528 464.195,-469.244 317,-277 315.418,-274.934 313.649,-273.024 311.734,-271.26"/>
<polygon fill="none" stroke="black" points="313.796,-268.43 303.722,-265.147 309.55,-273.995 313.796,-268.43"/>
</g>
<!-- \\AnalysisResults -->
<g id="node32" class="node"><title>\\AnalysisResults</title>
<polygon fill="none" stroke="black" points="530.5,-214 412.5,-214 412.5,-178 530.5,-178 530.5,-214"/>
<text text-anchor="middle" x="471.5" y="-193.2" font-family="Courier,monospace" font-size="11.00">AnalysisResults</text>
</g>
<!-- \\DacuraResult -->
<g id="node33" class="node"><title>\\DacuraResult</title>
<polygon fill="none" stroke="black" points="300.5,-646 202.5,-646 202.5,-610 300.5,-610 300.5,-646"/>
<text text-anchor="middle" x="251.5" y="-625.2" font-family="Courier,monospace" font-size="11.00">DacuraResult</text>
</g>
<!-- \\DacuraResult&#45;&gt;\\DacuraObject -->
<g id="edge29" class="edge"><title>\\DacuraResult&#45;&gt;\\DacuraObject</title>
<path fill="none" stroke="black" d="M206.717,-609.856C199.773,-606.925 192.681,-603.901 186,-601 162.452,-590.775 136.456,-579.122 114.698,-569.265"/>
<polygon fill="none" stroke="black" points="115.891,-565.963 105.338,-565.017 112.998,-572.337 115.891,-565.963"/>
</g>
<!-- \\EntityCreateRequest&#45;&gt;\\LDEntity -->
<g id="edge30" class="edge"><title>\\EntityCreateRequest&#45;&gt;\\LDEntity</title>
<path fill="none" stroke="black" d="M403.245,-231.87C398.207,-229.285 393.386,-226.344 389,-223 343.122,-188.025 361.506,-151.704 317,-115 310.876,-109.949 303.672,-105.717 296.34,-102.215"/>
<polygon fill="none" stroke="black" points="297.62,-98.9553 287.055,-98.163 294.82,-105.371 297.62,-98.9553"/>
</g>
<!-- \\EntityUpdate&#45;&gt;\\DacuraObject -->
<g id="edge31" class="edge"><title>\\EntityUpdate&#45;&gt;\\DacuraObject</title>
<path fill="none" stroke="black" d="M202.31,-156.504C196.256,-159.87 190.588,-163.984 186,-169 91.6022,-272.201 71.4567,-449.622 67.1619,-518.5"/>
<polygon fill="none" stroke="black" points="63.6613,-518.415 66.5997,-528.594 70.6504,-518.805 63.6613,-518.415"/>
</g>
<!-- \\FakeTripleStore -->
<g id="node36" class="node"><title>\\FakeTripleStore</title>
<polygon fill="none" stroke="black" points="1001,-484 883,-484 883,-448 1001,-448 1001,-484"/>
<text text-anchor="middle" x="942" y="-463.2" font-family="Courier,monospace" font-size="11.00">FakeTripleStore</text>
</g>
<!-- \\GraphAnalysisResults -->
<g id="node37" class="node"><title>\\GraphAnalysisResults</title>
<polygon fill="none" stroke="black" points="784.5,-106 632.5,-106 632.5,-70 784.5,-70 784.5,-106"/>
<text text-anchor="middle" x="708.5" y="-85.2" font-family="Courier,monospace" font-size="11.00">GraphAnalysisResults</text>
</g>
<!-- \\GraphAnalysisResults&#45;&gt;\\AnalysisResults -->
<g id="edge32" class="edge"><title>\\GraphAnalysisResults&#45;&gt;\\AnalysisResults</title>
<path fill="none" stroke="black" d="M645.647,-106.114C638.884,-108.79 632.208,-111.754 626,-115 590.552,-133.532 589.448,-150.468 554,-169 549.686,-171.255 545.147,-173.374 540.51,-175.355"/>
<polygon fill="none" stroke="black" points="538.863,-172.245 530.895,-179.227 541.478,-178.738 538.863,-172.245"/>
</g>
<!-- \\GraphManager -->
<g id="node38" class="node"><title>\\GraphManager</title>
<polygon fill="none" stroke="black" points="300.5,-592 202.5,-592 202.5,-556 300.5,-556 300.5,-592"/>
<text text-anchor="middle" x="251.5" y="-571.2" font-family="Courier,monospace" font-size="11.00">GraphManager</text>
</g>
<!-- \\GraphManager&#45;&gt;\\DacuraObject -->
<g id="edge33" class="edge"><title>\\GraphManager&#45;&gt;\\DacuraObject</title>
<path fill="none" stroke="black" d="M202.025,-566.906C178.19,-563.418 149.28,-559.187 124.252,-555.525"/>
<polygon fill="none" stroke="black" points="124.553,-552.032 114.151,-554.047 123.539,-558.958 124.553,-552.032"/>
</g>
<!-- \\LDDelta -->
<g id="node39" class="node"><title>\\LDDelta</title>
<polygon fill="none" stroke="black" points="283.5,-538 219.5,-538 219.5,-502 283.5,-502 283.5,-538"/>
<text text-anchor="middle" x="251.5" y="-517.2" font-family="Courier,monospace" font-size="11.00">LDDelta</text>
</g>
<!-- \\LDDelta&#45;&gt;\\DacuraObject -->
<g id="edge34" class="edge"><title>\\LDDelta&#45;&gt;\\DacuraObject</title>
<path fill="none" stroke="black" d="M219.202,-524.58C193.227,-528.381 155.581,-533.891 124.108,-538.496"/>
<polygon fill="none" stroke="black" points="123.517,-535.046 114.129,-539.957 124.53,-541.972 123.517,-535.046"/>
</g>
<!-- \\LDEntity&#45;&gt;\\DacuraObject -->
<g id="edge35" class="edge"><title>\\LDEntity&#45;&gt;\\DacuraObject</title>
<path fill="none" stroke="black" d="M215.776,-96.0873C204.934,-100.152 193.788,-106.168 186,-115 79.5222,-235.755 66.7674,-443.372 65.7959,-518.674"/>
<polygon fill="none" stroke="black" points="62.2952,-518.774 65.7283,-528.798 69.2951,-518.821 62.2952,-518.774"/>
</g>
<!-- \\LDPropertyValue -->
<g id="node41" class="node"><title>\\LDPropertyValue</title>
<polygon fill="none" stroke="black" points="310.5,-484 192.5,-484 192.5,-448 310.5,-448 310.5,-484"/>
<text text-anchor="middle" x="251.5" y="-463.2" font-family="Courier,monospace" font-size="11.00">LDPropertyValue</text>
</g>
<!-- \\LDPropertyValue&#45;&gt;\\DacuraObject -->
<g id="edge36" class="edge"><title>\\LDPropertyValue&#45;&gt;\\DacuraObject</title>
<path fill="none" stroke="black" d="M206.717,-484.144C199.773,-487.075 192.681,-490.099 186,-493 162.452,-503.225 136.456,-514.878 114.698,-524.735"/>
<polygon fill="none" stroke="black" points="112.998,-521.663 105.338,-528.983 115.891,-528.037 112.998,-521.663"/>
</g>
<!-- \\NSResolver -->
<g id="node42" class="node"><title>\\NSResolver</title>
<polygon fill="none" stroke="black" points="293.5,-430 209.5,-430 209.5,-394 293.5,-394 293.5,-430"/>
<text text-anchor="middle" x="251.5" y="-409.2" font-family="Courier,monospace" font-size="11.00">NSResolver</text>
</g>
<!-- \\NSResolver&#45;&gt;\\DacuraObject -->
<g id="edge37" class="edge"><title>\\NSResolver&#45;&gt;\\DacuraObject</title>
<path fill="none" stroke="black" d="M209.199,-426.847C201.254,-430.374 193.179,-434.453 186,-439 148.824,-462.548 112.111,-497.836 89.2764,-521.606"/>
<polygon fill="none" stroke="black" points="86.7104,-519.225 82.3674,-528.889 91.7889,-524.043 86.7104,-519.225"/>
</g>
<!-- \\PolicyEngine -->
<g id="node43" class="node"><title>\\PolicyEngine</title>
<polygon fill="none" stroke="black" points="300.5,-376 202.5,-376 202.5,-340 300.5,-340 300.5,-376"/>
<text text-anchor="middle" x="251.5" y="-355.2" font-family="Courier,monospace" font-size="11.00">PolicyEngine</text>
</g>
<!-- \\PolicyEngine&#45;&gt;\\DacuraObject -->
<g id="edge38" class="edge"><title>\\PolicyEngine&#45;&gt;\\DacuraObject</title>
<path fill="none" stroke="black" d="M202.367,-374.692C196.579,-377.679 190.968,-381.106 186,-385 137.909,-422.699 99.6006,-484.323 80.0988,-519.706"/>
<polygon fill="none" stroke="black" points="76.7794,-518.487 75.1045,-528.948 82.9378,-521.815 76.7794,-518.487"/>
</g>
<!-- \\SimpleRequestResults -->
<g id="node44" class="node"><title>\\SimpleRequestResults</title>
<polygon fill="none" stroke="black" points="784.5,-160 632.5,-160 632.5,-124 784.5,-124 784.5,-160"/>
<text text-anchor="middle" x="708.5" y="-139.2" font-family="Courier,monospace" font-size="11.00">SimpleRequestResults</text>
</g>
<!-- \\SimpleRequestResults&#45;&gt;\\AnalysisResults -->
<g id="edge39" class="edge"><title>\\SimpleRequestResults&#45;&gt;\\AnalysisResults</title>
<path fill="none" stroke="black" d="M632.498,-159.234C603.06,-165.999 569.508,-173.709 540.758,-180.315"/>
<polygon fill="none" stroke="black" points="539.765,-176.952 530.803,-182.603 541.333,-183.774 539.765,-176.952"/>
</g>
<!-- \\UpdateAnalysisResults -->
<g id="node45" class="node"><title>\\UpdateAnalysisResults</title>
<polygon fill="none" stroke="black" points="1021,-160 863,-160 863,-124 1021,-124 1021,-160"/>
<text text-anchor="middle" x="942" y="-139.2" font-family="Courier,monospace" font-size="11.00">UpdateAnalysisResults</text>
</g>
<!-- \\UpdateAnalysisResults&#45;&gt;\\SimpleRequestResults -->
<g id="edge40" class="edge"><title>\\UpdateAnalysisResults&#45;&gt;\\SimpleRequestResults</title>
<path fill="none" stroke="black" d="M862.947,-142C841.092,-142 817.224,-142 794.963,-142"/>
<polygon fill="none" stroke="black" points="794.861,-138.5 784.861,-142 794.861,-145.5 794.861,-138.5"/>
</g>
<!-- \\Schema -->
<g id="node46" class="node"><title>\\Schema</title>
<polygon fill="none" stroke="black" points="280,-322 223,-322 223,-286 280,-286 280,-322"/>
<text text-anchor="middle" x="251.5" y="-301.2" font-family="Courier,monospace" font-size="11.00">Schema</text>
</g>
<!-- \\Schema&#45;&gt;\\DacuraObject -->
<g id="edge41" class="edge"><title>\\Schema&#45;&gt;\\DacuraObject</title>
<path fill="none" stroke="black" d="M222.821,-311.076C210.475,-315.295 196.402,-321.69 186,-331 126.69,-384.085 90.3161,-473.689 74.7873,-518.987"/>
<polygon fill="none" stroke="black" points="71.3822,-518.135 71.5369,-528.728 78.0223,-520.35 71.3822,-518.135"/>
</g>
<!-- \\LoginDacuraServer -->
<g id="node47" class="node"><title>\\LoginDacuraServer</title>
<polygon fill="none" stroke="black" points="774,-430 643,-430 643,-394 774,-394 774,-430"/>
<text text-anchor="middle" x="708.5" y="-409.2" font-family="Courier,monospace" font-size="11.00">LoginDacuraServer</text>
</g>
<!-- \\LoginDacuraServer&#45;&gt;\\DacuraServer -->
<g id="edge42" class="edge"><title>\\LoginDacuraServer&#45;&gt;\\DacuraServer</title>
<path fill="none" stroke="black" d="M642.974,-426.827C607.852,-434.898 564.743,-444.804 530.664,-452.635"/>
<polygon fill="none" stroke="black" points="529.814,-449.239 520.852,-454.889 531.381,-456.061 529.814,-449.239"/>
</g>
<!-- \\LoginService -->
<g id="node48" class="node"><title>\\LoginService</title>
<polygon fill="none" stroke="black" points="520.5,-916 422.5,-916 422.5,-880 520.5,-880 520.5,-916"/>
<text text-anchor="middle" x="471.5" y="-895.2" font-family="Courier,monospace" font-size="11.00">LoginService</text>
</g>
<!-- \\LoginService&#45;&gt;\\DacuraService -->
<g id="edge43" class="edge"><title>\\LoginService&#45;&gt;\\DacuraService</title>
<path fill="none" stroke="black" d="M422.427,-891.629C409.811,-887.659 397.401,-881.267 389,-871 220.596,-665.184 477.407,-489.108 317,-277 315.43,-274.924 313.671,-273.007 311.765,-271.236"/>
<polygon fill="none" stroke="black" points="313.842,-268.417 303.778,-265.105 309.579,-273.97 313.842,-268.417"/>
</g>
<!-- \\Graph -->
<g id="node49" class="node"><title>\\Graph</title>
<polygon fill="none" stroke="black" points="498.5,-106 444.5,-106 444.5,-70 498.5,-70 498.5,-106"/>
<text text-anchor="middle" x="471.5" y="-85.2" font-family="Courier,monospace" font-size="11.00">Graph</text>
</g>
<!-- \\Graph&#45;&gt;\\LDEntity -->
<g id="edge44" class="edge"><title>\\Graph&#45;&gt;\\LDEntity</title>
<path fill="none" stroke="black" d="M444.204,-88C407.825,-88 341.628,-88 297.352,-88"/>
<polygon fill="none" stroke="black" points="297.153,-84.5001 287.153,-88 297.153,-91.5001 297.153,-84.5001"/>
</g>
<!-- \\GraphCreateRequest -->
<g id="node50" class="node"><title>\\GraphCreateRequest</title>
<polygon fill="none" stroke="black" points="777.5,-322 639.5,-322 639.5,-286 777.5,-286 777.5,-322"/>
<text text-anchor="middle" x="708.5" y="-301.2" font-family="Courier,monospace" font-size="11.00">GraphCreateRequest</text>
</g>
<!-- \\GraphCreateRequest&#45;&gt;\\EntityCreateRequest -->
<g id="edge45" class="edge"><title>\\GraphCreateRequest&#45;&gt;\\EntityCreateRequest</title>
<path fill="none" stroke="black" d="M639.213,-288.308C612.66,-282.207 582.015,-275.165 554.298,-268.796"/>
<polygon fill="none" stroke="black" points="554.762,-265.312 544.232,-266.483 553.194,-272.134 554.762,-265.312"/>
</g>
<!-- \\GraphUpdateRequest -->
<g id="node51" class="node"><title>\\GraphUpdateRequest</title>
<polygon fill="none" stroke="black" points="540.5,-430 402.5,-430 402.5,-394 540.5,-394 540.5,-430"/>
<text text-anchor="middle" x="471.5" y="-409.2" font-family="Courier,monospace" font-size="11.00">GraphUpdateRequest</text>
</g>
<!-- \\GraphUpdateRequest&#45;&gt;\\EntityUpdate -->
<g id="edge46" class="edge"><title>\\GraphUpdateRequest&#45;&gt;\\EntityUpdate</title>
<path fill="none" stroke="black" d="M402.185,-395.083C397.381,-392.23 392.903,-388.896 389,-385 317.38,-313.512 385.833,-243.176 317,-169 314.616,-166.431 311.949,-164.097 309.093,-161.98"/>
<polygon fill="none" stroke="black" points="310.935,-159.003 300.624,-156.565 307.164,-164.9 310.935,-159.003"/>
</g>
<!-- \\Ontology -->
<g id="node52" class="node"><title>\\Ontology</title>
<polygon fill="none" stroke="black" points="507,-52 436,-52 436,-16 507,-16 507,-52"/>
<text text-anchor="middle" x="471.5" y="-31.2" font-family="Courier,monospace" font-size="11.00">Ontology</text>
</g>
<!-- \\Ontology&#45;&gt;\\LDEntity -->
<g id="edge47" class="edge"><title>\\Ontology&#45;&gt;\\LDEntity</title>
<path fill="none" stroke="black" d="M435.957,-42.5565C398.358,-51.8702 338.116,-66.7925 296.999,-76.9774"/>
<polygon fill="none" stroke="black" points="296.106,-73.5925 287.241,-79.3943 297.79,-80.3872 296.106,-73.5925"/>
</g>
<!-- \\OntologyCreateRequest -->
<g id="node53" class="node"><title>\\OntologyCreateRequest</title>
<polygon fill="none" stroke="black" points="787.5,-268 629.5,-268 629.5,-232 787.5,-232 787.5,-268"/>
<text text-anchor="middle" x="708.5" y="-247.2" font-family="Courier,monospace" font-size="11.00">OntologyCreateRequest</text>
</g>
<!-- \\OntologyCreateRequest&#45;&gt;\\EntityCreateRequest -->
<g id="edge48" class="edge"><title>\\OntologyCreateRequest&#45;&gt;\\EntityCreateRequest</title>
<path fill="none" stroke="black" d="M629.248,-250C605.182,-250 578.633,-250 554.333,-250"/>
<polygon fill="none" stroke="black" points="554.07,-246.5 544.07,-250 554.07,-253.5 554.07,-246.5"/>
</g>
<!-- \\OntologyUpdateRequest -->
<g id="node54" class="node"><title>\\OntologyUpdateRequest</title>
<polygon fill="none" stroke="black" points="550.5,-376 392.5,-376 392.5,-340 550.5,-340 550.5,-376"/>
<text text-anchor="middle" x="471.5" y="-355.2" font-family="Courier,monospace" font-size="11.00">OntologyUpdateRequest</text>
</g>
<!-- \\OntologyUpdateRequest&#45;&gt;\\EntityUpdate -->
<g id="edge49" class="edge"><title>\\OntologyUpdateRequest&#45;&gt;\\EntityUpdate</title>
<path fill="none" stroke="black" d="M401.403,-339.98C396.951,-337.379 392.755,-334.403 389,-331 330.616,-278.091 373.317,-224.103 317,-169 314.614,-166.665 311.996,-164.521 309.224,-162.552"/>
<polygon fill="none" stroke="black" points="310.866,-159.452 300.522,-157.161 307.179,-165.403 310.866,-159.452"/>
</g>
<!-- \\SchemaDacuraServer -->
<g id="node55" class="node"><title>\\SchemaDacuraServer</title>
<polygon fill="none" stroke="black" points="1011,-430 873,-430 873,-394 1011,-394 1011,-430"/>
<text text-anchor="middle" x="942" y="-409.2" font-family="Courier,monospace" font-size="11.00">SchemaDacuraServer</text>
</g>
<!-- \\SchemaDacuraServer&#45;&gt;\\LdDacuraServer -->
<g id="edge50" class="edge"><title>\\SchemaDacuraServer&#45;&gt;\\LdDacuraServer</title>
<path fill="none" stroke="black" d="M872.794,-427.91C841.504,-435.209 804.603,-443.816 773.803,-451.001"/>
<polygon fill="none" stroke="black" points="772.976,-447.599 764.033,-453.28 774.566,-454.416 772.976,-447.599"/>
</g>
<!-- \\SchemaService -->
<g id="node56" class="node"><title>\\SchemaService</title>
<polygon fill="none" stroke="black" points="760.5,-835 656.5,-835 656.5,-799 760.5,-799 760.5,-835"/>
<text text-anchor="middle" x="708.5" y="-814.2" font-family="Courier,monospace" font-size="11.00">SchemaService</text>
</g>
<!-- \\SchemaService&#45;&gt;\\LdService -->
<g id="edge51" class="edge"><title>\\SchemaService&#45;&gt;\\LdService</title>
<path fill="none" stroke="black" d="M656.219,-822.892C615.804,-827.535 559.87,-833.962 520.365,-838.501"/>
<polygon fill="none" stroke="black" points="519.726,-835.051 510.191,-839.67 520.525,-842.005 519.726,-835.051"/>
</g>
<!-- \\UsersDacuraServer -->
<g id="node57" class="node"><title>\\UsersDacuraServer</title>
<polygon fill="none" stroke="black" points="774,-376 643,-376 643,-340 774,-340 774,-376"/>
<text text-anchor="middle" x="708.5" y="-355.2" font-family="Courier,monospace" font-size="11.00">UsersDacuraServer</text>
</g>
<!-- \\UsersDacuraServer&#45;&gt;\\DacuraServer -->
<g id="edge52" class="edge"><title>\\UsersDacuraServer&#45;&gt;\\DacuraServer</title>
<path fill="none" stroke="black" d="M645.647,-376.114C638.884,-378.79 632.208,-381.754 626,-385 590.552,-403.532 589.448,-420.468 554,-439 546.5,-442.921 538.317,-446.431 530.124,-449.519"/>
<polygon fill="none" stroke="black" points="528.776,-446.284 520.541,-452.951 531.135,-452.875 528.776,-446.284"/>
</g>
<!-- \\UsersService -->
<g id="node58" class="node"><title>\\UsersService</title>
<polygon fill="none" stroke="black" points="520.5,-808 422.5,-808 422.5,-772 520.5,-772 520.5,-808"/>
<text text-anchor="middle" x="471.5" y="-787.2" font-family="Courier,monospace" font-size="11.00">UsersService</text>
</g>
<!-- \\UsersService&#45;&gt;\\DacuraService -->
<g id="edge53" class="edge"><title>\\UsersService&#45;&gt;\\DacuraService</title>
<path fill="none" stroke="black" d="M422.175,-783.351C409.708,-779.369 397.44,-773.041 389,-763 248.5,-595.848 451.002,-449.405 317,-277 315.403,-274.945 313.621,-273.045 311.697,-271.289"/>
<polygon fill="none" stroke="black" points="313.74,-268.446 303.655,-265.199 309.514,-274.026 313.74,-268.446"/>
</g>
<!-- \\UserManager -->
<g id="node59" class="node"><title>\\UserManager</title>
<polygon fill="none" stroke="black" points="517,-646 426,-646 426,-610 517,-610 517,-646"/>
<text text-anchor="middle" x="471.5" y="-625.2" font-family="Courier,monospace" font-size="11.00">UserManager</text>
</g>
<!-- \\UserManager&#45;&gt;\\DacuraController -->
<g id="edge54" class="edge"><title>\\UserManager&#45;&gt;\\DacuraController</title>
<path fill="none" stroke="black" d="M425.839,-622.155C412.249,-618.249 398.431,-611.762 389,-601 276.289,-472.376 424.708,-355.842 317,-223 316.398,-222.257 315.772,-221.535 315.124,-220.832"/>
<polygon fill="none" stroke="black" points="317.243,-218.033 307.434,-214.027 312.604,-223.276 317.243,-218.033"/>
</g>
<!-- \\UserRole -->
<g id="node60" class="node"><title>\\UserRole</title>
<polygon fill="none" stroke="black" points="287,-52 216,-52 216,-16 287,-16 287,-52"/>
<text text-anchor="middle" x="251.5" y="-31.2" font-family="Courier,monospace" font-size="11.00">UserRole</text>
</g>
<!-- \\UserRole&#45;&gt;\\DacuraObject -->
<g id="edge55" class="edge"><title>\\UserRole&#45;&gt;\\DacuraObject</title>
<path fill="none" stroke="black" d="M215.963,-41.8334C205.004,-45.8897 193.739,-51.9642 186,-61 125.299,-131.877 81.9953,-425.831 69.6152,-518.729"/>
<polygon fill="none" stroke="black" points="66.1257,-518.42 68.291,-528.791 73.0659,-519.333 66.1257,-518.42"/>
</g>
</g>
</svg>
